<?xml version="1.0"?>
<svg xmlns="http://www.w3.org/2000/svg" viewBox="0 0 64 64" width="512" height="512"><g id="copyright"><path d="M16.68,19.44a1.371,1.371,0,0,0-.36-.41l-4.7,4.69,4.3.48a1,1,0,0,1,.88.88l.48,4.3,4.69-4.7a1.384,1.384,0,0,0-.42-.36,3.785,3.785,0,0,0-1.34.02c-1.03.11-2.19.24-2.99-.56s-.67-1.96-.56-2.99A3.617,3.617,0,0,0,16.68,19.44Z"/><path d="M24,24c.26.33.79,1,1,1s.74-.67,1-1a4.544,4.544,0,0,1,1.68-1.53,4.688,4.688,0,0,1,2.33-.12,3.854,3.854,0,0,0,1.36.01,3.84,3.84,0,0,0-.02-1.35,4.688,4.688,0,0,1,.12-2.33A4.544,4.544,0,0,1,33,17c.33-.26,1-.79,1-1s-.67-.74-1-1a4.544,4.544,0,0,1-1.53-1.68,4.688,4.688,0,0,1-.12-2.33,3.629,3.629,0,0,0,.01-1.36,3.84,3.84,0,0,0-1.35.02,4.688,4.688,0,0,1-2.33-.12A4.544,4.544,0,0,1,26,8c-.26-.33-.79-1-1-1s-.74.67-1,1a4.544,4.544,0,0,1-1.68,1.53,4.688,4.688,0,0,1-2.33.12,3.629,3.629,0,0,0-1.36-.01,3.84,3.84,0,0,0,.02,1.35,4.688,4.688,0,0,1-.12,2.33A4.544,4.544,0,0,1,17,15c-.33.26-1,.79-1,1s.67.74,1,1a4.544,4.544,0,0,1,1.53,1.68,4.688,4.688,0,0,1,.12,2.33,3.629,3.629,0,0,0-.01,1.36,3.84,3.84,0,0,0,1.35-.02,10.939,10.939,0,0,1,1.14-.09,3.021,3.021,0,0,1,1.19.21A4.544,4.544,0,0,1,24,24Zm-4-8a5,5,0,1,1,5,5A5.006,5.006,0,0,1,20,16Z"/><polygon points="41 5.41 41 9 44.59 9 41 5.41"/><path d="M39.75,52H8V50H37.63a19.585,19.585,0,0,1-1.64-2H8V46H34.71a21.844,21.844,0,0,1-.99-2H8V42H32.97c-.2-.66-.37-1.32-.52-2H8V38H32.13A21.816,21.816,0,0,1,32,35.71V31.48l-5.28-5.27a2.267,2.267,0,0,1-3.44,0l-6.06,6.06a1.007,1.007,0,0,1-.71.29.96.96,0,0,1-.33-.06.986.986,0,0,1-.66-.83L14.9,26.1l-5.57-.62a.986.986,0,0,1-.83-.66,1,1,0,0,1,.23-1.04l6.06-6.06A2.482,2.482,0,0,1,14,16c0-1.18.97-1.95,1.76-2.57a3.726,3.726,0,0,0,.92-.88,3.562,3.562,0,0,0-.02-1.34c-.11-1.03-.24-2.19.56-2.99s1.96-.67,2.99-.56a3.617,3.617,0,0,0,1.35.02,3.91,3.91,0,0,0,.87-.92C23.05,5.98,23.82,5,25,5s1.95.97,2.57,1.76a3.726,3.726,0,0,0,.88.92,3.562,3.562,0,0,0,1.34-.02c1.02-.11,2.19-.24,2.99.56s.67,1.96.56,2.99a3.617,3.617,0,0,0-.02,1.35,3.91,3.91,0,0,0,.92.87C35.02,14.05,36,14.82,36,16a2.482,2.482,0,0,1-.79,1.72l4.37,4.37L46,19.34V11H40a1,1,0,0,1-1-1V4H5A1,1,0,0,0,4,5V59a1,1,0,0,0,1,1H45a1,1,0,0,0,1-1V56.51L40.79,52.8C40.44,52.54,40.09,52.27,39.75,52Z"/><path d="M32,26a1,1,0,0,1,.61-.92l4.99-2.14-3.92-3.91a1.384,1.384,0,0,0-.36.42,3.562,3.562,0,0,0,.02,1.34c.11,1.03.24,2.19-.56,2.99s-1.97.67-2.99.56a3.617,3.617,0,0,0-1.35-.02,1.371,1.371,0,0,0-.41.36L32,28.66Z"/><circle cx="25" cy="16" r="3"/><path d="M34,26.66v9.05a19.023,19.023,0,0,0,7.96,15.46L47,54.77l5.04-3.6A19.023,19.023,0,0,0,60,35.71V26.66L47,21.09Zm23.371,1.411A1,1,0,0,1,58,29v6.31a16.914,16.914,0,0,1-6.38,13.275l-3.995,3.2a1,1,0,0,1-1.25,0l-3.995-3.2A16.914,16.914,0,0,1,36,35.31V29a1,1,0,0,1,.629-.929l10-4a1,1,0,0,1,.742,0Z"/><path d="M38,29.677V35.31a14.922,14.922,0,0,0,5.63,11.712L47,49.72l3.37-2.7A14.922,14.922,0,0,0,56,35.31V29.677l-9-3.6Zm14.753,3.981-7,8a1,1,0,0,1-.72.341H45a1,1,0,0,1-.707-.293l-3-3,1.414-1.414,2.244,2.244,6.3-7.195Z"/></g></svg>
