<svg width="44" height="50" viewBox="0 0 44 50" fill="none" xmlns="http://www.w3.org/2000/svg">
<path d="M14.7634 40.8698C14.5741 40.7668 14.5775 40.7668 14.7003 40.5972C14.7302 40.554 14.7402 40.4942 14.7601 40.441C14.9427 40.5075 15.0357 40.4576 15.0523 40.2548C15.0656 40.1053 15.0523 39.9557 15.0523 39.8194C14.9593 39.9823 14.863 40.1518 14.7634 40.3247C14.7335 40.2515 14.707 40.1784 14.6738 40.1019C14.8531 39.969 14.9128 39.7529 14.7966 39.5934C14.9162 39.5535 14.966 39.5003 14.9228 39.3507C14.8962 39.2609 14.956 39.1346 15.0058 39.0382C15.059 38.9252 15.142 38.8288 15.215 38.7258C15.2881 38.6227 15.3611 38.5197 15.4375 38.4166C15.577 38.2338 15.5604 38.1707 15.3478 38.0676C14.9128 37.8582 14.4812 37.6421 14.0428 37.4394C13.6444 37.2532 13.2393 37.0837 12.8441 36.8942C12.4855 36.7214 12.1335 36.5319 11.7749 36.3557C11.4926 36.2128 11.2037 36.0865 10.9248 35.9336C10.7056 35.8139 10.4998 35.671 10.2873 35.5413C10.1843 35.4782 10.0747 35.425 9.96516 35.3718C9.57997 35.1856 9.27779 34.8765 8.91585 34.6505C8.64356 34.4809 8.36795 34.3181 8.1023 34.1386C7.95952 34.0422 7.83001 33.9225 7.69387 33.8161C7.46475 33.6433 7.23231 33.4737 7.00651 33.2976C6.96998 33.2677 6.96666 33.2012 6.94009 33.1546C6.92681 33.1247 6.90357 33.0981 6.877 33.0815C6.70433 32.9652 6.5217 32.8621 6.35567 32.7358C6.23613 32.6461 6.12323 32.5364 6.03025 32.4167C5.91403 32.2638 5.82437 32.0976 5.63842 31.9945C5.53548 31.938 5.50228 31.7652 5.42922 31.6522C5.33957 31.5159 5.23995 31.3829 5.14365 31.2499C5.06728 31.1502 4.98758 31.0505 4.90457 30.9541C4.81823 30.8544 4.71197 30.768 4.6356 30.6616C4.52934 30.512 4.45297 30.3458 4.35335 30.1929C4.27697 30.0799 4.17404 29.9868 4.09434 29.8771C3.97812 29.7109 3.8619 29.5414 3.76228 29.3652C3.6361 29.1458 3.44683 29.0394 3.21438 28.9763C3.10148 28.9464 2.99522 28.8998 2.88896 28.8533C2.7661 28.7968 2.72626 28.6904 2.76942 28.5574C2.96202 28.6505 3.15461 28.7469 3.34721 28.8433L3.38373 28.8234C3.32728 28.7237 3.27083 28.6239 3.21106 28.5242C3.0716 28.2882 2.92217 28.0588 2.78603 27.8195C2.54694 27.3874 2.2979 26.9586 2.08206 26.5098C1.86622 26.0577 1.69023 25.5824 1.49099 25.1204C1.38806 24.8777 1.26851 24.6417 1.1689 24.3957C1.02943 24.0567 0.889966 23.7143 0.773745 23.3686C0.667486 23.0528 0.57783 22.7304 0.494815 22.4046C0.4118 22.0689 0.35535 21.7265 0.275655 21.3908C0.19264 21.0484 0.225846 20.6794 0.0332517 20.3669C0.0199693 20.347 0.0199693 20.3171 0.0199693 20.2905C-0.0298396 19.6589 -0.00659544 19.0307 0.0930225 18.4057C0.0930225 18.3891 0.102984 18.3725 0.0996637 18.3592C0.00336637 18.0334 0.126228 17.721 0.169396 17.4052C0.222526 17.0096 0.285617 16.6141 0.345388 16.2218C0.398517 15.8562 0.458288 15.4939 0.501456 15.1282C0.534662 14.8523 0.597753 14.5664 0.564547 14.2972C0.537982 14.0479 0.650883 13.8617 0.704012 13.649C0.737218 13.5127 0.727256 13.3665 0.740539 13.2235C0.743859 13.177 0.74718 13.1271 0.763783 13.0872C0.899927 12.7781 1.04935 12.4723 1.17886 12.1565C1.32828 11.7908 1.46443 11.4219 1.60721 11.0529C1.61386 11.0396 1.61386 11.023 1.6205 11.0064C1.68359 10.8767 1.74336 10.7471 1.81309 10.6208C1.89943 10.4579 1.99572 10.3017 2.08538 10.1388C2.2182 9.89945 2.33775 9.65014 2.48053 9.41746C2.62996 9.17812 2.80263 8.95209 2.9587 8.71608C3.09152 8.51663 3.21438 8.30389 3.35385 8.10777C3.48999 7.91498 3.64274 7.73548 3.79217 7.54933C3.95488 7.34989 4.11094 7.14379 4.28362 6.95432C4.5393 6.6751 4.84148 6.42912 5.06728 6.12663C5.37609 5.71112 5.84098 5.49173 6.18632 5.12276C6.39219 4.90337 6.67112 4.75711 6.91685 4.57429C7.09948 4.438 7.27215 4.28509 7.45811 4.15878C7.64406 4.03247 7.85326 3.93607 8.03921 3.80975C8.17536 3.71668 8.28494 3.58704 8.41444 3.48399C8.46757 3.44078 8.5373 3.41086 8.60371 3.38095C8.80295 3.2912 9.0055 3.2081 9.20142 3.11835C9.41726 3.01862 9.6331 2.92223 9.84229 2.81253C9.99504 2.73275 10.1345 2.62971 10.2806 2.53996C10.3437 2.50339 10.4101 2.47348 10.4765 2.44356C10.7621 2.3106 11.0444 2.17099 11.3366 2.05132C11.6852 1.91171 12.0472 1.79869 12.3992 1.6624C12.6117 1.5793 12.8109 1.46296 13.0267 1.38318C13.1596 1.33332 13.319 1.34662 13.4485 1.29011C13.8934 1.10064 14.3716 1.0408 14.8332 0.924461C15.039 0.871275 15.2349 0.778201 15.4342 0.71172C15.5404 0.678479 15.65 0.655211 15.7596 0.638591C16.0651 0.588729 16.3739 0.552165 16.6794 0.49898C16.8786 0.462415 17.0712 0.395934 17.2671 0.362693C17.4365 0.3361 17.6092 0.342748 17.7818 0.322804C17.9645 0.30286 18.1471 0.262971 18.3297 0.243026C18.5622 0.216434 18.7946 0.203138 19.0271 0.186517C19.0702 0.183193 19.1101 0.183193 19.1532 0.173221C19.3292 0.136656 19.5052 0.0901192 19.6812 0.0668507C19.8605 0.0435822 20.0398 0.0469063 20.2192 0.0402581C20.445 0.03361 20.6674 0.03361 20.8932 0.0269618C21.2253 0.0169896 21.554 -0.00295477 21.8861 0.000369299C22.0953 0.000369299 22.3045 0.0435822 22.5137 0.0635266C22.5635 0.0668507 22.6166 0.0635266 22.6664 0.0635266C22.9487 0.0469063 23.2243 0.0635266 23.5066 0.113388C23.812 0.166573 24.1341 0.130008 24.4529 0.130008C24.4928 0.130008 24.5426 0.0934432 24.5725 0.110064C24.8481 0.236378 25.1502 0.169897 25.4259 0.233054C25.7015 0.299536 25.9738 0.239702 26.2427 0.289563C26.432 0.326128 26.618 0.392609 26.8072 0.429174C27.1028 0.485683 27.3983 0.518924 27.6938 0.578757C27.9229 0.625294 28.1454 0.701748 28.3712 0.761581C28.6269 0.828063 28.8826 0.887896 29.135 0.964349C29.3143 1.01753 29.4869 1.09399 29.6629 1.15715C29.9518 1.26019 30.244 1.35659 30.5329 1.45964C30.7156 1.52612 30.8982 1.59925 31.0775 1.6757C31.29 1.76545 31.4959 1.87847 31.7117 1.94827C31.8877 2.00811 32.0803 2.01808 32.2663 2.05797C32.3427 2.07459 32.4124 2.10451 32.4888 2.12113C32.5419 2.1311 32.605 2.14107 32.6548 2.12445C32.771 2.09121 32.781 2.02805 32.688 1.94495C32.5718 1.84523 32.4489 1.75215 32.3327 1.65576C32.3095 1.63581 32.2995 1.60589 32.2928 1.53277C32.4257 1.55271 32.5685 1.55271 32.6913 1.60257C32.9636 1.70894 33.2226 1.83858 33.4883 1.95825C33.9731 2.17763 34.4678 2.37708 34.9394 2.61974C35.2747 2.79259 35.5802 3.03192 35.9023 3.23469C36.0717 3.34106 36.2576 3.42084 36.4237 3.53053C36.6295 3.66349 36.8421 3.79313 37.0214 3.95934C37.3866 4.29839 37.732 4.66071 38.0873 5.00974C38.2633 5.18259 38.4492 5.3488 38.6285 5.51832C38.7514 5.63134 38.8809 5.74104 38.9971 5.8607C39.3624 6.2463 39.6945 6.65516 39.9867 7.10058C40.1062 7.28008 40.249 7.44628 40.3652 7.62911C40.4881 7.8219 40.5943 8.028 40.7039 8.23076C40.8401 8.48339 40.9596 8.746 41.1057 8.9953C41.2485 9.24461 41.4245 9.47729 41.5673 9.7266C41.6835 9.92604 41.7698 10.1454 41.8694 10.3548C41.979 10.5875 42.0986 10.8169 42.1982 11.0562C42.2646 11.2091 42.3011 11.372 42.3576 11.5316C42.4539 11.8041 42.5701 12.0734 42.6531 12.3526C42.7394 12.6418 42.7992 12.9376 42.8656 13.2302C42.9619 13.659 43.0582 14.0844 43.1412 14.5133C43.1844 14.7293 43.1944 14.952 43.2276 15.1714C43.2707 15.4573 43.3272 15.7432 43.3704 16.0324C43.3969 16.2052 43.4102 16.3847 43.4401 16.5576C43.4799 16.7936 43.5729 17.0296 43.5663 17.2656C43.5596 17.4617 43.5962 17.6312 43.636 17.8141C43.6559 17.9105 43.6061 18.0201 43.5995 18.1265C43.5895 18.2429 43.5829 18.3625 43.5862 18.4789C43.5862 18.5586 43.6028 18.6417 43.6128 18.7548C43.719 18.8146 43.7124 18.9243 43.6759 19.0706C43.5995 19.3764 43.5397 19.6922 43.4999 20.0046C43.4833 20.1309 43.4766 20.2539 43.4368 20.3802C43.4102 20.4633 43.4501 20.5764 43.4866 20.6694C43.5663 20.8689 43.4102 20.9952 43.3538 21.1514C43.3338 21.2079 43.3106 21.2644 43.294 21.3209C43.2375 21.5204 43.1811 21.7232 43.1346 21.9259C43.1014 22.0689 43.0848 22.2151 43.0715 22.3614C43.0582 22.5209 43.0217 22.6605 42.942 22.8068C42.7693 23.1292 42.6365 23.4716 42.4904 23.8074C42.424 23.9569 42.3808 24.1198 42.3011 24.2627C42.2414 24.3658 42.1351 24.4423 42.0587 24.5386C42.0122 24.5985 41.9724 24.6683 41.9458 24.7381C41.8396 25.014 41.7134 25.2733 41.4876 25.4794C41.3548 25.599 41.2717 25.7719 41.1655 25.9181C41.1422 25.9514 41.1124 25.9946 41.0791 26.0046C40.8832 26.0577 40.8367 26.2273 40.7737 26.3835C40.7106 26.5431 40.6574 26.7026 40.5977 26.8622C40.591 26.8821 40.5777 26.9087 40.5645 26.912C40.3088 26.9519 40.3054 27.2444 40.1162 27.3541C40.0996 27.3641 40.0929 27.404 40.083 27.404C39.9003 27.4073 39.9103 27.6001 39.814 27.6832C39.7409 27.7464 39.6845 27.8328 39.6081 27.8926C39.5019 27.9724 39.3856 28.0356 39.3757 28.1885C39.3757 28.2018 39.3624 28.2217 39.3491 28.2284C39.0968 28.3514 39.0569 28.614 38.9407 28.8267C38.8975 28.9065 38.8012 28.953 38.7381 29.0195C38.5688 29.209 38.3928 29.3951 38.2367 29.5979C38.0939 29.784 37.8382 30.0101 37.6888 30.0699C37.5859 30.2394 37.5328 30.3724 37.4431 30.4655C37.2472 30.6616 37.028 30.8378 36.8221 31.0272C36.7424 31.1004 36.676 31.1901 36.5997 31.2666C36.5731 31.2965 36.5266 31.3397 36.5 31.333C36.3506 31.2898 36.3373 31.4228 36.2643 31.4893C36.1248 31.6156 36.0518 31.825 35.8326 31.8516C35.8027 31.8549 35.7728 31.8915 35.7496 31.9181C35.5968 32.0943 35.4076 32.2073 35.1784 32.2538C35.1253 32.2638 35.0821 32.3269 35.029 32.3569C34.9526 32.4034 34.8696 32.44 34.7833 32.4732C34.7069 32.5231 34.6272 32.5696 34.5542 32.6228C34.4911 32.6693 34.4346 32.7225 34.3815 32.7757C34.3317 32.8222 34.2885 32.9253 34.2454 32.922C34.0461 32.9087 33.9631 33.0915 33.8137 33.1546C33.7373 33.1879 33.6643 33.2311 33.5912 33.2909C33.5215 33.3242 33.4484 33.3541 33.382 33.3906C33.2625 33.4571 33.1496 33.5336 33.03 33.5901C32.9105 33.6499 32.7777 33.6832 32.6548 33.743C32.5386 33.7995 32.439 33.8826 32.3227 33.9358C32.1235 34.0289 31.9143 34.1053 31.7117 34.1984C31.5889 34.2549 31.4727 34.328 31.3531 34.3912C31.2369 34.451 31.1174 34.5042 31.0011 34.5574C30.9347 34.5873 30.865 34.6139 30.7986 34.6438C30.7255 34.6771 30.6591 34.7236 30.5861 34.7402C30.4333 34.7768 30.2772 34.7967 30.1212 34.8233C30.1046 34.8233 30.0847 34.8366 30.0747 34.83C29.9253 34.7136 29.8589 34.8599 29.7559 34.923C29.6098 35.0128 29.4571 35.1025 29.2944 35.1524C28.9889 35.2455 28.6734 35.3086 28.3613 35.3917C28.2484 35.4217 28.1388 35.4682 28.0392 35.5247C27.9329 35.5845 27.8333 35.5845 27.7137 35.5912C27.4946 35.6045 27.2821 35.6909 27.0662 35.7574C27.033 35.7674 27.0164 35.8205 26.9899 35.8538C26.8039 35.7973 26.6246 35.7707 26.4287 35.8471C26.266 35.9103 26.08 35.9336 25.904 35.9502C25.8409 35.9568 25.7679 35.9003 25.6849 35.8704C25.5819 35.9934 25.4491 35.9768 25.293 35.9502C25.0672 35.9103 24.8348 35.9169 24.6057 35.9003C24.5957 35.9003 24.5857 35.9003 24.5758 35.8937C24.2869 35.8239 23.9947 35.7507 23.7058 35.6876C23.1413 35.5646 22.5735 35.4449 22.0056 35.3219C21.8263 35.282 21.6503 35.2222 21.4743 35.179C21.2685 35.1258 21.0593 35.0826 20.8501 35.0327C20.7471 35.0061 20.6475 34.9795 20.5479 34.943C20.2125 34.82 19.8771 34.6937 19.5418 34.574C19.3957 34.5208 19.2363 34.4942 19.1001 34.4244C18.8909 34.3181 18.6751 34.205 18.4958 34.0555C18.3331 33.9192 18.2135 33.7264 18.0741 33.5602C18.0076 33.4804 17.9379 33.4006 17.8682 33.3242C17.7287 33.1679 17.6025 32.9984 17.4465 32.8588C17.2871 32.7159 17.1078 32.5929 16.9251 32.4798C16.8155 32.4134 16.706 32.3768 16.7192 32.2073C16.7226 32.1441 16.6396 32.0544 16.5731 32.0112C16.3208 31.835 16.1315 31.6123 15.992 31.3364C15.7994 30.9607 15.5803 30.5951 15.3844 30.2228C15.3213 30.1031 15.298 29.9635 15.2449 29.8405C15.0855 29.4849 14.9162 29.1325 14.7568 28.7768C14.6738 28.5874 14.5343 28.3912 14.5376 28.2018C14.5443 27.9757 14.4015 27.8394 14.355 27.6533C14.2919 27.4007 14.2354 27.1447 14.1724 26.8921C14.1624 26.8489 14.1491 26.7957 14.1192 26.7691C13.9964 26.6627 13.9798 26.5231 13.9532 26.3769C13.9133 26.1475 13.8469 25.9248 13.7938 25.6987C13.7872 25.6655 13.7938 25.6289 13.7872 25.5957C13.7606 25.4096 13.734 25.2201 13.7008 25.0373C13.6776 24.9043 13.6377 24.7713 13.6079 24.6384C13.5979 24.6018 13.6079 24.5486 13.5846 24.5353C13.4551 24.4389 13.5049 24.2993 13.5082 24.1863C13.5082 24.0367 13.4916 23.9038 13.392 23.7907C13.3787 23.7741 13.3555 23.7575 13.3555 23.7409C13.3953 23.4351 13.1928 23.1758 13.1828 22.8766C13.1762 22.7337 13.0799 22.6007 13.04 22.4578C13.0168 22.378 13.0101 22.2849 13.0301 22.2052C13.0633 22.0689 13.0865 21.9492 13.0467 21.7963C12.9803 21.5337 12.9803 21.2511 12.9504 20.9786C12.9205 20.6827 12.957 20.3802 12.8142 20.0977C12.7511 19.9747 12.7412 19.8118 12.7379 19.6656C12.7312 19.4229 12.7545 19.1802 12.7578 18.9343C12.7578 18.8778 12.7545 18.8113 12.7213 18.7714C12.5718 18.5653 12.6681 18.3692 12.7379 18.1697C12.8375 17.8872 12.9603 17.608 13.0267 17.3188C13.0633 17.1625 13.0068 16.983 12.9969 16.8135C12.9902 16.7105 12.9902 16.6074 12.9836 16.5044C12.9769 16.4047 12.9603 16.3049 12.957 16.2085C12.9537 16.1254 12.957 16.039 12.9471 15.9459C12.967 15.7897 12.9736 15.6335 13.0135 15.4806C13.0699 15.2645 13.1463 15.0518 13.216 14.839C13.2758 14.6529 13.3356 14.4734 13.495 14.3371C13.6543 14.2008 13.7905 14.0313 13.9399 13.8817C13.9698 13.8518 14.0196 13.8218 14.0595 13.8185C14.3417 13.8052 14.5775 13.6955 14.7734 13.4861C14.6605 13.3831 14.5476 13.2767 14.4347 13.1737C14.4413 13.1637 14.4446 13.1504 14.4513 13.1404C14.7169 13.2401 14.9793 13.3399 15.2449 13.4396C15.2549 13.4196 15.2648 13.3964 15.2781 13.3764C15.2051 13.3299 15.132 13.28 15.059 13.2335C15.0656 13.1969 15.0689 13.1537 15.0756 13.1072C15.1021 13.1205 15.1453 13.1338 15.1785 13.157C15.401 13.3066 15.6666 13.2701 15.9123 13.3232C16.3938 13.4263 16.8454 13.5958 17.2605 13.8784C17.566 14.0878 17.9047 14.254 18.2467 14.3936C18.788 14.6163 19.0603 15.0385 19.2595 15.5603C19.3824 15.8828 19.575 16.1853 19.7609 16.4811C19.8473 16.6207 19.9867 16.7304 20.1096 16.8401C20.1395 16.8667 20.2192 16.8767 20.2557 16.8567C20.7339 16.5974 21.2087 16.3215 21.6902 16.0656C22.0189 15.8894 22.3543 15.7265 22.693 15.5703C23.1081 15.3775 23.5232 15.1814 23.9482 15.0085C24.2039 14.9022 24.4762 14.839 24.7352 14.7459C24.9909 14.6529 25.2432 14.5498 25.4889 14.4434C25.9605 14.2374 26.4619 14.1543 26.9633 14.0512C26.9733 14.0512 26.9865 14.0479 26.9965 14.0512C27.292 14.1443 27.5876 14.0047 27.8831 14.0512C28.1222 14.0878 28.3613 14.111 28.6003 14.1476C28.6369 14.1543 28.6834 14.1775 28.7 14.2074C28.8427 14.5033 28.9523 14.7858 28.876 15.1448C28.8195 15.4141 28.6003 15.5404 28.5173 15.7664C28.441 15.9725 28.3513 16.172 28.2849 16.3814C28.2749 16.4179 28.3413 16.501 28.3911 16.531C28.5173 16.6074 28.6468 16.8468 28.607 16.993C28.597 17.0362 28.5472 17.0894 28.5074 17.0961C28.2782 17.1426 28.162 17.3287 28.0093 17.465C28.0259 17.4717 28.0425 17.4783 28.0591 17.485C28.0425 17.5814 28.0259 17.6778 28.006 17.7775C27.9894 17.8639 27.9694 17.9503 27.9595 18.0368C27.9462 18.1431 27.9097 18.2163 27.83 18.3093C27.6473 18.5188 27.3618 18.6285 27.2754 18.9442C27.2057 19.2068 27.0662 19.4628 26.9068 19.6822C26.7408 19.9082 26.5084 20.0844 26.3058 20.2872C26.2826 20.3104 26.2693 20.3437 26.2527 20.3736C26.246 20.3836 26.246 20.3935 26.2394 20.4035C26.1099 20.5863 25.9837 20.7758 25.8443 20.9487C25.7679 21.0451 25.6417 21.1016 25.5753 21.2046C25.5354 21.2678 25.5686 21.3775 25.5686 21.4572C25.4657 21.5038 25.3528 21.557 25.2399 21.6035C25.1835 21.6268 25.127 21.65 25.0706 21.6733C25.0373 21.6866 24.9942 21.6999 24.9776 21.7265C24.8647 21.8927 24.7584 22.0689 24.6422 22.2351C24.6156 22.2716 24.5691 22.2916 24.5094 22.3348C24.5094 22.3514 24.5127 22.4046 24.5193 22.4678C24.4064 22.491 24.2603 22.4578 24.1806 22.5907C24.1607 22.6273 24.1142 22.6539 24.1109 22.6905C24.081 23.0628 23.8552 23.2256 23.5032 23.2655V23.3918C23.4335 23.4317 23.3737 23.4683 23.314 23.5015C23.1081 23.6146 23.0251 23.8074 22.9553 24.0168C22.9454 24.0434 22.8956 24.0866 22.8756 24.0799C22.7395 24.0367 22.7328 24.0899 22.776 24.1963C22.786 24.2229 22.786 24.2694 22.7727 24.2893C22.6532 24.4423 22.7196 24.6018 22.7461 24.7614C22.6598 24.8145 22.5701 24.8677 22.4805 24.9242C22.2646 25.0572 22.0986 25.0506 21.8961 24.9109C21.8463 24.8744 21.7798 24.8644 21.7201 24.8411C21.7101 24.901 21.7001 24.9575 21.6869 25.0173C21.6669 25.1137 21.647 25.2134 21.6271 25.3132C21.3316 25.3065 21.1257 25.496 21.0991 25.7985C21.0991 25.8284 21.0991 25.8716 21.0825 25.8915C20.9796 26.0079 20.9696 26.1342 21.0759 26.2971C20.8634 26.1442 20.6342 25.7553 20.6376 25.4494C20.6376 25.1669 20.6542 24.8943 20.7339 24.6151C20.7969 24.3924 20.7737 24.1464 20.7969 23.9104C20.8102 23.7641 21.0892 23.4816 21.2286 23.4317C21.4179 23.3653 21.5906 23.2655 21.6802 23.0661C21.7699 22.86 21.8562 22.6506 21.9558 22.4511C21.9957 22.3714 22.0455 22.2816 22.1152 22.2417C22.2812 22.1486 22.3775 22.0024 22.4871 21.8594C22.5237 21.8096 22.61 21.7963 22.6897 21.7564C22.8026 21.6833 22.9221 21.5736 23.0649 21.5171C23.3405 21.4107 23.5232 21.1913 23.7423 21.0218C23.8785 20.9154 24.0378 20.8423 24.1673 20.7326C24.2869 20.6329 24.3931 20.5132 24.4894 20.3902C24.6356 20.2041 24.7418 19.9847 24.9942 19.9115C25.0307 19.9016 25.0739 19.865 25.0872 19.8318C25.1702 19.6223 25.3196 19.4761 25.5022 19.3597C25.5122 19.3531 25.5122 19.3332 25.5188 19.3032C25.4856 19.3132 25.4624 19.3165 25.4358 19.3232C25.4591 19.2368 25.469 19.1503 25.6018 19.1902C25.6716 19.2102 26.0169 18.7381 25.9771 18.675C25.9405 18.6218 25.8675 18.5919 25.7911 18.542C25.8775 18.3492 25.9804 18.1398 26.0601 17.9204C26.1365 17.7077 26.1896 17.4816 26.266 17.2224C26.08 17.2789 25.9306 17.3221 25.7845 17.372C25.2598 17.5548 24.7385 17.7409 24.2172 17.9337C24.0677 17.9869 23.9316 18.0733 23.7855 18.1332C23.3372 18.3127 22.8856 18.4789 22.4406 18.665C22.2447 18.7481 22.0621 18.8645 21.8695 18.9609C21.7964 18.9974 21.7134 19.0074 21.6371 19.0373C21.5872 19.0539 21.5374 19.0739 21.4976 19.1071C21.3747 19.2035 21.2452 19.2999 21.1323 19.4096C21.0493 19.4894 21.0028 19.6091 20.9165 19.6789C20.7505 19.8151 20.5545 19.9215 20.3885 20.0578C20.259 20.1608 20.1527 20.2938 20.0365 20.4135C20.0166 20.4334 19.9934 20.4534 19.9701 20.47C19.8639 20.5464 19.7974 20.6528 19.8207 20.7791C19.8439 20.9221 19.7808 20.9553 19.6679 20.942C19.555 20.9287 19.4355 20.9187 19.3292 20.8755C19.1931 20.819 18.9905 20.8157 18.9939 20.8955C19.0005 21.0151 19.0437 21.1514 19.1134 21.2478C19.1566 21.3077 19.2794 21.311 19.3624 21.3376C19.1366 21.4007 19.1366 21.4041 18.9374 21.3575C18.7913 21.3209 18.6452 21.2777 18.5323 21.2478C18.5456 21.168 18.5489 21.1049 18.5721 21.0484C18.602 20.9719 18.6419 20.9021 18.6817 20.819C18.4758 20.7625 18.3962 20.5897 18.3663 20.3769C18.3663 20.3603 18.3397 20.347 18.3264 20.3304C18.2633 20.2506 18.2036 20.1708 18.1139 20.0545C18.011 20.0545 17.991 19.9647 18.0342 19.8251C18.0442 19.7919 18.0242 19.7387 18.001 19.7055C17.8615 19.496 17.7154 19.2899 17.5726 19.0805C17.556 19.0539 17.5494 19.024 17.5394 18.9941C17.5129 18.901 17.4597 18.8744 17.3734 18.9276H17.3767C17.3004 18.6983 17.2373 18.4622 17.1476 18.2362C17.0878 18.0833 16.955 17.9902 16.8056 17.9238C16.5101 17.7875 16.2112 17.6545 15.9157 17.5215C15.8924 17.5116 15.8692 17.5049 15.8526 17.4983C15.7961 17.588 15.7463 17.6711 15.6965 17.7509C15.6434 17.8406 15.5836 17.9271 15.7198 18.0102C15.5338 18.0135 15.5205 18.1764 15.4674 18.2761C15.4109 18.3825 15.4043 18.5154 15.3844 18.6351C15.3113 19.0506 15.2449 19.4661 15.1752 19.885C15.1719 19.9082 15.1851 19.9348 15.1984 19.998C15.3379 19.7886 15.3113 19.5027 15.577 19.4296C15.4773 19.9315 15.4143 20.4434 15.4574 20.9752C15.65 20.6861 15.5537 20.3204 15.7696 20.0113C15.7364 20.3038 15.7098 20.5498 15.6799 20.7957C15.66 20.9553 15.6467 21.1115 15.6201 21.2711C15.6069 21.3608 15.5637 21.4473 15.557 21.537C15.5371 21.8362 15.6367 22.1187 15.7198 22.3979C15.7297 22.4279 15.753 22.4611 15.7496 22.4877C15.6965 22.7835 15.8559 22.9431 16.1016 23.0461C16.0717 23.1492 16.1813 23.3054 16.344 23.352C16.4403 23.3785 16.4835 23.4184 16.5267 23.5115C16.5632 23.5946 16.6827 23.6378 16.7558 23.7076C16.8786 23.8206 16.9882 23.947 17.1144 24.0533C17.1808 24.1132 17.2671 24.1497 17.3468 24.1929C17.3834 24.2129 17.4398 24.2162 17.4564 24.2461C17.566 24.4489 17.7818 24.5121 17.9512 24.635C18.0508 24.7049 18.1239 24.8112 18.2235 24.8844C18.3131 24.9508 18.4194 24.9974 18.519 25.0539C18.5323 25.0439 18.5456 25.0306 18.5589 25.0206C18.5223 24.9309 18.4825 24.8378 18.4526 24.7647C18.5423 24.8046 18.6485 24.8511 18.7382 24.8943C18.8644 25.0971 19.0304 25.2932 19.1101 25.5226C19.1566 25.6589 19.2595 25.712 19.3259 25.8118C19.3425 25.835 19.389 25.8384 19.4189 25.8517C19.4255 25.8184 19.4488 25.7852 19.4421 25.7553C19.4289 25.7021 19.4023 25.6489 19.379 25.599C19.3691 25.5791 19.3458 25.5691 19.3392 25.5492C19.2794 25.3597 19.223 25.1669 19.1599 24.9741C19.1167 24.8411 19.0736 24.7082 19.0171 24.5819C18.9806 24.4954 18.9175 24.4223 18.8577 24.3292C18.9441 24.3292 19.057 24.4921 19.0835 24.286C19.2197 24.3591 19.2728 24.4888 19.2628 24.6184C19.2462 24.8212 19.3558 24.9807 19.4255 25.1436C19.5982 25.5425 19.8008 25.9281 20.0066 26.3104C20.093 26.4733 20.2092 26.6228 20.3354 26.7591C20.4184 26.8489 20.5446 26.8921 20.6741 26.8289C20.8434 27.045 21.0095 27.271 21.1921 27.4804C21.3083 27.6134 21.4079 27.753 21.6038 27.8129C21.7433 27.8561 21.8396 28.0023 21.9027 28.1685C21.9625 28.3248 22.1152 28.4511 22.248 28.5674C22.3975 28.6971 22.5668 28.8101 22.7329 28.9198C22.8192 28.9763 22.9155 29.0195 23.0085 29.0594C23.2343 29.1491 23.4567 29.2389 23.6892 29.3087C23.7589 29.332 23.8486 29.2921 23.915 29.2854C23.9781 29.3153 24.0378 29.3386 24.0976 29.3685C24.1209 29.3785 24.1574 29.3885 24.1607 29.4051C24.2039 29.6245 24.3965 29.7242 24.5326 29.8638C24.6223 29.9602 24.7319 30.0433 24.8481 30.1065C25.0008 30.1896 25.1038 30.3126 25.2167 30.4355C25.2698 30.4921 25.3395 30.5319 25.4093 30.5652C25.572 30.645 25.738 30.7247 25.9107 30.7879C25.9704 30.8112 26.0601 30.8045 26.1165 30.7746C26.2361 30.7148 26.4752 30.8311 26.4984 30.9641C26.5084 31.0173 26.5582 31.0638 26.5914 31.1137C26.6678 31.0339 26.7209 30.9774 26.7707 30.9242C26.7807 30.9342 26.7939 30.9441 26.8039 30.9541C26.7773 30.9807 26.7541 31.0106 26.7342 31.0306C26.7807 31.127 26.8039 31.2366 26.8703 31.2898C26.9899 31.3896 27.136 31.4494 27.3053 31.4427C27.5079 31.4361 27.7071 31.4361 27.9097 31.4261C27.9429 31.4261 27.9694 31.3763 27.9827 31.3663C28.2185 31.3862 28.4509 31.3862 28.6767 31.4328C28.8494 31.466 28.9291 31.3962 28.9922 31.2732C29.0719 31.2898 29.1449 31.3031 29.218 31.3164C29.2844 31.0904 29.3608 31.0505 29.4869 31.1835C29.6995 31.0405 29.9153 31.0771 30.1511 31.1502C30.2673 31.1868 30.4167 31.1369 30.5429 31.1037C30.7156 31.0571 30.865 30.9275 31.0609 30.9607C31.0941 30.9674 31.134 30.9541 31.1705 30.9408C31.3764 30.8544 31.5756 30.7646 31.7815 30.6849C31.828 30.6649 31.8944 30.6616 31.9409 30.6749C32.1301 30.7281 32.3294 30.6051 32.3493 30.4123C32.3648 30.2638 32.2962 30.1851 32.1434 30.1763C32.1235 30.1763 32.1036 30.1763 32.0803 30.1729C32.2065 30.0267 32.2862 30.0034 32.6282 30.0067C32.6581 29.784 32.854 29.9004 32.9769 29.8372C33.0134 29.8937 33.0466 29.9502 33.113 30.0533C33.1462 29.9934 33.1695 29.9569 33.1994 29.9037C33.3588 30.0599 33.5248 30.0001 33.6576 29.8771C33.7008 29.8372 33.6643 29.7076 33.6543 29.6212C33.7572 29.3685 34.0196 29.3619 34.2321 29.2754C34.3948 29.2123 34.5708 29.1824 34.7368 29.1292C34.7634 29.1192 34.7899 29.066 34.7899 29.0328C34.7899 28.9696 34.7667 28.9098 34.7468 28.8034H35.1187C35.0988 28.7569 35.0822 28.717 35.0589 28.6605C35.1519 28.6073 35.2382 28.5408 35.3378 28.4976C35.4109 28.4644 35.5271 28.5242 35.5636 28.3979C35.5869 28.3148 35.6068 28.2317 35.6334 28.1286C35.7031 28.1419 35.7828 28.1552 35.8559 28.1652C35.9953 27.896 36.3705 27.8162 36.3938 27.4705C36.5698 27.4937 36.6993 27.3807 36.7557 27.1946C36.7723 27.1447 36.8653 27.1115 36.9284 27.0915C37.0048 27.0649 37.0413 27.0383 37.0645 26.9519C37.0944 26.819 37.1907 26.7325 37.3667 26.7658C37.3534 26.6926 37.3435 26.6262 37.3402 26.6062C37.4796 26.4068 37.6025 26.2273 37.7287 26.0511C37.7453 26.0278 37.7818 26.0179 37.8017 25.9979C37.8648 25.9348 37.9312 25.8683 37.991 25.7985C38.1006 25.6688 38.2068 25.5359 38.3131 25.4029C38.3563 25.3497 38.3961 25.2899 38.436 25.2334C38.5821 25.024 38.7248 24.8079 38.8776 24.6018C38.9407 24.5154 39.0171 24.4356 39.1001 24.3625C39.296 24.1929 39.4753 24.0134 39.5351 23.7475C39.5417 23.7143 39.565 23.6777 39.5915 23.6511C40.0033 23.2722 40.1593 22.7403 40.3885 22.2583C40.4947 22.0356 40.5113 21.7697 40.5645 21.5237C40.5943 21.3841 40.6143 21.2412 40.6408 21.1016C40.6508 21.0583 40.684 21.0185 40.6906 20.9786C40.6973 20.9021 40.7072 20.8223 40.684 20.7525C40.6774 20.7293 40.5777 20.7326 40.518 20.7293C40.4814 20.7293 40.4416 20.7293 40.4416 20.7293C40.4648 20.2373 40.5246 19.762 40.5047 19.2866C40.4814 18.7448 40.4084 18.203 40.3187 17.6678C40.249 17.249 40.1162 16.8401 40.0199 16.4246C39.9369 16.0789 39.8837 15.7265 39.7808 15.3908C39.6679 15.0252 39.5118 14.6761 39.369 14.3205C39.2462 14.0146 39.12 13.7055 38.9839 13.4063C38.9108 13.2501 38.8112 13.1039 38.7315 12.9509C38.5721 12.6451 38.4293 12.3293 38.26 12.0335C38.064 11.6911 37.8382 11.3654 37.629 11.0296C37.5494 10.9 37.4796 10.7637 37.39 10.6407C37.3368 10.5676 37.2472 10.521 37.1941 10.4479C37.121 10.3548 37.0778 10.2418 37.0048 10.1454C36.8554 9.94931 36.7059 9.75319 36.5399 9.57036C36.1979 9.1881 35.8558 8.8025 35.4906 8.44018C35.1386 8.09115 34.78 7.74877 34.345 7.49615C34.0096 7.30335 33.6908 7.08064 33.3554 6.89116C33.0267 6.70834 32.688 6.54879 32.3526 6.37926C31.8877 6.14657 31.4262 5.90392 30.958 5.68453C30.772 5.5981 30.5595 5.56486 30.3636 5.49173C30.1643 5.4186 29.9718 5.32553 29.7725 5.24243C29.394 5.08952 29.0154 4.93994 28.6369 4.78703C28.5572 4.75711 28.4675 4.74382 28.4011 4.69728C28.0226 4.42138 27.5643 4.36155 27.136 4.22859C26.9002 4.15546 26.6412 4.15546 26.3955 4.10559C25.9638 4.01917 25.5388 3.9128 25.1071 3.83302C24.8713 3.78981 24.6289 3.78648 24.3898 3.75989C24.1275 3.72997 23.8685 3.68011 23.6062 3.66017C23.3604 3.64355 23.1081 3.66017 22.8624 3.6502C22.5137 3.63358 22.1684 3.59701 21.823 3.58372C21.481 3.57042 21.139 3.57042 20.7969 3.57707C20.2756 3.59036 19.751 3.60698 19.2296 3.6369C18.9706 3.6502 18.7149 3.69673 18.4592 3.73662C17.815 3.83635 17.1675 3.93274 16.5267 4.04909C16.2344 4.10227 15.9522 4.20199 15.6633 4.27512C15.4508 4.32831 15.2349 4.38149 15.0158 4.42471C14.5044 4.52443 14.0063 4.67069 13.5248 4.87345C13.1596 5.02636 12.7744 5.12941 12.4025 5.2657C12.1435 5.36209 11.8911 5.47844 11.6354 5.58481C11.6122 5.59478 11.5889 5.60807 11.5624 5.61805C11.2967 5.73439 11.0244 5.82081 10.7754 5.98702C10.5595 6.13328 10.2972 6.20973 10.0648 6.33272C9.86222 6.44242 9.66962 6.57205 9.47703 6.70169C9.15825 6.91111 8.83615 7.1172 8.52734 7.33659C8.3115 7.49282 8.11558 7.67897 7.90307 7.83852C7.83333 7.89171 7.73372 7.89836 7.64738 7.9316C7.60421 7.94822 7.54444 7.96816 7.52452 8.00473C7.33192 8.32384 7.02975 8.53325 6.75746 8.77591C6.51174 8.9953 6.26933 9.21469 6.02693 9.4374C5.72475 9.71662 5.41262 9.98587 5.12705 10.2817C4.91121 10.5044 4.70865 10.7504 4.5393 11.013C4.27365 11.4252 4.03457 11.854 3.80213 12.2861C3.57633 12.7083 3.36049 13.1371 3.16457 13.5759C3.02511 13.8917 2.92881 14.2241 2.80927 14.5498C2.77939 14.6263 2.7329 14.6994 2.71297 14.7792C2.63992 15.0551 2.57019 15.3343 2.5071 15.6135C2.48053 15.7265 2.47057 15.8396 2.45729 15.9559C2.41744 16.275 2.37759 16.5941 2.34107 16.9132C2.30454 17.2157 2.24145 17.5182 2.23813 17.8207C2.23813 18.0235 2.13519 18.2329 2.25473 18.439C2.28794 18.4988 2.26137 18.5952 2.26469 18.675C2.27133 18.9343 2.2979 19.1902 2.28462 19.4462C2.26469 19.7786 2.38755 20.0811 2.4274 20.4002C2.43736 20.47 2.41412 20.5431 2.40748 20.593C2.50378 20.7692 2.57019 20.9487 2.68973 21.0816C2.80927 21.2146 2.9587 21.3243 3.04503 21.4838L2.97862 21.547C2.84912 21.4074 2.72294 21.2678 2.56023 21.0949C2.57351 21.2412 2.55691 21.3642 2.59343 21.4639C2.69637 21.7398 2.68641 22.0423 2.83251 22.3115C2.97862 22.5774 3.07492 22.87 3.18782 23.1558C3.27083 23.3619 3.3306 23.5747 3.4269 23.7708C3.48667 23.8938 3.59293 23.9968 3.71911 24.0965V23.8539C3.71911 23.8539 3.74236 23.8539 3.75564 23.8539C3.83534 24.1364 3.90175 24.4256 3.99804 24.7015C4.04785 24.8445 4.0877 24.9874 4.21056 25.1104C4.32014 25.2234 4.35667 25.4096 4.41976 25.5658C4.5227 25.8217 4.64888 26.0577 4.89461 26.1974C4.91121 26.1907 4.92449 26.1807 4.94109 26.1741C4.89793 26.071 4.8614 25.9647 4.80827 25.865C4.75846 25.7752 4.67213 25.7054 4.62896 25.6123C4.57583 25.5026 4.55258 25.383 4.53598 25.2533C4.62564 25.4129 4.71197 25.5724 4.80495 25.7287C4.83151 25.7719 4.8614 25.8118 4.88796 25.855C5.01083 26.0312 5.11709 26.224 5.26319 26.3769C5.38937 26.5098 5.4259 26.6461 5.46907 26.819C5.5222 27.045 5.6185 27.2777 5.82105 27.4439C5.91403 27.5203 5.97712 27.64 6.06678 27.7597C6.04353 28.0223 6.07342 28.0688 6.33907 28.1552C6.44865 28.1918 6.5549 28.225 6.60139 28.358C6.618 28.4112 6.69105 28.4411 6.7309 28.4876C6.77738 28.5408 6.85044 28.6007 6.85376 28.6638C6.8604 28.8068 6.95338 28.8599 7.05299 28.9231C7.09616 28.9497 7.12937 28.9962 7.16589 29.0328C7.11941 29.0727 7.07292 29.1159 7.02311 29.1558C7.00983 29.1658 6.99654 29.1724 6.98326 29.179C6.97994 29.189 6.9733 29.199 6.9733 29.209C6.9899 29.2821 7.00983 29.3552 7.02975 29.4284C6.9567 29.4217 6.88364 29.4184 6.81059 29.4018C6.72758 29.3851 6.64456 29.3419 6.56155 29.3353C6.5217 29.332 6.46525 29.3718 6.442 29.4084C6.4254 29.435 6.442 29.4882 6.44865 29.548C6.39552 29.4682 6.35567 29.4051 6.3125 29.3419C6.25937 29.2655 6.1996 29.2389 6.09666 29.2688C6.00036 29.2987 5.89078 29.2821 5.78785 29.2754C5.68823 29.2688 5.58861 29.2489 5.50227 29.2356C5.52552 29.1624 5.59525 29.066 5.56869 29.0128C5.53216 28.9397 5.42922 28.8932 5.34621 28.8566C5.22334 28.8001 5.09052 28.7635 4.96434 28.717C4.95106 28.7303 4.93777 28.7436 4.92449 28.7569C5.33292 29.2189 5.73804 29.681 6.14647 30.143L6.11326 30.1696C6.07342 30.163 6.03357 30.1563 5.99372 30.1464C5.98708 30.2328 5.98044 30.3059 5.97048 30.4222C6.36895 30.768 6.78735 31.1336 7.19578 31.4893C7.27215 31.4394 7.33192 31.4161 7.36845 31.3729C7.4083 31.3297 7.44482 31.2699 7.45147 31.2134C7.45147 31.1868 7.38837 31.1369 7.34521 31.127C7.19578 31.0871 7.04635 31.0605 6.89693 31.0206C6.83383 31.004 6.77738 30.974 6.7309 30.9142C6.91021 30.9574 7.09284 31.0006 7.27215 31.0439C7.37177 31.0671 7.47139 31.097 7.57433 31.1137C7.60421 31.117 7.6507 31.0937 7.6673 31.0671C7.68059 31.0439 7.67062 30.9973 7.65402 30.9674C7.61749 30.8976 7.57101 30.8344 7.54776 30.748C7.96284 31.0073 8.37791 31.2666 8.79299 31.5258C9.09184 31.712 9.38737 31.9015 9.67959 32.0943C9.76592 32.1508 9.83897 32.2704 9.92863 32.2804C10.1146 32.307 10.2474 32.4067 10.3935 32.4998C10.6359 32.656 10.8816 32.8156 11.1274 32.9685C11.5192 33.2145 11.9143 33.4538 12.3095 33.6965C12.5685 33.8527 12.8242 34.0122 13.0898 34.1552C13.4352 34.3413 13.7872 34.5175 14.1425 34.6904C14.5044 34.8665 14.8697 35.0361 15.2349 35.1989C15.6467 35.3851 16.0717 35.5513 16.4802 35.7474C16.8488 35.9236 17.2074 36.1297 17.5693 36.3225C17.6025 36.3391 17.6324 36.3557 17.7055 36.3923C17.6789 36.3191 17.6623 36.2859 17.6557 36.2493C17.6457 36.1862 17.6391 36.123 17.6324 36.0599C17.6955 36.0831 17.7619 36.1064 17.825 36.133C17.9014 36.1662 17.9778 36.2028 18.0508 36.2427C18.1737 36.3092 18.2202 36.236 18.2401 36.1496C18.6518 36.133 18.6386 36.4986 18.7813 36.7247C18.8312 36.8011 18.9075 36.861 18.9507 36.9407C18.9839 37.0006 19.0105 37.0837 18.9972 37.1435C18.9374 37.3928 18.871 37.6455 18.7913 37.8881C18.7448 38.0244 18.6784 38.1574 18.6053 38.2837C18.5257 38.4133 18.4227 38.5297 18.3364 38.656C18.2633 38.7623 18.2202 38.8787 18.0741 38.9352C17.9944 38.9684 17.9512 39.0947 17.8615 39.2211C18.001 39.2211 18.0907 39.2244 18.177 39.2211C18.4426 39.2044 18.7083 39.1513 18.9739 39.1679C19.4886 39.2011 20.0033 39.2809 20.518 39.3274C20.8102 39.354 21.1091 39.3507 21.4013 39.374C21.5408 39.3839 21.6736 39.4338 21.8097 39.4604C22.2016 39.5402 22.5934 39.6133 22.9852 39.6964C23.2708 39.7562 23.553 39.826 23.8419 39.8825C24.1507 39.9424 24.4629 39.9823 24.7717 40.0454C24.961 40.0853 25.1436 40.1518 25.3296 40.205C25.3594 40.215 25.3893 40.2216 25.4192 40.2249C25.9505 40.3213 26.4818 40.4609 27.0197 40.4975C27.3219 40.5208 27.5776 40.6238 27.8432 40.7202C27.913 40.7468 27.9761 40.8166 28.0192 40.8798C28.089 40.9861 28.1421 41.0792 28.2915 41.1158C28.421 41.149 28.5306 41.262 28.6468 41.3418C28.7099 41.3884 28.7664 41.4449 28.8295 41.4914C28.8926 41.5379 28.959 41.5745 29.0254 41.6144C29.0055 41.6443 28.9889 41.6742 28.9689 41.7041C28.8859 41.6942 28.8029 41.6875 28.7199 41.6742C28.4542 41.631 28.4244 41.6476 28.3247 41.8936C28.2749 42.0166 28.2118 42.1064 28.0724 42.0199C27.9229 42.1529 27.9063 42.2991 27.9761 42.4786C27.9462 42.4587 27.9163 42.4388 27.8599 42.4055C27.8565 42.4587 27.8433 42.4986 27.8499 42.5318C27.9063 42.7712 27.7005 43.2133 27.468 43.2199C27.219 43.2299 27.1194 43.3961 26.96 43.5058C26.9102 43.539 26.8271 43.5291 26.7541 43.539C26.7939 43.5856 26.8305 43.6288 26.8637 43.662C26.7176 43.7551 26.5947 43.8482 26.4552 43.918C26.3955 43.9479 26.2959 43.9446 26.2394 43.9113C26.08 43.8182 25.9273 43.8581 25.7745 43.9047C25.7446 43.9113 25.738 43.9944 25.7147 44.0609C25.5388 44.0476 25.3229 44.0343 25.1071 44.021C25.0872 44.021 25.0639 44.031 25.0506 44.041C24.9377 44.134 24.8348 44.0775 24.7617 43.9944C24.6654 43.8847 24.5891 43.8282 24.4662 43.9645C24.423 44.011 24.35 44.0277 24.3168 44.0476C24.0478 44.0144 23.7954 43.9811 23.5597 43.9512C23.4468 44.1872 23.7091 44.1905 23.739 44.3302C23.6361 44.39 23.5232 44.1507 23.4302 44.3867C23.4567 44.3966 23.4999 44.4099 23.5431 44.4266C23.3937 44.4698 23.2774 44.503 23.1512 44.5396C23.1512 44.5761 23.1546 44.616 23.1579 44.6592C23.1413 44.6659 23.128 44.6725 23.1247 44.6692C22.9919 44.5994 22.8856 44.4664 22.7063 44.503C22.6864 44.5063 22.6598 44.4698 22.6366 44.4498C22.6133 44.4332 22.5901 44.4 22.5635 44.4C22.4041 44.39 22.2414 44.39 22.0787 44.38C22.0289 44.38 21.9791 44.3567 21.9293 44.3468C21.8463 44.3268 21.7599 44.3102 21.6769 44.2803C21.6271 44.2637 21.5872 44.2238 21.5408 44.1939C21.4777 44.1507 21.4013 44.0609 21.3515 44.0742C21.2054 44.1074 21.0327 44.0775 20.9165 44.2138C20.8899 44.2437 20.8401 44.2637 20.8003 44.267C20.5711 44.2969 20.342 44.3235 20.1129 44.3534L20.1029 44.4133C20.1527 44.4531 20.2026 44.4897 20.2723 44.5429C20.3055 44.4964 20.3354 44.4531 20.3619 44.4099C20.3619 44.4266 20.3686 44.4465 20.3719 44.4631C20.5379 44.4864 20.7073 44.5063 20.8733 44.5329C20.9563 44.5495 21.0427 44.5728 21.119 44.6094C21.2452 44.6725 21.3614 44.636 21.4113 44.4631C21.4544 44.5362 21.481 44.5795 21.5142 44.6326C21.5872 44.6493 21.6769 44.6759 21.7699 44.6958C22.0289 44.7556 22.2846 44.8254 22.5469 44.872C22.6764 44.8952 22.8125 44.8653 22.9454 44.872C22.9919 44.872 23.0417 44.8919 23.0815 44.9152C23.1346 44.9484 23.1811 44.9916 23.2309 45.0315C23.2309 45.0149 23.2376 44.9983 23.2409 44.9783C23.3438 44.985 23.4501 44.995 23.553 44.995C23.7855 44.995 23.9681 45.1678 24.2205 45.1446C24.4363 45.1279 24.6621 45.2509 24.8846 45.3074C25.0174 45.3407 25.1502 45.3639 25.2831 45.3972C25.3495 45.4138 25.4126 45.4371 25.479 45.4537C25.5686 45.4803 25.6649 45.4969 25.7513 45.5335C25.821 45.5634 25.8775 45.6199 25.9472 45.6565C25.997 45.683 26.0501 45.703 26.1033 45.7163C26.4918 45.8027 26.8836 45.8825 27.2721 45.9722C27.375 45.9955 27.468 46.0686 27.571 46.1085C27.6208 46.1285 27.6772 46.1218 27.7304 46.1252C27.747 46.1252 27.7702 46.1185 27.7735 46.1252C27.8366 46.2448 27.9595 46.1983 28.0524 46.2315C28.2882 46.3146 28.5107 46.4409 28.7398 46.5373C28.8826 46.5972 29.032 46.6437 29.1781 46.6902C29.3641 46.7534 29.5534 46.8099 29.7393 46.8697C29.7526 46.8731 29.7692 46.883 29.7792 46.893C29.9087 47.006 30.0382 47.1191 30.171 47.2287C30.3735 47.3949 30.3437 47.6974 30.1079 47.8271C30.0813 47.8404 30.0514 47.867 30.0448 47.8936C30.0182 47.98 29.9618 47.9767 29.8854 47.9966C29.7592 48.0332 29.6364 48.1229 29.5368 48.216C29.3774 48.3656 29.2445 48.5451 29.0852 48.698C28.9955 48.7844 28.8627 48.8243 28.856 48.9772C28.856 49.037 28.8394 49.1002 28.8361 49.1401C28.7664 49.1999 28.7132 49.2564 28.6468 49.2996C28.5738 49.3495 28.4974 49.406 28.4177 49.4226C28.2152 49.4692 28.2118 49.4625 28.2517 49.6686C28.0458 49.7185 27.8731 49.6653 27.6872 49.5689C27.4846 49.4658 27.2522 49.4193 27.0197 49.5024C26.9135 49.539 26.7939 49.5556 26.6976 49.6154C26.5416 49.7085 26.3988 49.8315 26.2095 49.6886C26.1996 49.6819 26.1697 49.6819 26.163 49.6886C26.0335 49.8714 25.8144 49.7218 25.6616 49.8248C25.6317 49.8448 25.5321 49.7816 25.4757 49.7417C25.4093 49.6919 25.3661 49.6487 25.2964 49.7417C25.2665 49.7783 25.1835 49.8115 25.1502 49.7949C24.941 49.6952 24.785 49.8514 24.6057 49.8913C24.5758 49.898 24.5393 49.9179 24.5193 49.9079C24.2603 49.775 24.008 49.9079 23.7556 49.9279C23.6394 49.9379 23.5597 49.9212 23.4866 49.8581C23.3339 49.7251 23.1679 49.6487 22.9653 49.6919C22.8424 49.7185 22.7162 49.755 22.6067 49.8149C22.4705 49.888 22.3543 49.8481 22.2514 49.7717C22.1086 49.6686 21.9824 49.6021 21.7865 49.6487C21.5507 49.7019 21.305 49.7019 21.0626 49.7218C21.0559 49.7218 21.0493 49.7218 21.046 49.7218C20.7505 49.9445 20.5114 49.6719 20.2457 49.6287C20.0863 49.6021 19.9303 49.5157 19.7742 49.5157C19.5418 49.5157 19.3292 49.519 19.1001 49.4326C18.9241 49.3661 18.705 49.3927 18.5091 49.416C18.353 49.4359 18.2168 49.4093 18.0774 49.3528C18.0442 49.3395 17.9944 49.3362 17.9612 49.3528C17.7486 49.4559 17.5262 49.4492 17.3004 49.4525C17.1908 49.4525 17.0779 49.4958 16.9716 49.5356C16.9484 49.5423 16.9318 49.6088 16.9351 49.6453C16.9351 49.6653 16.9882 49.6886 17.0181 49.6919C17.1443 49.7151 17.2705 49.7284 17.3933 49.775C17.2173 49.775 17.0447 49.775 16.8687 49.775C16.7724 49.775 16.6761 49.7683 16.5798 49.7717C16.5433 49.7717 16.5001 49.7949 16.4702 49.7816C16.344 49.7284 16.2876 49.7883 16.2145 49.888C16.178 49.9379 16.0585 49.9412 15.9754 49.9445C15.9456 49.9445 15.8991 49.8747 15.8924 49.8348C15.8625 49.6819 15.6733 49.5789 15.5305 49.6553C15.4508 49.6985 15.3943 49.7218 15.298 49.6819C15.2383 49.6553 15.142 49.6985 15.0689 49.7284C14.9759 49.765 14.8929 49.785 14.8298 49.6952C14.7468 49.5755 14.6671 49.4625 14.4911 49.4958C14.448 49.5024 14.4015 49.4758 14.3384 49.4625C14.3118 49.5988 14.2886 49.7318 14.2687 49.8415C14.1557 49.7883 14.0595 49.7451 13.9665 49.7019C14.0362 49.6088 14.1259 49.4891 14.2188 49.3595C14.1093 49.18 14.1259 48.9839 14.1823 48.7844C14.1989 48.7246 14.2122 48.6581 14.2056 48.5983C14.1856 48.4154 14.252 48.3057 14.4114 48.2326C14.5277 48.1794 14.6406 48.1096 14.7402 48.0298C14.8298 47.96 14.9062 47.9334 15.0158 47.9767C15.1187 48.0165 15.1951 47.9833 15.298 47.9168C15.5371 47.7639 15.6865 47.488 15.992 47.4382C16.0352 47.4315 16.0983 47.4215 16.1215 47.4448C16.3042 47.6376 16.5167 47.6276 16.7491 47.5711C16.8056 47.5578 16.882 47.5744 16.9318 47.6077C17.0513 47.6875 17.1576 47.6609 17.2439 47.5545C17.2937 47.4947 17.3834 47.4515 17.4631 47.4348C17.6291 47.3983 17.7984 47.375 17.9645 47.3684C18.1073 47.3617 18.2534 47.3717 18.3962 47.3949C18.5522 47.4215 18.7083 47.498 18.8212 47.3118C18.8345 47.2886 18.8776 47.2686 18.9042 47.272C19.0204 47.2919 19.1366 47.3118 19.2462 47.3517C19.4255 47.4182 19.5949 47.4747 19.7974 47.4282C19.8838 47.4082 19.99 47.478 20.0897 47.5013C20.1561 47.5146 20.2225 47.5146 20.2889 47.5279C20.4217 47.5512 20.5545 47.5877 20.6907 47.6044C20.7637 47.611 20.8401 47.5844 20.9231 47.5744C20.9829 47.5911 21.0626 47.6143 21.139 47.6276C21.2618 47.6509 21.3847 47.6775 21.5109 47.6941C21.8861 47.7473 22.2613 47.8038 22.6366 47.8437C22.8823 47.8703 23.1313 47.8736 23.3804 47.8936C23.4601 47.9002 23.5364 47.9401 23.6128 47.9368C23.6593 47.9368 23.6991 47.8769 23.749 47.8537C23.7988 47.8304 23.8519 47.8171 23.9183 47.7938C23.8984 47.7539 23.8785 47.7141 23.8652 47.6875C24.1341 47.7473 24.4131 47.8105 24.692 47.8636C24.7817 47.8803 24.878 47.867 24.9709 47.8636C24.9875 47.8636 25.0141 47.8337 25.0108 47.8238C25.0075 47.7972 24.9942 47.7506 24.9743 47.7473C24.8614 47.7141 24.7451 47.6908 24.6256 47.6675C24.5691 47.6575 24.5094 47.6708 24.4562 47.6542C24.091 47.5179 23.7357 47.3584 23.3671 47.242C22.9719 47.119 22.5668 47.0426 22.165 46.9462C22.1451 46.9429 22.1252 46.9462 22.0687 46.9395C22.1086 46.9861 22.1252 47.016 22.1517 47.0293C22.3609 47.129 22.5701 47.2387 22.786 47.3185C22.9288 47.3717 23.0882 47.3817 23.2376 47.4049C23.2808 47.4116 23.3472 47.3916 23.3704 47.4149C23.4866 47.5346 23.6261 47.5412 23.7755 47.5146C23.7921 47.5146 23.812 47.5279 23.8619 47.5479C23.6792 47.601 23.5597 47.6841 23.3804 47.5744C23.2276 47.4814 23.0317 47.4714 22.8524 47.4215C22.7329 47.3883 22.6133 47.3517 22.4938 47.3185C22.2049 47.2387 21.9193 47.1589 21.6304 47.0792C21.5806 47.0659 21.5142 47.0426 21.4743 47.0625C21.2519 47.1722 21.0427 47.0293 20.8268 47.026C20.5147 47.0193 20.1992 46.9163 19.8871 46.9196C19.5451 46.9196 19.2263 46.7966 18.8909 46.79C18.7647 46.79 18.6386 46.8432 18.5124 46.8697C18.4792 46.8764 18.446 46.8963 18.4161 46.893C18.167 46.8598 17.918 46.8099 17.6656 46.7933C17.5527 46.7866 17.4763 46.7401 17.3933 46.6836C17.576 46.7168 17.7553 46.7567 17.9379 46.7833C18.0076 46.7933 18.0807 46.76 18.1537 46.7501C18.1504 46.7368 18.1471 46.7235 18.1438 46.7102C18.0774 46.7069 18.0076 46.7135 17.9446 46.6936C17.7818 46.6404 17.6225 46.5606 17.4564 46.5141C17.317 46.4742 17.1709 46.4642 17.0247 46.4509C17.0015 46.4509 16.9749 46.4941 16.955 46.5141C17.1177 46.5772 17.2605 46.6337 17.4 46.6902C17.2273 46.657 17.0546 46.6171 16.882 46.5938C16.8255 46.5872 16.7591 46.6304 16.6993 46.6537C16.7491 46.7069 16.7923 46.77 16.8488 46.8132C16.8786 46.8365 16.9284 46.8365 16.9949 46.8531C16.6993 46.9661 16.447 46.8897 16.1913 46.8299C16.0917 46.8066 15.9489 46.9163 15.9024 46.7368C16.0352 46.667 16.0551 46.5606 15.9688 46.4343C15.9356 46.3878 15.9123 46.3346 15.8957 46.2781C15.816 46.0254 15.5438 45.9257 15.3279 46.072C15.225 46.1418 15.1386 46.1384 15.0789 46.0221C15.0257 45.9191 14.9593 45.8958 14.8464 45.9324C14.8099 45.9457 14.7335 45.9024 14.7103 45.8626C14.6173 45.6997 14.531 45.5335 14.4546 45.3606C14.4314 45.3108 14.4247 45.2144 14.4546 45.1844C14.5509 45.0914 14.531 44.9817 14.531 44.872C14.531 44.7556 14.5409 44.6393 14.521 44.5263C14.5111 44.4664 14.4579 44.4033 14.4048 44.37C14.3749 44.3501 14.3052 44.37 14.2587 44.3867C14.1923 44.4133 14.1259 44.4432 14.0727 44.4897C14.0196 44.5329 13.9831 44.5961 13.9333 44.6559C13.9067 44.4997 13.9864 44.4133 14.1026 44.3468C14.2886 44.2437 14.3483 44.1274 14.3019 43.9213C14.2919 43.8748 14.2421 43.8349 14.2122 43.7917C14.252 43.7451 14.3019 43.682 14.355 43.6221C14.3749 43.5989 14.4048 43.5656 14.4247 43.5689C14.6173 43.6122 14.697 43.446 14.8232 43.3629C14.8697 43.3296 14.9427 43.3163 14.9992 43.323C15.2117 43.3562 15.3678 43.2133 15.3279 43.0039C15.2648 42.6714 15.1885 42.3424 15.2316 41.9967C15.2549 41.8172 15.2051 41.6277 15.1752 41.4415C15.1719 41.4116 15.1121 41.3717 15.0789 41.3717C15.0058 41.3717 14.9328 41.3917 14.8398 41.405C14.8464 41.4748 14.8498 41.5446 14.8597 41.6443C14.7734 41.5978 14.697 41.5579 14.6206 41.5147C14.6538 41.4914 14.6837 41.4648 14.7269 41.4316C14.6904 41.3352 14.6472 41.2255 14.604 41.1158C14.624 41.1158 14.6406 41.1224 14.6605 41.1224C14.7003 41.0659 14.7369 41.0094 14.7767 40.9562C14.8066 40.9762 14.8365 40.9994 14.8431 41.0061C14.8298 41.0892 14.8199 41.169 14.8099 41.2454H15.0955C15.1121 40.9828 14.9892 40.8366 14.7667 40.7202C14.7568 40.7967 14.7535 40.8465 14.7468 40.8964L14.7634 40.8698ZM19.7045 29.3885C19.7344 29.4383 19.7476 29.4749 19.7742 29.5015C19.9004 29.6444 20.0299 29.7874 20.1594 29.9303C20.2457 30.0234 20.3188 30.1364 20.4682 30.143C20.4981 30.143 20.5247 30.1929 20.5512 30.2228C20.6874 30.3724 20.8003 30.5486 20.9597 30.6682C21.3116 30.9375 21.6835 31.1835 22.0455 31.4394C22.2215 31.5624 22.3842 31.702 22.6133 31.7353C22.7162 31.7486 22.8291 31.8084 22.9122 31.8782C23.2475 32.1774 23.5995 32.4533 24.0113 32.6494C24.2935 32.7857 24.5824 32.8654 24.8946 32.8555C24.9975 32.8521 25.0739 32.7557 25.0174 32.6726C24.9112 32.5131 24.7717 32.3735 24.6422 32.2272C24.5857 32.1641 24.516 32.1109 24.4596 32.0477C24.35 31.9247 24.2504 31.7918 24.1341 31.6721C24.0445 31.579 23.9349 31.5092 23.8486 31.4195C23.6394 31.2034 23.4302 30.984 23.2376 30.7547C23.1147 30.6084 23.0118 30.4455 22.9122 30.2826C22.8856 30.2394 22.9088 30.1696 22.9088 30.1131L22.9553 30.1065C23.5232 31.1635 24.4596 31.815 25.4491 32.4134C25.5587 32.2305 25.552 32.2006 25.3827 32.1375C25.3561 32.1275 25.3229 32.1175 25.3063 32.0943C25.1469 31.9114 24.9643 31.7419 24.8448 31.5358C24.7617 31.3896 24.6721 31.2932 24.526 31.2566C24.4396 31.2898 24.3334 31.3463 24.267 31.3164C24.1043 31.2466 23.9216 31.1934 23.8419 30.9973C23.8087 30.9109 23.7622 30.8245 23.7025 30.7547C23.5597 30.5951 23.4136 30.4422 23.2542 30.2959C23.0417 30.1031 22.7926 29.9502 22.6399 29.6943C22.62 29.6577 22.5801 29.6211 22.5403 29.6079C22.3277 29.538 22.2148 29.3552 22.0721 29.2056C22.0189 29.1525 21.9425 29.1225 21.8761 29.086C21.8662 29.0793 21.8529 29.076 21.833 29.066C21.8728 29.0428 21.906 29.0261 21.9193 29.0195C21.7167 28.83 21.5341 28.6638 21.3548 28.4976C21.2386 28.3879 21.1556 28.2483 21.0095 28.1552C20.7637 28.0023 20.5512 27.7996 20.3254 27.6101C20.0299 27.3608 19.7543 27.0915 19.4189 26.8987C19.3624 26.8655 19.2894 26.8057 19.2794 26.7492C19.2529 26.5863 19.1167 26.573 19.0071 26.5198C18.9441 26.4866 18.8876 26.44 18.8311 26.3935C18.7946 26.3602 18.7714 26.3104 18.7349 26.2805C18.6087 26.1807 18.4725 26.0976 18.353 25.9946C18.1438 25.8084 17.9445 25.609 17.7387 25.4195C17.7121 25.3929 17.6656 25.3863 17.6291 25.373C17.6291 25.4062 17.6225 25.4361 17.6191 25.4694C17.6191 25.7187 17.8881 25.9015 17.7885 26.1741C17.7885 26.1807 17.7951 26.1907 17.8018 26.2007C17.8881 26.3203 17.9811 26.4334 18.0641 26.5564C18.1139 26.6295 18.177 26.7026 18.1903 26.7824C18.2069 26.8788 18.2467 26.922 18.3364 26.9386C18.4592 26.9652 18.5057 27.0583 18.4692 27.1613C18.4327 27.2677 18.4825 27.281 18.5555 27.3209C18.6319 27.3641 18.7083 27.4306 18.7481 27.5037C18.8311 27.65 18.881 27.8129 18.9573 27.9624C18.9939 28.0356 19.0669 28.0888 19.1134 28.1552C19.2097 28.2948 19.2861 28.4444 19.3923 28.5741C19.5218 28.727 19.6746 28.8599 19.8107 29.0062C19.9834 29.189 20.1494 29.3752 20.3254 29.5547C20.445 29.6777 20.5778 29.7874 20.704 29.907C20.953 30.143 21.1921 30.3857 21.4478 30.6117C21.6304 30.7746 21.8363 30.9109 22.0355 31.0538C22.0687 31.0771 22.1152 31.0837 22.1584 31.1004C22.2016 31.1137 22.248 31.1236 22.2812 31.1469C22.5801 31.3397 22.8723 31.5425 23.1745 31.7319C23.3173 31.8217 23.4733 31.8882 23.6161 31.9746C23.7755 32.071 23.9017 32.2172 24.0843 32.2738C24.1109 32.2804 24.1209 32.3303 24.1408 32.3602C24.1275 32.3735 24.1142 32.3868 24.1009 32.3967C24.0212 32.3402 23.9415 32.2804 23.8585 32.2305C23.7357 32.1541 23.6095 32.0876 23.4899 32.0145C23.3704 31.9413 23.2575 31.8616 23.138 31.7918C22.9819 31.702 22.8192 31.6222 22.6664 31.5325C22.444 31.3995 22.2215 31.2632 22.0023 31.1203C21.9492 31.0837 21.9127 31.0206 21.8695 30.974C21.8429 30.9441 21.7898 30.8909 21.7832 30.8943C21.6769 30.974 21.6437 30.861 21.5839 30.8211C21.5042 30.768 21.4312 30.6981 21.3448 30.6583C21.1024 30.5486 20.8999 30.3857 20.7139 30.1995C20.6475 30.1331 20.601 30.0433 20.528 29.9934C20.3453 29.8705 20.1793 29.7408 20.0432 29.5547C19.9834 29.4716 19.8971 29.3253 19.7011 29.3818L19.7045 29.3885ZM19.824 43.1003C19.8639 43.1036 19.9037 43.0969 19.9303 43.1135C20.0498 43.1933 20.1627 43.1734 20.2989 43.1534C20.445 43.1302 20.601 43.1534 20.7471 43.1003C20.7637 43.0936 20.7837 43.1102 20.8036 43.1135C20.8932 43.1302 20.9862 43.1601 21.0759 43.1568C21.1987 43.1568 21.3482 43.0803 21.4345 43.1302C21.6271 43.2399 21.75 43.1235 21.8894 43.0504C22.0588 43.2399 22.2016 43.2133 22.5934 42.8975C22.4506 42.8908 22.3244 42.9041 22.2082 42.8742C22.0156 42.8244 21.8263 42.7479 21.6371 42.6847C21.564 42.6615 21.4677 42.6083 21.4179 42.6382C21.3316 42.6847 21.2751 42.6515 21.1987 42.6449C21.036 42.6282 20.8401 42.5019 20.7305 42.7479C20.7239 42.7645 20.6973 42.7811 20.684 42.7778C20.5877 42.7579 20.4981 42.8676 20.3952 42.7911C20.3852 42.7845 20.3487 42.8077 20.2889 42.8343C20.4914 42.8775 20.6575 42.9141 20.8235 42.9507C20.8235 42.964 20.8169 42.9773 20.8135 42.9906C20.5579 42.944 20.3055 42.8942 20.0465 42.8576C19.8805 42.8343 19.8174 42.9075 19.824 43.0969V43.1003ZM17.8549 19.1869C17.8649 19.3564 18.4659 19.742 18.7116 19.7387C18.5124 19.4163 18.1737 19.3298 17.8549 19.1869ZM23.1413 42.954C23.2542 43.0271 23.3372 43.1036 23.4335 43.1302C23.5032 43.1501 23.5929 43.1069 23.6759 43.0936C23.6593 43.0537 23.6527 42.9872 23.6228 42.9773C23.5232 42.9374 23.4169 42.9075 23.3106 42.8942C23.2608 42.8875 23.2011 42.9307 23.1413 42.954ZM21.5408 44.7091C21.3415 44.6592 21.1821 44.616 21.0227 44.5761C20.9929 44.6958 21.0227 44.7523 21.119 44.7556C21.2054 44.759 21.2917 44.7556 21.378 44.7523C21.4245 44.749 21.4677 44.729 21.5408 44.7091ZM16.4138 49.3096C16.3673 49.2431 16.3341 49.1833 16.2909 49.1301C16.271 49.1068 16.2344 49.0969 16.2079 49.0836C16.1913 49.1168 16.1614 49.1467 16.1581 49.18C16.1481 49.2897 16.2344 49.3329 16.4171 49.3096H16.4138ZM27.6839 19.8883C27.6673 19.875 27.6507 19.8584 27.6341 19.8451C27.5245 19.8949 27.4448 19.9681 27.4448 20.1542C27.5411 20.0478 27.6141 19.9681 27.6839 19.8883Z" fill="white"/>
</svg>
