<svg width="146" height="51" viewBox="0 0 146 51" fill="none" xmlns="http://www.w3.org/2000/svg">
<g clip-path="url(#clip0_3707_508)">
<path d="M65.5916 15.1849C65.5916 17.0464 65.9369 17.6148 66.4749 17.7411C66.8202 17.8375 67.2951 17.9007 67.7068 17.8043L67.7367 18.1832C67.0128 18.6553 66.1893 19.0674 64.9275 19.0674C63.6656 19.0674 63.2539 18.4026 62.9716 17.0464C62.0253 17.678 60.3517 19.0674 58.4922 19.0674C55.6198 19.0674 54.3281 17.0464 54.3281 14.8359C54.3281 13.4165 54.959 12.2465 57.1041 11.5816C59.4385 10.857 62.2477 10.0991 63.0048 9.34122V7.72905C63.0048 5.39223 61.9655 4.31855 60.355 4.31855C58.7445 4.31855 57.672 5.35899 57.3897 7.72905C57.3266 8.17115 57.1672 8.36062 56.5695 8.36062C55.9718 8.36062 54.8661 7.98168 54.8661 7.03432C54.8661 5.51854 57.2303 3.75014 60.6705 3.75014C65.1798 3.75014 65.5916 6.0238 65.5916 7.7922V15.1816V15.1849ZM63.0048 10.0692C62.3407 10.5113 60.7003 11.0498 59.5049 11.5218C57.8944 12.0902 57.2635 12.9744 57.2635 14.3971C57.2635 16.1323 58.3361 17.7777 60.1657 17.7777C61.2682 17.7777 63.0048 17.2392 63.0048 14.9024V10.0692Z" fill="white"/>
<path d="M81.5836 14.7428C80.7302 17.9639 78.1136 19.0674 75.9684 19.0674C71.5188 19.0674 69.2476 16.478 69.2476 11.5185C69.2476 7.56949 70.951 3.75014 76.3138 3.75014C79.5945 3.75014 81.298 5.29915 81.298 6.65537C81.298 7.7922 80.4147 8.20106 79.7838 8.20106C79.1529 8.20106 78.9636 8.01159 78.8374 7.50633C78.4921 5.86425 77.9542 4.37839 75.9684 4.37839C73.9827 4.37839 72.2759 6.46258 72.2759 11.0099C72.2759 13.9151 73.1592 17.801 76.596 17.801C78.7113 17.801 80.2885 16.9799 81.1718 14.5467L81.5836 14.7362V14.7428Z" fill="white"/>
<path d="M86.5381 10.857C86.4751 13.985 87.2654 17.8376 90.9247 17.8376C93.9232 17.8376 94.8064 15.8797 95.3743 14.457L95.8458 14.6797C95.1518 16.9866 93.5446 19.0708 90.2605 19.0708C85.2763 19.0708 83.5098 16.1988 83.5098 11.5218C83.5098 7.10083 85.5287 3.75349 90.2307 3.75349C95.6565 3.75349 96.0052 7.98503 96.0052 9.75344C96.0052 10.2919 95.8458 10.8604 94.7732 10.8604H86.5381V10.857ZM91.964 10.1623C93.0034 10.1623 93.1295 9.49748 93.1295 8.61328C93.1295 7.41329 92.844 4.38174 90.0381 4.38174C86.9466 4.38174 86.5381 8.89915 86.5381 10.1623H91.964Z" fill="white"/>
<path d="M111.994 16.0991C111.994 17.8043 112.09 17.9306 114.042 18.0868V18.6885H107.165V18.0868C109.151 17.9605 109.281 17.8342 109.281 16.0991V8.58333C109.281 6.09028 108.112 5.07976 106.219 5.07976C104.675 5.07976 103.254 5.93073 102.782 6.91133C102.53 7.38334 102.467 7.79553 102.467 8.52018V16.0991C102.467 17.8342 102.623 17.9306 104.549 18.0868V18.6885H97.7017V18.0868C99.6276 17.9605 99.7538 17.8043 99.7538 16.0991V6.78169C99.7538 5.45539 99.6907 5.26591 98.7742 5.1396L97.8278 5.0432V4.53794L102.025 3.78005L102.437 6.08696C104.296 4.91689 105.654 3.75014 107.8 3.75014C110.546 3.75014 111.997 5.4853 111.997 8.48694V16.0991H111.994Z" fill="white"/>
<path d="M125.369 -3.07088L124.077 -3.22711V-3.70245L128.935 -4.23763L129.032 -4.17447V16.2885C129.032 17.7744 129.128 17.9007 131.05 18.0901V18.6918H126.285V16.9533C124.678 18.2497 123.227 19.0707 121.617 19.0707C117.735 19.0707 115.686 16.355 115.686 11.7146C115.686 9.12513 116.476 7.13401 117.735 5.80771C118.997 4.51132 120.637 3.75676 123.068 3.75676C124.423 3.75676 125.495 4.0393 126.315 4.45149V-1.42546C126.315 -2.75177 126.096 -2.97448 125.369 -3.06755V-3.07088ZM126.315 7.82542C126.315 7.03429 126.285 6.59219 126.033 6.09026C125.528 4.95342 124.426 4.38501 123.068 4.38501C120.102 4.38501 118.714 7.4498 118.714 11.3656C118.714 14.776 120.102 17.8076 122.782 17.8076C124.263 17.8076 125.525 17.4619 126.096 15.976C126.285 15.4708 126.315 14.9655 126.315 14.3007V7.82542Z" fill="white"/>
<path d="M143.855 15.1849C143.855 17.0464 144.2 17.6148 144.738 17.7411C145.083 17.8375 145.558 17.9007 145.97 17.8043L146 18.1832C145.276 18.6553 144.456 19.0674 143.191 19.0674C141.926 19.0674 141.517 18.4026 141.235 17.0464C140.288 17.678 138.615 19.0674 136.755 19.0674C133.886 19.0674 132.591 17.0464 132.591 14.8359C132.591 13.4165 133.222 12.2465 135.367 11.5816C137.702 10.857 140.508 10.0991 141.265 9.34122V7.72905C141.265 5.39223 140.225 4.31855 138.615 4.31855C137.004 4.31855 135.935 5.35899 135.65 7.72905C135.586 8.17115 135.427 8.36062 134.829 8.36062C134.232 8.36062 133.126 7.98168 133.126 7.03432C133.126 5.51854 135.49 3.75014 138.93 3.75014C143.44 3.75014 143.851 6.0238 143.851 7.7922V15.1816L143.855 15.1849ZM141.268 10.0692C140.604 10.5113 138.967 11.0498 137.768 11.5218C136.161 12.0902 135.527 12.9744 135.527 14.3971C135.527 16.1323 136.599 17.7777 138.429 17.7777C139.535 17.7777 141.268 17.2392 141.268 14.9024V10.0692Z" fill="white"/>
<path d="M63.194 35.0163C62.5631 32.49 61.4573 30.9743 59.3753 30.9743C57.8943 30.9743 56.8517 32.018 56.8517 33.5637C56.8517 35.3953 58.2729 35.9969 60.0361 36.5953C63.0346 37.6689 64.675 38.4268 64.675 41.0495C64.675 43.6722 62.4336 45.66 58.9005 45.66C57.0708 45.66 55.716 45.1547 54.7066 44.6794L54.3911 40.3548H54.9589C55.5566 42.8811 56.8816 45.0617 59.2491 45.0617C60.8264 45.0617 62.2476 44.2406 62.2476 42.3758C62.2476 40.6706 60.9227 39.8495 59.0632 39.1847C56.5694 38.3637 54.5837 37.3531 54.5837 34.89C54.5837 32.0479 56.6657 30.3427 59.8203 30.3427C61.3345 30.3427 62.7856 30.7515 63.7021 31.1936V35.0163H63.1973H63.194Z" fill="white"/>
<path d="M77.6419 45.281L77.3597 43.3564C76.3502 44.0511 74.4873 45.66 71.9637 45.66C69.7555 45.66 67.9258 44.6195 67.9258 41.2057V33.1847C67.9258 31.9847 67.7665 31.762 66.8201 31.5759L66.063 31.4163V30.9111L70.5425 30.4391L70.6388 30.5321V41.0495C70.6388 43.3564 71.9006 44.3337 73.6373 44.3337C75.1515 44.3337 76.5063 43.7353 77.1372 42.409C77.2933 42.0932 77.3895 41.4617 77.3895 40.6074V33.1847C77.3895 32.1111 77.2634 31.7953 76.317 31.6357L75.4337 31.4795V30.9742L80.0394 30.4391L80.1025 30.5321V42.7547C80.1025 44.3337 80.1656 44.4932 82.0915 44.6794V45.281H77.6419Z" fill="white"/>
<path d="M95.0551 41.7775C95.0551 43.639 95.4004 44.2074 95.9383 44.3337C96.2837 44.4301 96.7585 44.4932 97.1703 44.3968L97.2035 44.7758C96.4763 45.2478 95.6561 45.66 94.3943 45.66C93.1324 45.66 92.724 44.9952 92.4384 43.639C91.4921 44.2705 89.8218 45.66 87.959 45.66C85.09 45.66 83.7949 43.639 83.7949 41.4285C83.7949 40.0091 84.4258 38.839 86.5709 38.1742C88.9053 37.4495 91.7145 36.6917 92.4683 35.9338V34.3216C92.4683 31.9848 91.429 30.9111 89.8185 30.9111C88.208 30.9111 87.1354 31.9515 86.8532 34.3216C86.7901 34.7637 86.6307 34.9532 86.033 34.9532C85.4353 34.9532 84.3295 34.5742 84.3295 33.6269C84.3295 32.1111 86.6938 30.3427 90.1339 30.3427C94.6433 30.3427 95.0551 32.6163 95.0551 34.3847V41.7742V41.7775ZM92.4683 36.6617C91.8042 37.1038 90.1671 37.6423 88.9684 38.1144C87.3612 38.6828 86.727 39.567 86.727 40.9897C86.727 42.7248 87.7996 44.3702 89.6292 44.3702C90.735 44.3702 92.4683 43.8318 92.4683 41.4949V36.6617Z" fill="white"/>
<path d="M111.804 41.3986C110.858 43.6091 109.121 45.6634 106.916 45.6634C105.306 45.6634 104.927 44.4002 105.339 42.6617L109.44 26.0813C109.725 24.9445 109.599 24.7251 108.842 24.6586L107.169 24.4359L107.325 23.7411L112.721 23.0464L112.88 23.1727L108.085 42.4058C107.833 43.3864 107.833 44.018 108.308 44.018C109.035 44.018 110.423 42.2163 111.084 40.89L111.807 41.3953L111.804 41.3986Z" fill="white"/>
<path d="M129.188 30.3759L126.033 42.439C125.781 43.3564 125.718 44.0179 126.316 44.0179C127.106 44.0179 128.524 41.9969 129.125 40.89L129.852 41.3952C128.809 43.6057 127.013 45.66 124.835 45.66C123.257 45.66 122.879 44.3969 123.447 42.3758L124.33 39.2811H124.267C122.467 42.7249 119.502 45.66 116.633 45.66C114.268 45.66 114.013 43.6689 114.644 41.3022L116.663 33.5039C116.915 32.5898 116.948 32.1477 116.221 32.0812L114.421 31.9549L114.577 31.197L120.036 30.3759L120.196 30.5023L117.357 41.4285C116.915 43.1337 117.134 43.9548 118.051 43.9548C120.355 43.9548 123.035 39.9426 124.33 36.9443C125.057 35.2058 125.592 33.7864 126.475 30.7216L129.188 30.3759Z" fill="white"/>
<path d="M137.419 30.7217H140.985C141.836 30.7217 143.602 30.7217 144.077 30.5654L144.392 31.1339C141.52 34.1953 136.536 39.0584 133.73 42.2163V42.2795C134.394 42.3426 135.433 42.5321 136.695 42.911C137.486 43.1637 138.588 43.4163 139.249 43.4163C140.544 43.4163 142.121 42.5653 143.224 40.0058L144.014 40.4147C143.097 43.1637 140.922 45.8163 138.588 45.8163C137.579 45.8163 136.632 45.5304 135.56 45.1215C133.952 44.49 133.258 44.2706 132.721 44.2706C132.027 44.2706 131.396 44.6163 130.921 45.2479C130.891 45.311 130.824 45.4373 130.698 45.4373C130.509 45.4373 130.383 45.2479 130.383 44.8988C130.383 44.4268 130.698 43.8883 131.329 43.1637C134.484 39.5936 137.416 36.6252 141.138 32.869V32.8391H135.935C134.484 32.8391 133.63 34.0391 132.684 35.7443L131.927 35.4286C132.591 33.3776 133.976 31.1638 134.484 30.5654C135.208 30.6618 135.935 30.7217 137.416 30.7217H137.419Z" fill="white"/>
<path d="M14.7634 41.0157C14.5741 40.9127 14.5775 40.9127 14.7003 40.7431C14.7302 40.6999 14.7402 40.6401 14.7601 40.5869C14.9427 40.6534 15.0357 40.6035 15.0523 40.4008C15.0656 40.2512 15.0523 40.1016 15.0523 39.9653C14.9593 40.1282 14.863 40.2977 14.7634 40.4706C14.7335 40.3974 14.707 40.3243 14.6738 40.2479C14.8531 40.1149 14.9128 39.8988 14.7966 39.7393C14.9162 39.6994 14.966 39.6462 14.9228 39.4966C14.8962 39.4069 14.956 39.2805 15.0058 39.1841C15.059 39.0711 15.142 38.9747 15.215 38.8717C15.2881 38.7686 15.3611 38.6656 15.4375 38.5625C15.577 38.3797 15.5604 38.3166 15.3478 38.2135C14.9128 38.0041 14.4812 37.788 14.0428 37.5853C13.6444 37.3991 13.2393 37.2296 12.8441 37.0401C12.4855 36.8673 12.1335 36.6778 11.7749 36.5016C11.4926 36.3587 11.2037 36.2324 10.9248 36.0795C10.7056 35.9598 10.4998 35.8169 10.2873 35.6872C10.1843 35.6241 10.0747 35.5709 9.96516 35.5177C9.57997 35.3316 9.27779 35.0224 8.91585 34.7964C8.64356 34.6269 8.36795 34.464 8.1023 34.2845C7.95952 34.1881 7.83001 34.0684 7.69387 33.962C7.46475 33.7892 7.23231 33.6197 7.00651 33.4435C6.96998 33.4136 6.96666 33.3471 6.94009 33.3005C6.92681 33.2706 6.90357 33.244 6.877 33.2274C6.70433 33.1111 6.5217 33.008 6.35567 32.8817C6.23613 32.792 6.12323 32.6823 6.03025 32.5626C5.91403 32.4097 5.82437 32.2435 5.63842 32.1404C5.53548 32.0839 5.50228 31.9111 5.42922 31.7981C5.33957 31.6618 5.23995 31.5288 5.14365 31.3959C5.06728 31.2961 4.98758 31.1964 4.90457 31.1C4.81823 31.0003 4.71197 30.9139 4.6356 30.8075C4.52934 30.6579 4.45297 30.4917 4.35335 30.3388C4.27697 30.2258 4.17404 30.1327 4.09434 30.023C3.97812 29.8568 3.8619 29.6873 3.76228 29.5111C3.6361 29.2917 3.44683 29.1853 3.21438 29.1222C3.10148 29.0923 2.99522 29.0457 2.88896 28.9992C2.7661 28.9427 2.72626 28.8363 2.76942 28.7034C2.96202 28.7964 3.15461 28.8928 3.34721 28.9892L3.38373 28.9693C3.32728 28.8696 3.27083 28.7698 3.21106 28.6701C3.0716 28.4341 2.92217 28.2047 2.78603 27.9654C2.54694 27.5333 2.2979 27.1045 2.08206 26.6557C1.86622 26.2037 1.69023 25.7283 1.49099 25.2663C1.38806 25.0236 1.26851 24.7876 1.1689 24.5416C1.02943 24.2026 0.889966 23.8602 0.773745 23.5145C0.667486 23.1987 0.57783 22.8763 0.494815 22.5505C0.4118 22.2148 0.35535 21.8724 0.275655 21.5367C0.19264 21.1943 0.225846 20.8253 0.0332517 20.5129C0.0199693 20.4929 0.0199693 20.463 0.0199693 20.4364C-0.0298396 19.8048 -0.00659544 19.1766 0.0930225 18.5517C0.0930225 18.535 0.102984 18.5184 0.0996637 18.5051C0.00336637 18.1794 0.126228 17.8669 0.169396 17.5511C0.222526 17.1555 0.285617 16.76 0.345388 16.3677C0.398517 16.0021 0.458288 15.6398 0.501456 15.2741C0.534662 14.9982 0.597753 14.7124 0.564547 14.4431C0.537982 14.1938 0.650883 14.0076 0.704012 13.7949C0.737218 13.6586 0.727256 13.5124 0.740539 13.3694C0.743859 13.3229 0.74718 13.273 0.763783 13.2331C0.899927 12.924 1.04935 12.6182 1.17886 12.3024C1.32828 11.9368 1.46443 11.5678 1.60721 11.1988C1.61386 11.1855 1.61386 11.1689 1.6205 11.1523C1.68359 11.0226 1.74336 10.893 1.81309 10.7667C1.89943 10.6038 1.99572 10.4476 2.08538 10.2847C2.2182 10.0454 2.33775 9.79605 2.48053 9.56337C2.62996 9.32404 2.80263 9.098 2.9587 8.86199C3.09152 8.66255 3.21438 8.44981 3.35385 8.25369C3.48999 8.06089 3.64274 7.88139 3.79217 7.69524C3.95488 7.4958 4.11094 7.28971 4.28362 7.10023C4.5393 6.82101 4.84148 6.57503 5.06728 6.27254C5.37609 5.85703 5.84098 5.63764 6.18632 5.26867C6.39219 5.04928 6.67112 4.90302 6.91685 4.7202C7.09948 4.58391 7.27215 4.43101 7.45811 4.30469C7.64406 4.17838 7.85326 4.08198 8.03921 3.95566C8.17536 3.86259 8.28494 3.73295 8.41444 3.62991C8.46757 3.58669 8.5373 3.55678 8.60371 3.52686C8.80295 3.43711 9.0055 3.35401 9.20142 3.26426C9.41726 3.16454 9.6331 3.06814 9.84229 2.95844C9.99504 2.87867 10.1345 2.77562 10.2806 2.68587C10.3437 2.64931 10.4101 2.61939 10.4765 2.58947C10.7621 2.45651 11.0444 2.3169 11.3366 2.19723C11.6852 2.05762 12.0472 1.9446 12.3992 1.80832C12.6117 1.72521 12.8109 1.60887 13.0267 1.52909C13.1596 1.47923 13.319 1.49253 13.4485 1.43602C13.8934 1.24655 14.3716 1.18672 14.8332 1.07037C15.039 1.01719 15.2349 0.924114 15.4342 0.857632C15.5404 0.824392 15.65 0.801123 15.7596 0.784503C16.0651 0.734642 16.3739 0.698077 16.6794 0.644892C16.8786 0.608327 17.0712 0.541846 17.2671 0.508605C17.4365 0.482012 17.6092 0.488661 17.7818 0.468716C17.9645 0.448772 18.1471 0.408883 18.3297 0.388938C18.5622 0.362346 18.7946 0.34905 19.0271 0.332429C19.0702 0.329105 19.1101 0.329105 19.1532 0.319133C19.3292 0.282568 19.5052 0.236031 19.6812 0.212763C19.8605 0.189494 20.0398 0.192818 20.2192 0.18617C20.445 0.179522 20.6674 0.179522 20.8932 0.172874C21.2253 0.162902 21.554 0.142957 21.8861 0.146281C22.0953 0.146281 22.3045 0.189494 22.5137 0.209439C22.5635 0.212763 22.6166 0.209439 22.6664 0.209439C22.9487 0.192818 23.2243 0.209439 23.5066 0.2593C23.812 0.312485 24.1341 0.27592 24.4529 0.27592C24.4928 0.27592 24.5426 0.239355 24.5725 0.255976C24.8481 0.38229 25.1502 0.315809 25.4259 0.378966C25.7015 0.445448 25.9738 0.385614 26.2427 0.435475C26.432 0.47204 26.618 0.538522 26.8072 0.575086C27.1028 0.631596 27.3983 0.664836 27.6938 0.72467C27.9229 0.771206 28.1454 0.84766 28.3712 0.907493C28.6269 0.973975 28.8826 1.03381 29.135 1.11026C29.3143 1.16345 29.4869 1.2399 29.6629 1.30306C29.9518 1.4061 30.244 1.5025 30.5329 1.60555C30.7156 1.67203 30.8982 1.74516 31.0775 1.82161C31.29 1.91136 31.4959 2.02438 31.7117 2.09419C31.8877 2.15402 32.0803 2.16399 32.2663 2.20388C32.3427 2.2205 32.4124 2.25042 32.4888 2.26704C32.5419 2.27701 32.605 2.28698 32.6548 2.27036C32.771 2.23712 32.781 2.17396 32.688 2.09086C32.5718 1.99114 32.4489 1.89807 32.3327 1.80167C32.3095 1.78172 32.2995 1.75181 32.2928 1.67868C32.4257 1.69862 32.5685 1.69862 32.6913 1.74848C32.9636 1.85485 33.2226 1.98449 33.4883 2.10416C33.9731 2.32355 34.4678 2.52299 34.9394 2.76565C35.2747 2.9385 35.5802 3.17783 35.9023 3.3806C36.0717 3.48697 36.2576 3.56675 36.4237 3.67644C36.6295 3.80941 36.8421 3.93904 37.0214 4.10525C37.3866 4.4443 37.732 4.80663 38.0873 5.15565C38.2633 5.32851 38.4492 5.49471 38.6285 5.66424C38.7514 5.77725 38.8809 5.88695 38.9971 6.00662C39.3624 6.39221 39.6945 6.80107 39.9867 7.24649C40.1062 7.42599 40.249 7.5922 40.3652 7.77502C40.4881 7.96782 40.5943 8.17391 40.7039 8.37668C40.8401 8.62931 40.9596 8.89191 41.1057 9.14121C41.2485 9.39052 41.4245 9.6232 41.5673 9.87251C41.6835 10.072 41.7698 10.2913 41.8694 10.5008C41.979 10.7334 42.0986 10.9628 42.1982 11.2021C42.2646 11.355 42.3011 11.5179 42.3576 11.6775C42.4539 11.9501 42.5701 12.2193 42.6531 12.4985C42.7394 12.7877 42.7992 13.0836 42.8656 13.3761C42.9619 13.8049 43.0582 14.2304 43.1412 14.6592C43.1844 14.8752 43.1944 15.0979 43.2276 15.3173C43.2707 15.6032 43.3272 15.8891 43.3704 16.1783C43.3969 16.3511 43.4102 16.5306 43.4401 16.7035C43.4799 16.9395 43.5729 17.1755 43.5663 17.4115C43.5596 17.6076 43.5962 17.7771 43.636 17.96C43.6559 18.0564 43.6061 18.1661 43.5995 18.2724C43.5895 18.3888 43.5829 18.5084 43.5862 18.6248C43.5862 18.7046 43.6028 18.7877 43.6128 18.9007C43.719 18.9605 43.7124 19.0702 43.6759 19.2165C43.5995 19.5223 43.5397 19.8381 43.4999 20.1505C43.4833 20.2768 43.4766 20.3998 43.4368 20.5261C43.4102 20.6093 43.4501 20.7223 43.4866 20.8153C43.5663 21.0148 43.4102 21.1411 43.3538 21.2973C43.3338 21.3538 43.3106 21.4104 43.294 21.4669C43.2375 21.6663 43.1811 21.8691 43.1346 22.0718C43.1014 22.2148 43.0848 22.361 43.0715 22.5073C43.0582 22.6668 43.0217 22.8065 42.942 22.9527C42.7693 23.2752 42.6365 23.6175 42.4904 23.9533C42.424 24.1028 42.3808 24.2657 42.3011 24.4087C42.2414 24.5117 42.1351 24.5882 42.0587 24.6846C42.0122 24.7444 41.9724 24.8142 41.9458 24.884C41.8396 25.1599 41.7134 25.4192 41.4876 25.6253C41.3548 25.7449 41.2717 25.9178 41.1655 26.064C41.1422 26.0973 41.1124 26.1405 41.0791 26.1505C40.8832 26.2037 40.8367 26.3732 40.7737 26.5294C40.7106 26.689 40.6574 26.8485 40.5977 27.0081C40.591 27.028 40.5777 27.0546 40.5645 27.0579C40.3088 27.0978 40.3054 27.3904 40.1162 27.5C40.0996 27.51 40.0929 27.5499 40.083 27.5499C39.9003 27.5532 39.9103 27.746 39.814 27.8291C39.7409 27.8923 39.6845 27.9787 39.6081 28.0385C39.5019 28.1183 39.3856 28.1815 39.3757 28.3344C39.3757 28.3477 39.3624 28.3676 39.3491 28.3743C39.0968 28.4973 39.0569 28.7599 38.9407 28.9726C38.8975 29.0524 38.8012 29.0989 38.7381 29.1654C38.5688 29.3549 38.3928 29.541 38.2367 29.7438C38.0939 29.9299 37.8382 30.156 37.6888 30.2158C37.5859 30.3853 37.5328 30.5183 37.4431 30.6114C37.2472 30.8075 37.028 30.9837 36.8221 31.1731C36.7424 31.2463 36.676 31.336 36.5997 31.4125C36.5731 31.4424 36.5266 31.4856 36.5 31.479C36.3506 31.4357 36.3373 31.5687 36.2643 31.6352C36.1248 31.7615 36.0518 31.9709 35.8326 31.9975C35.8027 32.0008 35.7728 32.0374 35.7496 32.064C35.5968 32.2402 35.4076 32.3532 35.1784 32.3997C35.1253 32.4097 35.0821 32.4729 35.029 32.5028C34.9526 32.5493 34.8696 32.5859 34.7833 32.6191C34.7069 32.669 34.6272 32.7155 34.5542 32.7687C34.4911 32.8152 34.4346 32.8684 34.3815 32.9216C34.3317 32.9681 34.2885 33.0712 34.2454 33.0679C34.0461 33.0546 33.9631 33.2374 33.8137 33.3005C33.7373 33.3338 33.6643 33.377 33.5912 33.4368C33.5215 33.4701 33.4484 33.5 33.382 33.5366C33.2625 33.603 33.1496 33.6795 33.03 33.736C32.9105 33.7958 32.7777 33.8291 32.6548 33.8889C32.5386 33.9454 32.439 34.0285 32.3227 34.0817C32.1235 34.1748 31.9143 34.2512 31.7117 34.3443C31.5889 34.4008 31.4727 34.4739 31.3531 34.5371C31.2369 34.5969 31.1174 34.6501 31.0011 34.7033C30.9347 34.7332 30.865 34.7598 30.7986 34.7897C30.7255 34.823 30.6591 34.8695 30.5861 34.8861C30.4333 34.9227 30.2772 34.9426 30.1212 34.9692C30.1046 34.9692 30.0847 34.9825 30.0747 34.9759C29.9253 34.8595 29.8589 35.0058 29.7559 35.069C29.6098 35.1587 29.4571 35.2485 29.2944 35.2983C28.9889 35.3914 28.6734 35.4545 28.3613 35.5376C28.2484 35.5676 28.1388 35.6141 28.0392 35.6706C27.9329 35.7304 27.8333 35.7304 27.7137 35.7371C27.4946 35.7504 27.2821 35.8368 27.0662 35.9033C27.033 35.9133 27.0164 35.9665 26.9899 35.9997C26.8039 35.9432 26.6246 35.9166 26.4287 35.993C26.266 36.0562 26.08 36.0795 25.904 36.0961C25.8409 36.1027 25.7679 36.0462 25.6849 36.0163C25.5819 36.1393 25.4491 36.1227 25.293 36.0961C25.0672 36.0562 24.8348 36.0628 24.6057 36.0462C24.5957 36.0462 24.5857 36.0462 24.5758 36.0396C24.2869 35.9698 23.9947 35.8966 23.7058 35.8335C23.1413 35.7105 22.5735 35.5908 22.0056 35.4678C21.8263 35.4279 21.6503 35.3681 21.4743 35.3249C21.2685 35.2717 21.0593 35.2285 20.8501 35.1786C20.7471 35.1521 20.6475 35.1255 20.5479 35.0889C20.2125 34.9659 19.8771 34.8396 19.5418 34.7199C19.3957 34.6667 19.2363 34.6401 19.1001 34.5703C18.8909 34.464 18.6751 34.351 18.4958 34.2014C18.3331 34.0651 18.2135 33.8723 18.0741 33.7061C18.0076 33.6263 17.9379 33.5465 17.8682 33.4701C17.7287 33.3138 17.6025 33.1443 17.4465 33.0047C17.2871 32.8618 17.1078 32.7388 16.9251 32.6258C16.8155 32.5593 16.706 32.5227 16.7192 32.3532C16.7226 32.29 16.6396 32.2003 16.5731 32.1571C16.3208 31.9809 16.1315 31.7582 15.992 31.4823C15.7994 31.1067 15.5803 30.741 15.3844 30.3687C15.3213 30.2491 15.298 30.1094 15.2449 29.9864C15.0855 29.6308 14.9162 29.2784 14.7568 28.9227C14.6738 28.7333 14.5343 28.5372 14.5376 28.3477C14.5443 28.1216 14.4015 27.9854 14.355 27.7992C14.2919 27.5466 14.2354 27.2906 14.1724 27.038C14.1624 26.9948 14.1491 26.9416 14.1192 26.915C13.9964 26.8086 13.9798 26.669 13.9532 26.5228C13.9133 26.2934 13.8469 26.0707 13.7938 25.8447C13.7872 25.8114 13.7938 25.7749 13.7872 25.7416C13.7606 25.5555 13.734 25.366 13.7008 25.1832C13.6776 25.0502 13.6377 24.9172 13.6079 24.7843C13.5979 24.7477 13.6079 24.6945 13.5846 24.6812C13.4551 24.5848 13.5049 24.4452 13.5082 24.3322C13.5082 24.1826 13.4916 24.0497 13.392 23.9366C13.3787 23.92 13.3555 23.9034 13.3555 23.8868C13.3953 23.581 13.1928 23.3217 13.1828 23.0225C13.1762 22.8796 13.0799 22.7466 13.04 22.6037C13.0168 22.5239 13.0101 22.4308 13.0301 22.3511C13.0633 22.2148 13.0865 22.0951 13.0467 21.9422C12.9803 21.6796 12.9803 21.3971 12.9504 21.1245C12.9205 20.8286 12.957 20.5261 12.8142 20.2436C12.7511 20.1206 12.7412 19.9577 12.7379 19.8115C12.7312 19.5688 12.7545 19.3262 12.7578 19.0802C12.7578 19.0237 12.7545 18.9572 12.7213 18.9173C12.5718 18.7112 12.6681 18.5151 12.7379 18.3156C12.8375 18.0331 12.9603 17.7539 13.0267 17.4647C13.0633 17.3085 13.0068 17.129 12.9969 16.9594C12.9902 16.8564 12.9902 16.7533 12.9836 16.6503C12.9769 16.5506 12.9603 16.4508 12.957 16.3544C12.9537 16.2713 12.957 16.1849 12.9471 16.0918C12.967 15.9356 12.9736 15.7794 13.0135 15.6265C13.0699 15.4104 13.1463 15.1977 13.216 14.9849C13.2758 14.7988 13.3356 14.6193 13.495 14.483C13.6543 14.3467 13.7905 14.1772 13.9399 14.0276C13.9698 13.9977 14.0196 13.9678 14.0595 13.9644C14.3417 13.9511 14.5775 13.8414 14.7734 13.632C14.6605 13.529 14.5476 13.4226 14.4347 13.3196C14.4413 13.3096 14.4446 13.2963 14.4513 13.2863C14.7169 13.386 14.9793 13.4858 15.2449 13.5855C15.2549 13.5655 15.2648 13.5423 15.2781 13.5223C15.2051 13.4758 15.132 13.4259 15.059 13.3794C15.0656 13.3428 15.0689 13.2996 15.0756 13.2531C15.1021 13.2664 15.1453 13.2797 15.1785 13.3029C15.401 13.4525 15.6666 13.416 15.9123 13.4692C16.3938 13.5722 16.8454 13.7417 17.2605 14.0243C17.566 14.2337 17.9047 14.3999 18.2467 14.5395C18.788 14.7622 19.0603 15.1844 19.2595 15.7062C19.3824 16.0287 19.575 16.3312 19.7609 16.627C19.8473 16.7666 19.9867 16.8763 20.1096 16.986C20.1395 17.0126 20.2192 17.0226 20.2557 17.0026C20.7339 16.7434 21.2087 16.4675 21.6902 16.2115C22.0189 16.0353 22.3543 15.8725 22.693 15.7162C23.1081 15.5234 23.5232 15.3273 23.9482 15.1545C24.2039 15.0481 24.4762 14.9849 24.7352 14.8919C24.9909 14.7988 25.2432 14.6957 25.4889 14.5894C25.9605 14.3833 26.4619 14.3002 26.9633 14.1971C26.9733 14.1971 26.9865 14.1938 26.9965 14.1971C27.292 14.2902 27.5876 14.1506 27.8831 14.1971C28.1222 14.2337 28.3613 14.257 28.6003 14.2935C28.6369 14.3002 28.6834 14.3234 28.7 14.3534C28.8427 14.6492 28.9523 14.9317 28.876 15.2907C28.8195 15.56 28.6003 15.6863 28.5173 15.9123C28.441 16.1184 28.3513 16.3179 28.2849 16.5273C28.2749 16.5639 28.3413 16.647 28.3911 16.6769C28.5173 16.7533 28.6468 16.9927 28.607 17.1389C28.597 17.1821 28.5472 17.2353 28.5074 17.242C28.2782 17.2885 28.162 17.4747 28.0093 17.6109C28.0259 17.6176 28.0425 17.6242 28.0591 17.6309C28.0425 17.7273 28.0259 17.8237 28.006 17.9234C27.9894 18.0098 27.9694 18.0963 27.9595 18.1827C27.9462 18.2891 27.9097 18.3622 27.83 18.4553C27.6473 18.6647 27.3618 18.7744 27.2754 19.0902C27.2057 19.3528 27.0662 19.6087 26.9068 19.8281C26.7408 20.0541 26.5084 20.2303 26.3058 20.4331C26.2826 20.4563 26.2693 20.4896 26.2527 20.5195C26.246 20.5295 26.246 20.5394 26.2394 20.5494C26.1099 20.7322 25.9837 20.9217 25.8443 21.0946C25.7679 21.191 25.6417 21.2475 25.5753 21.3505C25.5354 21.4137 25.5686 21.5234 25.5686 21.6031C25.4657 21.6497 25.3528 21.7029 25.2399 21.7494C25.1835 21.7727 25.127 21.7959 25.0706 21.8192C25.0373 21.8325 24.9942 21.8458 24.9776 21.8724C24.8647 22.0386 24.7584 22.2148 24.6422 22.381C24.6156 22.4175 24.5691 22.4375 24.5094 22.4807C24.5094 22.4973 24.5127 22.5505 24.5193 22.6137C24.4064 22.6369 24.2603 22.6037 24.1806 22.7367C24.1607 22.7732 24.1142 22.7998 24.1109 22.8364C24.081 23.2087 23.8552 23.3716 23.5032 23.4114V23.5378C23.4335 23.5776 23.3737 23.6142 23.314 23.6474C23.1081 23.7605 23.0251 23.9533 22.9553 24.1627C22.9454 24.1893 22.8956 24.2325 22.8756 24.2258C22.7395 24.1826 22.7328 24.2358 22.776 24.3422C22.786 24.3688 22.786 24.4153 22.7727 24.4353C22.6532 24.5882 22.7196 24.7477 22.7461 24.9073C22.6598 24.9605 22.5701 25.0136 22.4805 25.0702C22.2646 25.2031 22.0986 25.1965 21.8961 25.0569C21.8463 25.0203 21.7798 25.0103 21.7201 24.987C21.7101 25.0469 21.7001 25.1034 21.6869 25.1632C21.6669 25.2596 21.647 25.3593 21.6271 25.4591C21.3316 25.4524 21.1257 25.6419 21.0991 25.9444C21.0991 25.9743 21.0991 26.0175 21.0825 26.0375C20.9796 26.1538 20.9696 26.2801 21.0759 26.443C20.8634 26.2901 20.6342 25.9012 20.6376 25.5954C20.6376 25.3128 20.6542 25.0402 20.7339 24.761C20.7969 24.5383 20.7737 24.2923 20.7969 24.0563C20.8102 23.9101 21.0892 23.6275 21.2286 23.5776C21.4179 23.5112 21.5906 23.4114 21.6802 23.212C21.7699 23.0059 21.8562 22.7965 21.9558 22.597C21.9957 22.5173 22.0455 22.4275 22.1152 22.3876C22.2812 22.2946 22.3775 22.1483 22.4871 22.0054C22.5237 21.9555 22.61 21.9422 22.6897 21.9023C22.8026 21.8292 22.9221 21.7195 23.0649 21.663C23.3405 21.5566 23.5232 21.3372 23.7423 21.1677C23.8785 21.0613 24.0378 20.9882 24.1673 20.8785C24.2869 20.7788 24.3931 20.6591 24.4894 20.5361C24.6356 20.35 24.7418 20.1306 24.9942 20.0575C25.0307 20.0475 25.0739 20.0109 25.0872 19.9777C25.1702 19.7683 25.3196 19.622 25.5022 19.5057C25.5122 19.499 25.5122 19.4791 25.5188 19.4492C25.4856 19.4591 25.4624 19.4624 25.4358 19.4691C25.4591 19.3827 25.469 19.2962 25.6018 19.3361C25.6716 19.3561 26.0169 18.8841 25.9771 18.8209C25.9405 18.7677 25.8675 18.7378 25.7911 18.6879C25.8775 18.4951 25.9804 18.2857 26.0601 18.0663C26.1365 17.8536 26.1896 17.6276 26.266 17.3683C26.08 17.4248 25.9306 17.468 25.7845 17.5179C25.2598 17.7007 24.7385 17.8868 24.2172 18.0796C24.0677 18.1328 23.9316 18.2192 23.7855 18.2791C23.3372 18.4586 22.8856 18.6248 22.4406 18.8109C22.2447 18.894 22.0621 19.0104 21.8695 19.1068C21.7964 19.1433 21.7134 19.1533 21.6371 19.1832C21.5872 19.1998 21.5374 19.2198 21.4976 19.253C21.3747 19.3494 21.2452 19.4458 21.1323 19.5555C21.0493 19.6353 21.0028 19.755 20.9165 19.8248C20.7505 19.9611 20.5545 20.0674 20.3885 20.2037C20.259 20.3068 20.1527 20.4397 20.0365 20.5594C20.0166 20.5793 19.9934 20.5993 19.9701 20.6159C19.8639 20.6924 19.7974 20.7987 19.8207 20.925C19.8439 21.068 19.7808 21.1012 19.6679 21.0879C19.555 21.0746 19.4355 21.0646 19.3292 21.0214C19.1931 20.9649 18.9905 20.9616 18.9939 21.0414C19.0005 21.161 19.0437 21.2973 19.1134 21.3937C19.1566 21.4536 19.2794 21.4569 19.3624 21.4835C19.1366 21.5466 19.1366 21.55 18.9374 21.5034C18.7913 21.4669 18.6452 21.4236 18.5323 21.3937C18.5456 21.314 18.5489 21.2508 18.5721 21.1943C18.602 21.1178 18.6419 21.048 18.6817 20.9649C18.4758 20.9084 18.3962 20.7356 18.3663 20.5228C18.3663 20.5062 18.3397 20.4929 18.3264 20.4763C18.2633 20.3965 18.2036 20.3167 18.1139 20.2004C18.011 20.2004 17.991 20.1106 18.0342 19.971C18.0442 19.9378 18.0242 19.8846 18.001 19.8514C17.8615 19.6419 17.7154 19.4359 17.5726 19.2264C17.556 19.1998 17.5494 19.1699 17.5394 19.14C17.5129 19.0469 17.4597 19.0203 17.3734 19.0735H17.3767C17.3004 18.8442 17.2373 18.6082 17.1476 18.3821C17.0878 18.2292 16.955 18.1361 16.8056 18.0697C16.5101 17.9334 16.2112 17.8004 15.9157 17.6675C15.8924 17.6575 15.8692 17.6508 15.8526 17.6442C15.7961 17.7339 15.7463 17.817 15.6965 17.8968C15.6434 17.9866 15.5836 18.073 15.7198 18.1561C15.5338 18.1594 15.5205 18.3223 15.4674 18.422C15.4109 18.5284 15.4043 18.6613 15.3844 18.781C15.3113 19.1965 15.2449 19.612 15.1752 20.0309C15.1719 20.0541 15.1851 20.0807 15.1984 20.1439C15.3379 19.9345 15.3113 19.6486 15.577 19.5755C15.4773 20.0774 15.4143 20.5893 15.4574 21.1212C15.65 20.832 15.5537 20.4663 15.7696 20.1572C15.7364 20.4497 15.7098 20.6957 15.6799 20.9417C15.66 21.1012 15.6467 21.2574 15.6201 21.417C15.6069 21.5067 15.5637 21.5932 15.557 21.6829C15.5371 21.9821 15.6367 22.2646 15.7198 22.5439C15.7297 22.5738 15.753 22.607 15.7496 22.6336C15.6965 22.9294 15.8559 23.089 16.1016 23.1921C16.0717 23.2951 16.1813 23.4513 16.344 23.4979C16.4403 23.5245 16.4835 23.5643 16.5267 23.6574C16.5632 23.7405 16.6827 23.7837 16.7558 23.8535C16.8786 23.9666 16.9882 24.0929 17.1144 24.1992C17.1808 24.2591 17.2671 24.2956 17.3468 24.3389C17.3834 24.3588 17.4398 24.3621 17.4564 24.392C17.566 24.5948 17.7818 24.658 17.9512 24.781C18.0508 24.8508 18.1239 24.9571 18.2235 25.0303C18.3131 25.0967 18.4194 25.1433 18.519 25.1998C18.5323 25.1898 18.5456 25.1765 18.5589 25.1665C18.5223 25.0768 18.4825 24.9837 18.4526 24.9106C18.5423 24.9505 18.6485 24.997 18.7382 25.0402C18.8644 25.243 19.0304 25.4391 19.1101 25.6685C19.1566 25.8048 19.2595 25.858 19.3259 25.9577C19.3425 25.9809 19.389 25.9843 19.4189 25.9976C19.4255 25.9643 19.4488 25.9311 19.4421 25.9012C19.4289 25.848 19.4023 25.7948 19.379 25.7449C19.3691 25.725 19.3458 25.715 19.3392 25.6951C19.2794 25.5056 19.223 25.3128 19.1599 25.12C19.1167 24.987 19.0736 24.8541 19.0171 24.7278C18.9806 24.6413 18.9175 24.5682 18.8577 24.4751C18.9441 24.4751 19.057 24.638 19.0835 24.4319C19.2197 24.5051 19.2728 24.6347 19.2628 24.7643C19.2462 24.9671 19.3558 25.1267 19.4255 25.2895C19.5982 25.6884 19.8008 26.074 20.0066 26.4563C20.093 26.6192 20.2092 26.7688 20.3354 26.905C20.4184 26.9948 20.5446 27.038 20.6741 26.9748C20.8434 27.1909 21.0095 27.4169 21.1921 27.6264C21.3083 27.7593 21.4079 27.8989 21.6038 27.9588C21.7433 28.002 21.8396 28.1482 21.9027 28.3144C21.9625 28.4707 22.1152 28.597 22.248 28.7133C22.3975 28.843 22.5668 28.956 22.7329 29.0657C22.8192 29.1222 22.9155 29.1654 23.0085 29.2053C23.2343 29.295 23.4567 29.3848 23.6892 29.4546C23.7589 29.4779 23.8486 29.438 23.915 29.4313C23.9781 29.4612 24.0378 29.4845 24.0976 29.5144C24.1209 29.5244 24.1574 29.5344 24.1607 29.551C24.2039 29.7704 24.3965 29.8701 24.5326 30.0097C24.6223 30.1061 24.7319 30.1892 24.8481 30.2524C25.0008 30.3355 25.1038 30.4585 25.2167 30.5815C25.2698 30.638 25.3395 30.6779 25.4093 30.7111C25.572 30.7909 25.738 30.8707 25.9107 30.9338C25.9704 30.9571 26.0601 30.9504 26.1165 30.9205C26.2361 30.8607 26.4752 30.977 26.4984 31.11C26.5084 31.1632 26.5582 31.2097 26.5914 31.2596C26.6678 31.1798 26.7209 31.1233 26.7707 31.0701C26.7807 31.0801 26.7939 31.09 26.8039 31.1C26.7773 31.1266 26.7541 31.1565 26.7342 31.1765C26.7807 31.2729 26.8039 31.3826 26.8703 31.4357C26.9899 31.5355 27.136 31.5953 27.3053 31.5887C27.5079 31.582 27.7071 31.582 27.9097 31.572C27.9429 31.572 27.9694 31.5222 27.9827 31.5122C28.2185 31.5321 28.4509 31.5321 28.6767 31.5787C28.8494 31.6119 28.9291 31.5421 28.9922 31.4191C29.0719 31.4357 29.1449 31.449 29.218 31.4623C29.2844 31.2363 29.3608 31.1964 29.4869 31.3294C29.6995 31.1864 29.9153 31.223 30.1511 31.2961C30.2673 31.3327 30.4167 31.2828 30.5429 31.2496C30.7156 31.2031 30.865 31.0734 31.0609 31.1067C31.0941 31.1133 31.134 31.1 31.1705 31.0867C31.3764 31.0003 31.5756 30.9105 31.7815 30.8308C31.828 30.8108 31.8944 30.8075 31.9409 30.8208C32.1301 30.874 32.3294 30.751 32.3493 30.5582C32.3648 30.4097 32.2962 30.331 32.1434 30.3222C32.1235 30.3222 32.1036 30.3222 32.0803 30.3189C32.2065 30.1726 32.2862 30.1493 32.6282 30.1527C32.6581 29.9299 32.854 30.0463 32.9769 29.9831C33.0134 30.0396 33.0466 30.0961 33.113 30.1992C33.1462 30.1394 33.1695 30.1028 33.1994 30.0496C33.3588 30.2058 33.5248 30.146 33.6576 30.023C33.7008 29.9831 33.6643 29.8535 33.6543 29.7671C33.7572 29.5144 34.0196 29.5078 34.2321 29.4214C34.3948 29.3582 34.5708 29.3283 34.7368 29.2751C34.7634 29.2651 34.7899 29.2119 34.7899 29.1787C34.7899 29.1155 34.7667 29.0557 34.7468 28.9493H35.1187C35.0988 28.9028 35.0822 28.8629 35.0589 28.8064C35.1519 28.7532 35.2382 28.6867 35.3378 28.6435C35.4109 28.6103 35.5271 28.6701 35.5636 28.5438C35.5869 28.4607 35.6068 28.3776 35.6334 28.2746C35.7031 28.2878 35.7828 28.3011 35.8559 28.3111C35.9953 28.0419 36.3705 27.9621 36.3938 27.6164C36.5698 27.6397 36.6993 27.5266 36.7557 27.3405C36.7723 27.2906 36.8653 27.2574 36.9284 27.2374C37.0048 27.2109 37.0413 27.1843 37.0645 27.0978C37.0944 26.9649 37.1907 26.8784 37.3667 26.9117C37.3534 26.8386 37.3435 26.7721 37.3402 26.7521C37.4796 26.5527 37.6025 26.3732 37.7287 26.197C37.7453 26.1737 37.7818 26.1638 37.8017 26.1438C37.8648 26.0807 37.9312 26.0142 37.991 25.9444C38.1006 25.8147 38.2068 25.6818 38.3131 25.5488C38.3563 25.4956 38.3961 25.4358 38.436 25.3793C38.5821 25.1699 38.7248 24.9538 38.8776 24.7477C38.9407 24.6613 39.0171 24.5815 39.1001 24.5084C39.296 24.3389 39.4753 24.1594 39.5351 23.8934C39.5417 23.8602 39.565 23.8236 39.5915 23.797C40.0033 23.4181 40.1593 22.8862 40.3885 22.4042C40.4947 22.1815 40.5113 21.9156 40.5645 21.6696C40.5943 21.53 40.6143 21.3871 40.6408 21.2475C40.6508 21.2043 40.684 21.1644 40.6906 21.1245C40.6973 21.048 40.7072 20.9683 40.684 20.8984C40.6774 20.8752 40.5777 20.8785 40.518 20.8752C40.4814 20.8752 40.4416 20.8752 40.4416 20.8752C40.4648 20.3832 40.5246 19.9079 40.5047 19.4325C40.4814 18.8907 40.4084 18.3489 40.3187 17.8137C40.249 17.3949 40.1162 16.986 40.0199 16.5705C39.9369 16.2248 39.8837 15.8725 39.7808 15.5367C39.6679 15.1711 39.5118 14.822 39.369 14.4664C39.2462 14.1606 39.12 13.8514 38.9839 13.5523C38.9108 13.396 38.8112 13.2498 38.7315 13.0969C38.5721 12.791 38.4293 12.4753 38.26 12.1794C38.064 11.837 37.8382 11.5113 37.629 11.1755C37.5494 11.0459 37.4796 10.9096 37.39 10.7866C37.3368 10.7135 37.2472 10.667 37.1941 10.5938C37.121 10.5008 37.0778 10.3877 37.0048 10.2913C36.8554 10.0952 36.7059 9.8991 36.5399 9.71628C36.1979 9.33401 35.8558 8.94842 35.4906 8.58609C35.1386 8.23707 34.78 7.89469 34.345 7.64206C34.0096 7.44926 33.6908 7.22655 33.3554 7.03708C33.0267 6.85425 32.688 6.6947 32.3526 6.52517C31.8877 6.29249 31.4262 6.04983 30.958 5.83044C30.772 5.74401 30.5595 5.71077 30.3636 5.63764C30.1643 5.56451 29.9718 5.47144 29.7725 5.38834C29.394 5.23543 29.0154 5.08585 28.6369 4.93294C28.5572 4.90302 28.4675 4.88973 28.4011 4.84319C28.0226 4.56729 27.5643 4.50746 27.136 4.3745C26.9002 4.30137 26.6412 4.30137 26.3955 4.25151C25.9638 4.16508 25.5388 4.05871 25.1071 3.97893C24.8713 3.93572 24.6289 3.9324 24.3898 3.9058C24.1275 3.87589 23.8685 3.82603 23.6062 3.80608C23.3604 3.78946 23.1081 3.80608 22.8624 3.79611C22.5137 3.77949 22.1684 3.74292 21.823 3.72963C21.481 3.71633 21.139 3.71633 20.7969 3.72298C20.2756 3.73628 19.751 3.7529 19.2296 3.78281C18.9706 3.79611 18.7149 3.84265 18.4592 3.88254C17.815 3.98226 17.1675 4.07866 16.5267 4.195C16.2344 4.24818 15.9522 4.34791 15.6633 4.42103C15.4508 4.47422 15.2349 4.5274 15.0158 4.57062C14.5044 4.67034 14.0063 4.8166 13.5248 5.01937C13.1596 5.17227 12.7744 5.27532 12.4025 5.41161C12.1435 5.50801 11.8911 5.62435 11.6354 5.73072C11.6122 5.74069 11.5889 5.75399 11.5624 5.76396C11.2967 5.8803 11.0244 5.96673 10.7754 6.13293C10.5595 6.27919 10.2972 6.35564 10.0648 6.47863C9.86222 6.58833 9.66962 6.71797 9.47703 6.84761C9.15825 7.05702 8.83615 7.26311 8.52734 7.4825C8.3115 7.63873 8.11558 7.82488 7.90307 7.98444C7.83333 8.03762 7.73372 8.04427 7.64738 8.07751C7.60421 8.09413 7.54444 8.11408 7.52452 8.15064C7.33192 8.46975 7.02975 8.67917 6.75746 8.92182C6.51174 9.14121 6.26933 9.3606 6.02693 9.58331C5.72475 9.86254 5.41262 10.1318 5.12705 10.4276C4.91121 10.6503 4.70865 10.8963 4.5393 11.1589C4.27365 11.5711 4.03457 11.9999 3.80213 12.432C3.57633 12.8542 3.36049 13.283 3.16457 13.7218C3.02511 14.0376 2.92881 14.37 2.80927 14.6957C2.77939 14.7722 2.7329 14.8453 2.71297 14.9251C2.63992 15.201 2.57019 15.4802 2.5071 15.7594C2.48053 15.8725 2.47057 15.9855 2.45729 16.1018C2.41744 16.4209 2.37759 16.74 2.34107 17.0591C2.30454 17.3616 2.24145 17.6641 2.23813 17.9666C2.23813 18.1694 2.13519 18.3788 2.25473 18.5849C2.28794 18.6447 2.26137 18.7411 2.26469 18.8209C2.27133 19.0802 2.2979 19.3361 2.28462 19.5921C2.26469 19.9245 2.38755 20.227 2.4274 20.5461C2.43736 20.6159 2.41412 20.689 2.40748 20.7389C2.50378 20.9151 2.57019 21.0946 2.68973 21.2275C2.80927 21.3605 2.9587 21.4702 3.04503 21.6297L2.97862 21.6929C2.84912 21.5533 2.72294 21.4137 2.56023 21.2408C2.57351 21.3871 2.55691 21.5101 2.59343 21.6098C2.69637 21.8857 2.68641 22.1882 2.83251 22.4574C2.97862 22.7234 3.07492 23.0159 3.18782 23.3017C3.27083 23.5078 3.3306 23.7206 3.4269 23.9167C3.48667 24.0397 3.59293 24.1427 3.71911 24.2425V23.9998C3.71911 23.9998 3.74236 23.9998 3.75564 23.9998C3.83534 24.2823 3.90175 24.5715 3.99804 24.8474C4.04785 24.9904 4.0877 25.1333 4.21056 25.2563C4.32014 25.3693 4.35667 25.5555 4.41976 25.7117C4.5227 25.9676 4.64888 26.2037 4.89461 26.3433C4.91121 26.3366 4.92449 26.3266 4.94109 26.32C4.89793 26.217 4.8614 26.1106 4.80827 26.0109C4.75846 25.9211 4.67213 25.8513 4.62896 25.7582C4.57583 25.6485 4.55258 25.5289 4.53598 25.3992C4.62564 25.5588 4.71197 25.7183 4.80495 25.8746C4.83151 25.9178 4.8614 25.9577 4.88796 26.0009C5.01083 26.1771 5.11709 26.3699 5.26319 26.5228C5.38937 26.6557 5.4259 26.792 5.46907 26.9649C5.5222 27.1909 5.6185 27.4236 5.82105 27.5898C5.91403 27.6662 5.97712 27.7859 6.06678 27.9056C6.04353 28.1682 6.07342 28.2147 6.33907 28.3011C6.44865 28.3377 6.5549 28.371 6.60139 28.5039C6.618 28.5571 6.69105 28.587 6.7309 28.6336C6.77738 28.6867 6.85044 28.7466 6.85376 28.8097C6.8604 28.9527 6.95338 29.0058 7.05299 29.069C7.09616 29.0956 7.12937 29.1421 7.16589 29.1787C7.11941 29.2186 7.07292 29.2618 7.02311 29.3017C7.00983 29.3117 6.99654 29.3183 6.98326 29.325C6.97994 29.3349 6.9733 29.3449 6.9733 29.3549C6.9899 29.428 7.00983 29.5011 7.02975 29.5743C6.9567 29.5676 6.88364 29.5643 6.81059 29.5477C6.72758 29.5311 6.64456 29.4878 6.56155 29.4812C6.5217 29.4779 6.46525 29.5178 6.442 29.5543C6.4254 29.5809 6.442 29.6341 6.44865 29.6939C6.39552 29.6142 6.35567 29.551 6.3125 29.4878C6.25937 29.4114 6.1996 29.3848 6.09666 29.4147C6.00036 29.4446 5.89078 29.428 5.78785 29.4214C5.68823 29.4147 5.58861 29.3948 5.50227 29.3815C5.52552 29.3083 5.59525 29.2119 5.56869 29.1588C5.53216 29.0856 5.42922 29.0391 5.34621 29.0025C5.22334 28.946 5.09052 28.9095 4.96434 28.8629C4.95106 28.8762 4.93777 28.8895 4.92449 28.9028C5.33292 29.3648 5.73804 29.8269 6.14647 30.2889L6.11326 30.3155C6.07342 30.3089 6.03357 30.3022 5.99372 30.2923C5.98708 30.3787 5.98044 30.4518 5.97048 30.5682C6.36895 30.9139 6.78735 31.2795 7.19578 31.6352C7.27215 31.5853 7.33192 31.5621 7.36845 31.5188C7.4083 31.4756 7.44482 31.4158 7.45147 31.3593C7.45147 31.3327 7.38837 31.2828 7.34521 31.2729C7.19578 31.233 7.04635 31.2064 6.89693 31.1665C6.83383 31.1499 6.77738 31.12 6.7309 31.0601C6.91021 31.1033 7.09284 31.1466 7.27215 31.1898C7.37177 31.213 7.47139 31.2429 7.57433 31.2596C7.60421 31.2629 7.6507 31.2396 7.6673 31.213C7.68059 31.1898 7.67062 31.1432 7.65402 31.1133C7.61749 31.0435 7.57101 30.9803 7.54776 30.8939C7.96284 31.1532 8.37791 31.4125 8.79299 31.6718C9.09184 31.8579 9.38737 32.0474 9.67959 32.2402C9.76592 32.2967 9.83897 32.4163 9.92863 32.4263C10.1146 32.4529 10.2474 32.5526 10.3935 32.6457C10.6359 32.8019 10.8816 32.9615 11.1274 33.1144C11.5192 33.3604 11.9143 33.5997 12.3095 33.8424C12.5685 33.9986 12.8242 34.1582 13.0898 34.3011C13.4352 34.4872 13.7872 34.6634 14.1425 34.8363C14.5044 35.0124 14.8697 35.182 15.2349 35.3448C15.6467 35.531 16.0717 35.6972 16.4802 35.8933C16.8488 36.0695 17.2074 36.2756 17.5693 36.4684C17.6025 36.485 17.6324 36.5016 17.7055 36.5382C17.6789 36.4651 17.6623 36.4318 17.6557 36.3953C17.6457 36.3321 17.6391 36.2689 17.6324 36.2058C17.6955 36.2291 17.7619 36.2523 17.825 36.2789C17.9014 36.3122 17.9778 36.3487 18.0508 36.3886C18.1737 36.4551 18.2202 36.382 18.2401 36.2955C18.6518 36.2789 18.6386 36.6446 18.7813 36.8706C18.8312 36.947 18.9075 37.0069 18.9507 37.0867C18.9839 37.1465 19.0105 37.2296 18.9972 37.2894C18.9374 37.5387 18.871 37.7914 18.7913 38.034C18.7448 38.1703 18.6784 38.3033 18.6053 38.4296C18.5257 38.5592 18.4227 38.6756 18.3364 38.8019C18.2633 38.9083 18.2202 39.0246 18.0741 39.0811C17.9944 39.1143 17.9512 39.2407 17.8615 39.367C18.001 39.367 18.0907 39.3703 18.177 39.367C18.4426 39.3504 18.7083 39.2972 18.9739 39.3138C19.4886 39.347 20.0033 39.4268 20.518 39.4733C20.8102 39.4999 21.1091 39.4966 21.4013 39.5199C21.5408 39.5299 21.6736 39.5797 21.8097 39.6063C22.2016 39.6861 22.5934 39.7592 22.9852 39.8423C23.2708 39.9021 23.553 39.972 23.8419 40.0285C24.1507 40.0883 24.4629 40.1282 24.7717 40.1913C24.961 40.2312 25.1436 40.2977 25.3296 40.3509C25.3594 40.3609 25.3893 40.3675 25.4192 40.3708C25.9505 40.4672 26.4818 40.6068 27.0197 40.6434C27.3219 40.6667 27.5776 40.7697 27.8432 40.8661C27.913 40.8927 27.9761 40.9625 28.0192 41.0257C28.089 41.1321 28.1421 41.2251 28.2915 41.2617C28.421 41.2949 28.5306 41.408 28.6468 41.4877C28.7099 41.5343 28.7664 41.5908 28.8295 41.6373C28.8926 41.6838 28.959 41.7204 29.0254 41.7603C29.0055 41.7902 28.9889 41.8201 28.9689 41.8501C28.8859 41.8401 28.8029 41.8334 28.7199 41.8201C28.4542 41.7769 28.4244 41.7935 28.3247 42.0395C28.2749 42.1625 28.2118 42.2523 28.0724 42.1658C27.9229 42.2988 27.9063 42.4451 27.9761 42.6246C27.9462 42.6046 27.9163 42.5847 27.8599 42.5514C27.8565 42.6046 27.8433 42.6445 27.8499 42.6777C27.9063 42.9171 27.7005 43.3592 27.468 43.3658C27.219 43.3758 27.1194 43.542 26.96 43.6517C26.9102 43.6849 26.8271 43.675 26.7541 43.6849C26.7939 43.7315 26.8305 43.7747 26.8637 43.8079C26.7176 43.901 26.5947 43.9941 26.4552 44.0639C26.3955 44.0938 26.2959 44.0905 26.2394 44.0572C26.08 43.9642 25.9273 44.0041 25.7745 44.0506C25.7446 44.0572 25.738 44.1403 25.7147 44.2068C25.5388 44.1935 25.3229 44.1802 25.1071 44.1669C25.0872 44.1669 25.0639 44.1769 25.0506 44.1869C24.9377 44.2799 24.8348 44.2234 24.7617 44.1403C24.6654 44.0306 24.5891 43.9741 24.4662 44.1104C24.423 44.157 24.35 44.1736 24.3168 44.1935C24.0478 44.1603 23.7954 44.127 23.5597 44.0971C23.4468 44.3331 23.7091 44.3365 23.739 44.4761C23.6361 44.5359 23.5232 44.2966 23.4302 44.5326C23.4567 44.5425 23.4999 44.5558 23.5431 44.5725C23.3937 44.6157 23.2774 44.6489 23.1512 44.6855C23.1512 44.722 23.1546 44.7619 23.1579 44.8051C23.1413 44.8118 23.128 44.8184 23.1247 44.8151C22.9919 44.7453 22.8856 44.6124 22.7063 44.6489C22.6864 44.6522 22.6598 44.6157 22.6366 44.5957C22.6133 44.5791 22.5901 44.5459 22.5635 44.5459C22.4041 44.5359 22.2414 44.5359 22.0787 44.5259C22.0289 44.5259 21.9791 44.5027 21.9293 44.4927C21.8463 44.4727 21.7599 44.4561 21.6769 44.4262C21.6271 44.4096 21.5872 44.3697 21.5408 44.3398C21.4777 44.2966 21.4013 44.2068 21.3515 44.2201C21.2054 44.2534 21.0327 44.2234 20.9165 44.3597C20.8899 44.3896 20.8401 44.4096 20.8003 44.4129C20.5711 44.4428 20.342 44.4694 20.1129 44.4993L20.1029 44.5592C20.1527 44.5991 20.2026 44.6356 20.2723 44.6888C20.3055 44.6423 20.3354 44.5991 20.3619 44.5558C20.3619 44.5725 20.3686 44.5924 20.3719 44.609C20.5379 44.6323 20.7073 44.6522 20.8733 44.6788C20.9563 44.6955 21.0427 44.7187 21.119 44.7553C21.2452 44.8184 21.3614 44.7819 21.4113 44.609C21.4544 44.6822 21.481 44.7254 21.5142 44.7786C21.5872 44.7952 21.6769 44.8218 21.7699 44.8417C22.0289 44.9015 22.2846 44.9714 22.5469 45.0179C22.6764 45.0412 22.8125 45.0112 22.9454 45.0179C22.9919 45.0179 23.0417 45.0378 23.0815 45.0611C23.1346 45.0943 23.1811 45.1376 23.2309 45.1774C23.2309 45.1608 23.2376 45.1442 23.2409 45.1243C23.3438 45.1309 23.4501 45.1409 23.553 45.1409C23.7855 45.1409 23.9681 45.3137 24.2205 45.2905C24.4363 45.2738 24.6621 45.3968 24.8846 45.4533C25.0174 45.4866 25.1502 45.5099 25.2831 45.5431C25.3495 45.5597 25.4126 45.583 25.479 45.5996C25.5686 45.6262 25.6649 45.6428 25.7513 45.6794C25.821 45.7093 25.8775 45.7658 25.9472 45.8024C25.997 45.829 26.0501 45.8489 26.1033 45.8622C26.4918 45.9486 26.8836 46.0284 27.2721 46.1182C27.375 46.1414 27.468 46.2146 27.571 46.2544C27.6208 46.2744 27.6772 46.2677 27.7304 46.2711C27.747 46.2711 27.7702 46.2644 27.7735 46.2711C27.8366 46.3907 27.9595 46.3442 28.0524 46.3774C28.2882 46.4605 28.5107 46.5869 28.7398 46.6832C28.8826 46.7431 29.032 46.7896 29.1781 46.8362C29.3641 46.8993 29.5534 46.9558 29.7393 47.0157C29.7526 47.019 29.7692 47.029 29.7792 47.0389C29.9087 47.1519 30.0382 47.265 30.171 47.3747C30.3735 47.5409 30.3437 47.8434 30.1079 47.973C30.0813 47.9863 30.0514 48.0129 30.0448 48.0395C30.0182 48.1259 29.9618 48.1226 29.8854 48.1425C29.7592 48.1791 29.6364 48.2688 29.5368 48.3619C29.3774 48.5115 29.2445 48.691 29.0852 48.8439C28.9955 48.9303 28.8627 48.9702 28.856 49.1231C28.856 49.1829 28.8394 49.2461 28.8361 49.286C28.7664 49.3458 28.7132 49.4023 28.6468 49.4456C28.5738 49.4954 28.4974 49.5519 28.4177 49.5685C28.2152 49.6151 28.2118 49.6084 28.2517 49.8145C28.0458 49.8644 27.8731 49.8112 27.6872 49.7148C27.4846 49.6118 27.2522 49.5652 27.0197 49.6483C26.9135 49.6849 26.7939 49.7015 26.6976 49.7613C26.5416 49.8544 26.3988 49.9774 26.2095 49.8345C26.1996 49.8278 26.1697 49.8278 26.163 49.8345C26.0335 50.0173 25.8144 49.8677 25.6616 49.9708C25.6317 49.9907 25.5321 49.9275 25.4757 49.8877C25.4093 49.8378 25.3661 49.7946 25.2964 49.8877C25.2665 49.9242 25.1835 49.9575 25.1502 49.9408C24.941 49.8411 24.785 49.9973 24.6057 50.0372C24.5758 50.0439 24.5393 50.0638 24.5193 50.0539C24.2603 49.9209 24.008 50.0539 23.7556 50.0738C23.6394 50.0838 23.5597 50.0671 23.4866 50.004C23.3339 49.871 23.1679 49.7946 22.9653 49.8378C22.8424 49.8644 22.7162 49.9009 22.6067 49.9608C22.4705 50.0339 22.3543 49.994 22.2514 49.9176C22.1086 49.8145 21.9824 49.748 21.7865 49.7946C21.5507 49.8478 21.305 49.8478 21.0626 49.8677C21.0559 49.8677 21.0493 49.8677 21.046 49.8677C20.7505 50.0904 20.5114 49.8178 20.2457 49.7746C20.0863 49.748 19.9303 49.6616 19.7742 49.6616C19.5418 49.6616 19.3292 49.6649 19.1001 49.5785C18.9241 49.512 18.705 49.5386 18.5091 49.5619C18.353 49.5818 18.2168 49.5552 18.0774 49.4987C18.0442 49.4854 17.9944 49.4821 17.9612 49.4987C17.7486 49.6018 17.5262 49.5951 17.3004 49.5985C17.1908 49.5985 17.0779 49.6417 16.9716 49.6816C16.9484 49.6882 16.9318 49.7547 16.9351 49.7913C16.9351 49.8112 16.9882 49.8345 17.0181 49.8378C17.1443 49.8611 17.2705 49.8744 17.3933 49.9209C17.2173 49.9209 17.0447 49.9209 16.8687 49.9209C16.7724 49.9209 16.6761 49.9142 16.5798 49.9176C16.5433 49.9176 16.5001 49.9408 16.4702 49.9275C16.344 49.8744 16.2876 49.9342 16.2145 50.0339C16.178 50.0838 16.0585 50.0871 15.9754 50.0904C15.9456 50.0904 15.8991 50.0206 15.8924 49.9807C15.8625 49.8278 15.6733 49.7248 15.5305 49.8012C15.4508 49.8444 15.3943 49.8677 15.298 49.8278C15.2383 49.8012 15.142 49.8444 15.0689 49.8744C14.9759 49.9109 14.8929 49.9309 14.8298 49.8411C14.7468 49.7214 14.6671 49.6084 14.4911 49.6417C14.448 49.6483 14.4015 49.6217 14.3384 49.6084C14.3118 49.7447 14.2886 49.8777 14.2687 49.9874C14.1557 49.9342 14.0595 49.891 13.9665 49.8478C14.0362 49.7547 14.1259 49.635 14.2188 49.5054C14.1093 49.3259 14.1259 49.1298 14.1823 48.9303C14.1989 48.8705 14.2122 48.804 14.2056 48.7442C14.1856 48.5613 14.252 48.4517 14.4114 48.3785C14.5277 48.3253 14.6406 48.2555 14.7402 48.1758C14.8298 48.1059 14.9062 48.0794 15.0158 48.1226C15.1187 48.1625 15.1951 48.1292 15.298 48.0627C15.5371 47.9098 15.6865 47.6339 15.992 47.5841C16.0352 47.5774 16.0983 47.5675 16.1215 47.5907C16.3042 47.7835 16.5167 47.7735 16.7491 47.717C16.8056 47.7037 16.882 47.7204 16.9318 47.7536C17.0513 47.8334 17.1576 47.8068 17.2439 47.7004C17.2937 47.6406 17.3834 47.5974 17.4631 47.5807C17.6291 47.5442 17.7984 47.5209 17.9645 47.5143C18.1073 47.5076 18.2534 47.5176 18.3962 47.5409C18.5522 47.5675 18.7083 47.6439 18.8212 47.4578C18.8345 47.4345 18.8776 47.4145 18.9042 47.4179C19.0204 47.4378 19.1366 47.4578 19.2462 47.4976C19.4255 47.5641 19.5949 47.6206 19.7974 47.5741C19.8838 47.5542 19.99 47.624 20.0897 47.6472C20.1561 47.6605 20.2225 47.6605 20.2889 47.6738C20.4217 47.6971 20.5545 47.7337 20.6907 47.7503C20.7637 47.7569 20.8401 47.7303 20.9231 47.7204C20.9829 47.737 21.0626 47.7602 21.139 47.7735C21.2618 47.7968 21.3847 47.8234 21.5109 47.84C21.8861 47.8932 22.2613 47.9497 22.6366 47.9896C22.8823 48.0162 23.1313 48.0195 23.3804 48.0395C23.4601 48.0461 23.5364 48.086 23.6128 48.0827C23.6593 48.0827 23.6991 48.0228 23.749 47.9996C23.7988 47.9763 23.8519 47.963 23.9183 47.9397C23.8984 47.8999 23.8785 47.86 23.8652 47.8334C24.1341 47.8932 24.4131 47.9564 24.692 48.0095C24.7817 48.0262 24.878 48.0129 24.9709 48.0095C24.9875 48.0095 25.0141 47.9796 25.0108 47.9697C25.0075 47.9431 24.9942 47.8965 24.9743 47.8932C24.8614 47.86 24.7451 47.8367 24.6256 47.8134C24.5691 47.8035 24.5094 47.8168 24.4562 47.8001C24.091 47.6639 23.7357 47.5043 23.3671 47.388C22.9719 47.265 22.5668 47.1885 22.165 47.0921C22.1451 47.0888 22.1252 47.0921 22.0687 47.0855C22.1086 47.132 22.1252 47.1619 22.1517 47.1752C22.3609 47.2749 22.5701 47.3846 22.786 47.4644C22.9288 47.5176 23.0882 47.5276 23.2376 47.5508C23.2808 47.5575 23.3472 47.5375 23.3704 47.5608C23.4866 47.6805 23.6261 47.6871 23.7755 47.6605C23.7921 47.6605 23.812 47.6738 23.8619 47.6938C23.6792 47.7469 23.5597 47.8301 23.3804 47.7204C23.2276 47.6273 23.0317 47.6173 22.8524 47.5675C22.7329 47.5342 22.6133 47.4976 22.4938 47.4644C22.2049 47.3846 21.9193 47.3049 21.6304 47.2251C21.5806 47.2118 21.5142 47.1885 21.4743 47.2085C21.2519 47.3181 21.0427 47.1752 20.8268 47.1719C20.5147 47.1652 20.1992 47.0622 19.8871 47.0655C19.5451 47.0655 19.2263 46.9425 18.8909 46.9359C18.7647 46.9359 18.6386 46.9891 18.5124 47.0157C18.4792 47.0223 18.446 47.0422 18.4161 47.0389C18.167 47.0057 17.918 46.9558 17.6656 46.9392C17.5527 46.9326 17.4763 46.886 17.3933 46.8295C17.576 46.8628 17.7553 46.9026 17.9379 46.9292C18.0076 46.9392 18.0807 46.906 18.1537 46.896C18.1504 46.8827 18.1471 46.8694 18.1438 46.8561C18.0774 46.8528 18.0076 46.8594 17.9446 46.8395C17.7818 46.7863 17.6225 46.7065 17.4564 46.66C17.317 46.6201 17.1709 46.6101 17.0247 46.5968C17.0015 46.5968 16.9749 46.64 16.955 46.66C17.1177 46.7231 17.2605 46.7796 17.4 46.8362C17.2273 46.8029 17.0546 46.763 16.882 46.7398C16.8255 46.7331 16.7591 46.7763 16.6993 46.7996C16.7491 46.8528 16.7923 46.9159 16.8488 46.9591C16.8786 46.9824 16.9284 46.9824 16.9949 46.999C16.6993 47.1121 16.447 47.0356 16.1913 46.9758C16.0917 46.9525 15.9489 47.0622 15.9024 46.8827C16.0352 46.8129 16.0551 46.7065 15.9688 46.5802C15.9356 46.5337 15.9123 46.4805 15.8957 46.424C15.816 46.1713 15.5438 46.0716 15.3279 46.2179C15.225 46.2877 15.1386 46.2844 15.0789 46.168C15.0257 46.065 14.9593 46.0417 14.8464 46.0783C14.8099 46.0916 14.7335 46.0484 14.7103 46.0085C14.6173 45.8456 14.531 45.6794 14.4546 45.5065C14.4314 45.4567 14.4247 45.3603 14.4546 45.3304C14.5509 45.2373 14.531 45.1276 14.531 45.0179C14.531 44.9015 14.5409 44.7852 14.521 44.6722C14.5111 44.6124 14.4579 44.5492 14.4048 44.516C14.3749 44.496 14.3052 44.516 14.2587 44.5326C14.1923 44.5592 14.1259 44.5891 14.0727 44.6356C14.0196 44.6788 13.9831 44.742 13.9333 44.8018C13.9067 44.6456 13.9864 44.5592 14.1026 44.4927C14.2886 44.3896 14.3483 44.2733 14.3019 44.0672C14.2919 44.0207 14.2421 43.9808 14.2122 43.9376C14.252 43.891 14.3019 43.8279 14.355 43.768C14.3749 43.7448 14.4048 43.7115 14.4247 43.7149C14.6173 43.7581 14.697 43.5919 14.8232 43.5088C14.8697 43.4755 14.9427 43.4622 14.9992 43.4689C15.2117 43.5021 15.3678 43.3592 15.3279 43.1498C15.2648 42.8174 15.1885 42.4883 15.2316 42.1426C15.2549 41.9631 15.2051 41.7736 15.1752 41.5875C15.1719 41.5575 15.1121 41.5176 15.0789 41.5176C15.0058 41.5176 14.9328 41.5376 14.8398 41.5509C14.8464 41.6207 14.8498 41.6905 14.8597 41.7902C14.7734 41.7437 14.697 41.7038 14.6206 41.6606C14.6538 41.6373 14.6837 41.6107 14.7269 41.5775C14.6904 41.4811 14.6472 41.3714 14.604 41.2617C14.624 41.2617 14.6406 41.2683 14.6605 41.2683C14.7003 41.2118 14.7369 41.1553 14.7767 41.1021C14.8066 41.1221 14.8365 41.1454 14.8431 41.152C14.8298 41.2351 14.8199 41.3149 14.8099 41.3913H15.0955C15.1121 41.1287 14.9892 40.9825 14.7667 40.8661C14.7568 40.9426 14.7535 40.9924 14.7468 41.0423L14.7634 41.0157ZM19.7045 29.5344C19.7344 29.5842 19.7476 29.6208 19.7742 29.6474C19.9004 29.7903 20.0299 29.9333 20.1594 30.0762C20.2457 30.1693 20.3188 30.2823 20.4682 30.2889C20.4981 30.2889 20.5247 30.3388 20.5512 30.3687C20.6874 30.5183 20.8003 30.6945 20.9597 30.8141C21.3116 31.0834 21.6835 31.3294 22.0455 31.5853C22.2215 31.7083 22.3842 31.8479 22.6133 31.8812C22.7162 31.8945 22.8291 31.9543 22.9122 32.0241C23.2475 32.3233 23.5995 32.5992 24.0113 32.7953C24.2935 32.9316 24.5824 33.0114 24.8946 33.0014C24.9975 32.9981 25.0739 32.9017 25.0174 32.8186C24.9112 32.659 24.7717 32.5194 24.6422 32.3731C24.5857 32.31 24.516 32.2568 24.4596 32.1936C24.35 32.0706 24.2504 31.9377 24.1341 31.818C24.0445 31.7249 23.9349 31.6551 23.8486 31.5654C23.6394 31.3493 23.4302 31.1299 23.2376 30.9006C23.1147 30.7543 23.0118 30.5914 22.9122 30.4286C22.8856 30.3853 22.9088 30.3155 22.9088 30.259L22.9553 30.2524C23.5232 31.3094 24.4596 31.9609 25.4491 32.5593C25.5587 32.3765 25.552 32.3465 25.3827 32.2834C25.3561 32.2734 25.3229 32.2634 25.3063 32.2402C25.1469 32.0573 24.9643 31.8878 24.8448 31.6817C24.7617 31.5355 24.6721 31.4391 24.526 31.4025C24.4396 31.4357 24.3334 31.4923 24.267 31.4623C24.1043 31.3925 23.9216 31.3393 23.8419 31.1432C23.8087 31.0568 23.7622 30.9704 23.7025 30.9006C23.5597 30.741 23.4136 30.5881 23.2542 30.4418C23.0417 30.2491 22.7926 30.0961 22.6399 29.8402C22.62 29.8036 22.5801 29.7671 22.5403 29.7538C22.3277 29.684 22.2148 29.5011 22.0721 29.3516C22.0189 29.2984 21.9425 29.2685 21.8761 29.2319C21.8662 29.2252 21.8529 29.2219 21.833 29.2119C21.8728 29.1887 21.906 29.1721 21.9193 29.1654C21.7167 28.9759 21.5341 28.8097 21.3548 28.6435C21.2386 28.5338 21.1556 28.3942 21.0095 28.3011C20.7637 28.1482 20.5512 27.9455 20.3254 27.756C20.0299 27.5067 19.7543 27.2374 19.4189 27.0446C19.3624 27.0114 19.2894 26.9516 19.2794 26.8951C19.2529 26.7322 19.1167 26.7189 19.0071 26.6657C18.9441 26.6325 18.8876 26.5859 18.8311 26.5394C18.7946 26.5061 18.7714 26.4563 18.7349 26.4264C18.6087 26.3266 18.4725 26.2435 18.353 26.1405C18.1438 25.9544 17.9445 25.7549 17.7387 25.5654C17.7121 25.5388 17.6656 25.5322 17.6291 25.5189C17.6291 25.5521 17.6225 25.5821 17.6191 25.6153C17.6191 25.8646 17.8881 26.0474 17.7885 26.32C17.7885 26.3266 17.7951 26.3366 17.8018 26.3466C17.8881 26.4663 17.9811 26.5793 18.0641 26.7023C18.1139 26.7754 18.177 26.8485 18.1903 26.9283C18.2069 27.0247 18.2467 27.0679 18.3364 27.0845C18.4592 27.1111 18.5057 27.2042 18.4692 27.3073C18.4327 27.4136 18.4825 27.4269 18.5555 27.4668C18.6319 27.51 18.7083 27.5765 18.7481 27.6496C18.8311 27.7959 18.881 27.9588 18.9573 28.1083C18.9939 28.1815 19.0669 28.2347 19.1134 28.3011C19.2097 28.4408 19.2861 28.5903 19.3923 28.72C19.5218 28.8729 19.6746 29.0058 19.8107 29.1521C19.9834 29.3349 20.1494 29.5211 20.3254 29.7006C20.445 29.8236 20.5778 29.9333 20.704 30.0529C20.953 30.2889 21.1921 30.5316 21.4478 30.7576C21.6304 30.9205 21.8363 31.0568 22.0355 31.1997C22.0687 31.223 22.1152 31.2297 22.1584 31.2463C22.2016 31.2596 22.248 31.2695 22.2812 31.2928C22.5801 31.4856 22.8723 31.6884 23.1745 31.8778C23.3173 31.9676 23.4733 32.0341 23.6161 32.1205C23.7755 32.2169 23.9017 32.3632 24.0843 32.4197C24.1109 32.4263 24.1209 32.4762 24.1408 32.5061C24.1275 32.5194 24.1142 32.5327 24.1009 32.5427C24.0212 32.4862 23.9415 32.4263 23.8585 32.3765C23.7357 32.3 23.6095 32.2335 23.4899 32.1604C23.3704 32.0873 23.2575 32.0075 23.138 31.9377C22.9819 31.8479 22.8192 31.7682 22.6664 31.6784C22.444 31.5454 22.2215 31.4092 22.0023 31.2662C21.9492 31.2297 21.9127 31.1665 21.8695 31.12C21.8429 31.09 21.7898 31.0369 21.7832 31.0402C21.6769 31.12 21.6437 31.0069 21.5839 30.9671C21.5042 30.9139 21.4312 30.8441 21.3448 30.8042C21.1024 30.6945 20.8999 30.5316 20.7139 30.3454C20.6475 30.279 20.601 30.1892 20.528 30.1394C20.3453 30.0164 20.1793 29.8867 20.0432 29.7006C19.9834 29.6175 19.8971 29.4712 19.7011 29.5277L19.7045 29.5344ZM19.824 43.2462C19.8639 43.2495 19.9037 43.2428 19.9303 43.2595C20.0498 43.3392 20.1627 43.3193 20.2989 43.2993C20.445 43.2761 20.601 43.2993 20.7471 43.2462C20.7637 43.2395 20.7837 43.2561 20.8036 43.2595C20.8932 43.2761 20.9862 43.306 21.0759 43.3027C21.1987 43.3027 21.3482 43.2262 21.4345 43.2761C21.6271 43.3858 21.75 43.2694 21.8894 43.1963C22.0588 43.3858 22.2016 43.3592 22.5934 43.0434C22.4506 43.0367 22.3244 43.05 22.2082 43.0201C22.0156 42.9703 21.8263 42.8938 21.6371 42.8307C21.564 42.8074 21.4677 42.7542 21.4179 42.7841C21.3316 42.8307 21.2751 42.7974 21.1987 42.7908C21.036 42.7741 20.8401 42.6478 20.7305 42.8938C20.7239 42.9104 20.6973 42.9271 20.684 42.9237C20.5877 42.9038 20.4981 43.0135 20.3952 42.937C20.3852 42.9304 20.3487 42.9536 20.2889 42.9802C20.4914 43.0234 20.6575 43.06 20.8235 43.0966C20.8235 43.1099 20.8169 43.1232 20.8135 43.1365C20.5579 43.0899 20.3055 43.0401 20.0465 43.0035C19.8805 42.9802 19.8174 43.0534 19.824 43.2428V43.2462ZM17.8549 19.3328C17.8649 19.5023 18.4659 19.8879 18.7116 19.8846C18.5124 19.5622 18.1737 19.4757 17.8549 19.3328ZM23.1413 43.0999C23.2542 43.173 23.3372 43.2495 23.4335 43.2761C23.5032 43.296 23.5929 43.2528 23.6759 43.2395C23.6593 43.1996 23.6527 43.1331 23.6228 43.1232C23.5232 43.0833 23.4169 43.0534 23.3106 43.0401C23.2608 43.0334 23.2011 43.0766 23.1413 43.0999ZM21.5408 44.855C21.3415 44.8052 21.1821 44.7619 21.0227 44.722C20.9929 44.8417 21.0227 44.8982 21.119 44.9015C21.2054 44.9049 21.2917 44.9016 21.378 44.8982C21.4245 44.8949 21.4677 44.875 21.5408 44.855ZM16.4138 49.4555C16.3673 49.389 16.3341 49.3292 16.2909 49.276C16.271 49.2528 16.2344 49.2428 16.2079 49.2295C16.1913 49.2627 16.1614 49.2926 16.1581 49.3259C16.1481 49.4356 16.2344 49.4788 16.4171 49.4555H16.4138ZM27.6839 20.0342C27.6673 20.0209 27.6507 20.0043 27.6341 19.991C27.5245 20.0408 27.4448 20.114 27.4448 20.3001C27.5411 20.1937 27.6141 20.114 27.6839 20.0342Z" fill="url(#paint0_linear_3707_508)"/>
</g>
<defs>
<linearGradient id="paint0_linear_3707_508" x1="43.7" y1="50.0904" x2="-10.6027" y2="18.1792" gradientUnits="userSpaceOnUse">
<stop stop-color="#90660E"/>
<stop offset="1" stop-color="#D8BA67"/>
</linearGradient>
<clipPath id="clip0_3707_508">
<rect width="146" height="50.0571" fill="white"/>
</clipPath>
</defs>
</svg>
