<svg width="146" height="56" viewBox="0 0 146 56" fill="none" xmlns="http://www.w3.org/2000/svg">
<g clip-path="url(#clip0_3707_508)">
<path d="M65.5916 21.1849C65.5916 23.0464 65.9369 23.6148 66.4749 23.7411C66.8202 23.8375 67.2951 23.9007 67.7068 23.8043L67.7367 24.1832C67.0128 24.6553 66.1893 25.0674 64.9275 25.0674C63.6656 25.0674 63.2539 24.4026 62.9716 23.0464C62.0253 23.678 60.3517 25.0674 58.4922 25.0674C55.6198 25.0674 54.3281 23.0464 54.3281 20.8359C54.3281 19.4165 54.959 18.2465 57.1041 17.5816C59.4385 16.857 62.2477 16.0991 63.0048 15.3412V13.729C63.0048 11.3922 61.9655 10.3186 60.355 10.3186C58.7445 10.3186 57.672 11.359 57.3897 13.729C57.3266 14.1711 57.1672 14.3606 56.5695 14.3606C55.9718 14.3606 54.8661 13.9817 54.8661 13.0343C54.8661 11.5185 57.2303 9.75014 60.6705 9.75014C65.1798 9.75014 65.5916 12.0238 65.5916 13.7922V21.1816V21.1849ZM63.0048 16.0692C62.3407 16.5113 60.7003 17.0498 59.5049 17.5218C57.8944 18.0902 57.2635 18.9744 57.2635 20.3971C57.2635 22.1323 58.3361 23.7777 60.1657 23.7777C61.2682 23.7777 63.0048 23.2392 63.0048 20.9024V16.0692Z" fill="white"/>
<path d="M81.5836 20.7428C80.7302 23.9639 78.1136 25.0674 75.9684 25.0674C71.5188 25.0674 69.2476 22.478 69.2476 17.5185C69.2476 13.5695 70.951 9.75014 76.3138 9.75014C79.5945 9.75014 81.298 11.2992 81.298 12.6554C81.298 13.7922 80.4147 14.2011 79.7838 14.2011C79.1529 14.2011 78.9636 14.0116 78.8374 13.5063C78.4921 11.8642 77.9542 10.3784 75.9684 10.3784C73.9827 10.3784 72.2759 12.4626 72.2759 17.0099C72.2759 19.9151 73.1592 23.801 76.596 23.801C78.7113 23.801 80.2885 22.9799 81.1718 20.5467L81.5836 20.7362V20.7428Z" fill="white"/>
<path d="M86.5381 16.857C86.4751 19.985 87.2654 23.8376 90.9247 23.8376C93.9232 23.8376 94.8064 21.8797 95.3743 20.457L95.8458 20.6797C95.1518 22.9866 93.5446 25.0708 90.2605 25.0708C85.2763 25.0708 83.5098 22.1988 83.5098 17.5218C83.5098 13.1008 85.5287 9.75349 90.2307 9.75349C95.6565 9.75349 96.0052 13.985 96.0052 15.7534C96.0052 16.2919 95.8458 16.8604 94.7732 16.8604H86.5381V16.857ZM91.964 16.1623C93.0034 16.1623 93.1295 15.4975 93.1295 14.6133C93.1295 13.4133 92.844 10.3817 90.0381 10.3817C86.9466 10.3817 86.5381 14.8992 86.5381 16.1623H91.964Z" fill="white"/>
<path d="M111.994 22.0991C111.994 23.8043 112.09 23.9306 114.042 24.0868V24.6885H107.165V24.0868C109.151 23.9605 109.281 23.8342 109.281 22.0991V14.5833C109.281 12.0903 108.112 11.0798 106.219 11.0798C104.675 11.0798 103.254 11.9307 102.782 12.9113C102.53 13.3833 102.467 13.7955 102.467 14.5202V22.0991C102.467 23.8342 102.623 23.9306 104.549 24.0868V24.6885H97.7017V24.0868C99.6276 23.9605 99.7538 23.8043 99.7538 22.0991V12.7817C99.7538 11.4554 99.6907 11.2659 98.7742 11.1396L97.8278 11.0432V10.5379L102.025 9.78005L102.437 12.087C104.296 10.9169 105.654 9.75014 107.8 9.75014C110.546 9.75014 111.997 11.4853 111.997 14.4869V22.0991H111.994Z" fill="white"/>
<path d="M125.369 2.92912L124.077 2.77289V2.29755L128.935 1.76237L129.032 1.82553V22.2885C129.032 23.7744 129.128 23.9007 131.05 24.0901V24.6918H126.285V22.9533C124.678 24.2497 123.227 25.0707 121.617 25.0707C117.735 25.0707 115.686 22.355 115.686 17.7146C115.686 15.1251 116.476 13.134 117.735 11.8077C118.997 10.5113 120.637 9.75676 123.068 9.75676C124.423 9.75676 125.495 10.0393 126.315 10.4515V4.57454C126.315 3.24823 126.096 3.02552 125.369 2.93245V2.92912ZM126.315 13.8254C126.315 13.0343 126.285 12.5922 126.033 12.0903C125.528 10.9534 124.426 10.385 123.068 10.385C120.102 10.385 118.714 13.4498 118.714 17.3656C118.714 20.776 120.102 23.8076 122.782 23.8076C124.263 23.8076 125.525 23.4619 126.096 21.976C126.285 21.4708 126.315 20.9655 126.315 20.3007V13.8254Z" fill="white"/>
<path d="M143.855 21.1849C143.855 23.0464 144.2 23.6148 144.738 23.7411C145.083 23.8375 145.558 23.9007 145.97 23.8043L146 24.1832C145.276 24.6553 144.456 25.0674 143.191 25.0674C141.926 25.0674 141.517 24.4026 141.235 23.0464C140.288 23.678 138.615 25.0674 136.755 25.0674C133.886 25.0674 132.591 23.0464 132.591 20.8359C132.591 19.4165 133.222 18.2465 135.367 17.5816C137.702 16.857 140.508 16.0991 141.265 15.3412V13.729C141.265 11.3922 140.225 10.3186 138.615 10.3186C137.004 10.3186 135.935 11.359 135.65 13.729C135.586 14.1711 135.427 14.3606 134.829 14.3606C134.232 14.3606 133.126 13.9817 133.126 13.0343C133.126 11.5185 135.49 9.75014 138.93 9.75014C143.44 9.75014 143.851 12.0238 143.851 13.7922V21.1816L143.855 21.1849ZM141.268 16.0692C140.604 16.5113 138.967 17.0498 137.768 17.5218C136.161 18.0902 135.527 18.9744 135.527 20.3971C135.527 22.1323 136.599 23.7777 138.429 23.7777C139.535 23.7777 141.268 23.2392 141.268 20.9024V16.0692Z" fill="white"/>
<path d="M63.194 41.0163C62.5631 38.49 61.4573 36.9743 59.3753 36.9743C57.8943 36.9743 56.8517 38.018 56.8517 39.5637C56.8517 41.3953 58.2729 41.9969 60.0361 42.5953C63.0346 43.6689 64.675 44.4268 64.675 47.0495C64.675 49.6722 62.4336 51.66 58.9005 51.66C57.0708 51.66 55.716 51.1547 54.7066 50.6794L54.3911 46.3548H54.9589C55.5566 48.8811 56.8816 51.0617 59.2491 51.0617C60.8264 51.0617 62.2476 50.2406 62.2476 48.3758C62.2476 46.6706 60.9227 45.8495 59.0632 45.1847C56.5694 44.3637 54.5837 43.3531 54.5837 40.89C54.5837 38.0479 56.6657 36.3427 59.8203 36.3427C61.3345 36.3427 62.7856 36.7515 63.7021 37.1936V41.0163H63.1973H63.194Z" fill="white"/>
<path d="M77.6419 51.281L77.3597 49.3564C76.3502 50.0511 74.4873 51.66 71.9637 51.66C69.7555 51.66 67.9258 50.6195 67.9258 47.2057V39.1847C67.9258 37.9847 67.7665 37.762 66.8201 37.5759L66.063 37.4163V36.9111L70.5425 36.4391L70.6388 36.5321V47.0495C70.6388 49.3564 71.9006 50.3337 73.6373 50.3337C75.1515 50.3337 76.5063 49.7353 77.1372 48.409C77.2933 48.0932 77.3895 47.4617 77.3895 46.6074V39.1847C77.3895 38.1111 77.2634 37.7953 76.317 37.6357L75.4337 37.4795V36.9742L80.0394 36.4391L80.1025 36.5321V48.7547C80.1025 50.3337 80.1656 50.4932 82.0915 50.6794V51.281H77.6419Z" fill="white"/>
<path d="M95.0551 47.7775C95.0551 49.639 95.4004 50.2074 95.9383 50.3337C96.2837 50.4301 96.7585 50.4932 97.1703 50.3968L97.2035 50.7758C96.4763 51.2478 95.6561 51.66 94.3943 51.66C93.1324 51.66 92.724 50.9952 92.4384 49.639C91.4921 50.2705 89.8218 51.66 87.959 51.66C85.09 51.66 83.7949 49.639 83.7949 47.4285C83.7949 46.0091 84.4258 44.839 86.5709 44.1742C88.9053 43.4495 91.7145 42.6917 92.4683 41.9338V40.3216C92.4683 37.9848 91.429 36.9111 89.8185 36.9111C88.208 36.9111 87.1354 37.9515 86.8532 40.3216C86.7901 40.7637 86.6307 40.9532 86.033 40.9532C85.4353 40.9532 84.3295 40.5742 84.3295 39.6269C84.3295 38.1111 86.6938 36.3427 90.1339 36.3427C94.6433 36.3427 95.0551 38.6163 95.0551 40.3847V47.7742V47.7775ZM92.4683 42.6617C91.8042 43.1038 90.1671 43.6423 88.9684 44.1144C87.3612 44.6828 86.727 45.567 86.727 46.9897C86.727 48.7248 87.7996 50.3702 89.6292 50.3702C90.735 50.3702 92.4683 49.8318 92.4683 47.4949V42.6617Z" fill="white"/>
<path d="M111.804 47.3986C110.858 49.6091 109.121 51.6634 106.916 51.6634C105.306 51.6634 104.927 50.4002 105.339 48.6617L109.44 32.0813C109.725 30.9445 109.599 30.7251 108.842 30.6586L107.169 30.4359L107.325 29.7411L112.721 29.0464L112.88 29.1727L108.085 48.4058C107.833 49.3864 107.833 50.018 108.308 50.018C109.035 50.018 110.423 48.2163 111.084 46.89L111.807 47.3953L111.804 47.3986Z" fill="white"/>
<path d="M129.188 36.3759L126.033 48.439C125.781 49.3564 125.718 50.0179 126.316 50.0179C127.106 50.0179 128.524 47.9969 129.125 46.89L129.852 47.3952C128.809 49.6057 127.013 51.66 124.835 51.66C123.257 51.66 122.879 50.3969 123.447 48.3758L124.33 45.2811H124.267C122.467 48.7249 119.502 51.66 116.633 51.66C114.268 51.66 114.013 49.6689 114.644 47.3022L116.663 39.5039C116.915 38.5898 116.948 38.1477 116.221 38.0812L114.421 37.9549L114.577 37.197L120.036 36.3759L120.196 36.5023L117.357 47.4285C116.915 49.1337 117.134 49.9548 118.051 49.9548C120.355 49.9548 123.035 45.9426 124.33 42.9443C125.057 41.2058 125.592 39.7864 126.475 36.7216L129.188 36.3759Z" fill="white"/>
<path d="M137.419 36.7217H140.985C141.836 36.7217 143.602 36.7217 144.077 36.5654L144.392 37.1339C141.52 40.1953 136.536 45.0584 133.73 48.2163V48.2795C134.394 48.3426 135.433 48.5321 136.695 48.911C137.486 49.1637 138.588 49.4163 139.249 49.4163C140.544 49.4163 142.121 48.5653 143.224 46.0058L144.014 46.4147C143.097 49.1637 140.922 51.8163 138.588 51.8163C137.579 51.8163 136.632 51.5304 135.56 51.1215C133.952 50.49 133.258 50.2706 132.721 50.2706C132.027 50.2706 131.396 50.6163 130.921 51.2479C130.891 51.311 130.824 51.4373 130.698 51.4373C130.509 51.4373 130.383 51.2479 130.383 50.8988C130.383 50.4268 130.698 49.8883 131.329 49.1637C134.484 45.5936 137.416 42.6252 141.138 38.869V38.8391H135.935C134.484 38.8391 133.63 40.0391 132.684 41.7443L131.927 41.4286C132.591 39.3776 133.976 37.1638 134.484 36.5654C135.208 36.6618 135.935 36.7217 137.416 36.7217H137.419Z" fill="white"/>
<path d="M14.7634 47.0157C14.5741 46.9127 14.5775 46.9127 14.7003 46.7431C14.7302 46.6999 14.7402 46.6401 14.7601 46.5869C14.9427 46.6534 15.0357 46.6035 15.0523 46.4008C15.0656 46.2512 15.0523 46.1016 15.0523 45.9653C14.9593 46.1282 14.863 46.2977 14.7634 46.4706C14.7335 46.3974 14.707 46.3243 14.6738 46.2479C14.8531 46.1149 14.9128 45.8988 14.7966 45.7393C14.9162 45.6994 14.966 45.6462 14.9228 45.4966C14.8962 45.4069 14.956 45.2805 15.0058 45.1841C15.059 45.0711 15.142 44.9747 15.215 44.8717C15.2881 44.7686 15.3611 44.6656 15.4375 44.5625C15.577 44.3797 15.5604 44.3166 15.3478 44.2135C14.9128 44.0041 14.4812 43.788 14.0428 43.5853C13.6444 43.3991 13.2393 43.2296 12.8441 43.0401C12.4855 42.8673 12.1335 42.6778 11.7749 42.5016C11.4926 42.3587 11.2037 42.2324 10.9248 42.0795C10.7056 41.9598 10.4998 41.8169 10.2873 41.6872C10.1843 41.6241 10.0747 41.5709 9.96516 41.5177C9.57997 41.3316 9.27779 41.0224 8.91585 40.7964C8.64356 40.6269 8.36795 40.464 8.1023 40.2845C7.95952 40.1881 7.83001 40.0684 7.69387 39.962C7.46475 39.7892 7.23231 39.6197 7.00651 39.4435C6.96998 39.4136 6.96666 39.3471 6.94009 39.3005C6.92681 39.2706 6.90357 39.244 6.877 39.2274C6.70433 39.1111 6.5217 39.008 6.35567 38.8817C6.23613 38.792 6.12323 38.6823 6.03025 38.5626C5.91403 38.4097 5.82437 38.2435 5.63842 38.1404C5.53548 38.0839 5.50228 37.9111 5.42922 37.7981C5.33957 37.6618 5.23995 37.5288 5.14365 37.3959C5.06728 37.2961 4.98758 37.1964 4.90457 37.1C4.81823 37.0003 4.71197 36.9139 4.6356 36.8075C4.52934 36.6579 4.45297 36.4917 4.35335 36.3388C4.27697 36.2258 4.17404 36.1327 4.09434 36.023C3.97812 35.8568 3.8619 35.6873 3.76228 35.5111C3.6361 35.2917 3.44683 35.1853 3.21438 35.1222C3.10148 35.0923 2.99522 35.0457 2.88896 34.9992C2.7661 34.9427 2.72626 34.8363 2.76942 34.7034C2.96202 34.7964 3.15461 34.8928 3.34721 34.9892L3.38373 34.9693C3.32728 34.8696 3.27083 34.7698 3.21106 34.6701C3.0716 34.4341 2.92217 34.2047 2.78603 33.9654C2.54694 33.5333 2.2979 33.1045 2.08206 32.6557C1.86622 32.2037 1.69023 31.7283 1.49099 31.2663C1.38806 31.0236 1.26851 30.7876 1.1689 30.5416C1.02943 30.2026 0.889966 29.8602 0.773745 29.5145C0.667486 29.1987 0.57783 28.8763 0.494815 28.5505C0.4118 28.2148 0.35535 27.8724 0.275655 27.5367C0.19264 27.1943 0.225846 26.8253 0.0332517 26.5129C0.0199693 26.4929 0.0199693 26.463 0.0199693 26.4364C-0.0298396 25.8048 -0.00659544 25.1766 0.0930225 24.5517C0.0930225 24.535 0.102984 24.5184 0.0996637 24.5051C0.00336637 24.1794 0.126228 23.8669 0.169396 23.5511C0.222526 23.1555 0.285617 22.76 0.345388 22.3677C0.398517 22.0021 0.458288 21.6398 0.501456 21.2741C0.534662 20.9982 0.597753 20.7124 0.564547 20.4431C0.537982 20.1938 0.650883 20.0076 0.704012 19.7949C0.737218 19.6586 0.727256 19.5124 0.740539 19.3694C0.743859 19.3229 0.74718 19.273 0.763783 19.2331C0.899927 18.924 1.04935 18.6182 1.17886 18.3024C1.32828 17.9368 1.46443 17.5678 1.60721 17.1988C1.61386 17.1855 1.61386 17.1689 1.6205 17.1523C1.68359 17.0226 1.74336 16.893 1.81309 16.7667C1.89943 16.6038 1.99572 16.4476 2.08538 16.2847C2.2182 16.0454 2.33775 15.7961 2.48053 15.5634C2.62996 15.324 2.80263 15.098 2.9587 14.862C3.09152 14.6625 3.21438 14.4498 3.35385 14.2537C3.48999 14.0609 3.64274 13.8814 3.79217 13.6952C3.95488 13.4958 4.11094 13.2897 4.28362 13.1002C4.5393 12.821 4.84148 12.575 5.06728 12.2725C5.37609 11.857 5.84098 11.6376 6.18632 11.2687C6.39219 11.0493 6.67112 10.903 6.91685 10.7202C7.09948 10.5839 7.27215 10.431 7.45811 10.3047C7.64406 10.1784 7.85326 10.082 8.03921 9.95566C8.17536 9.86259 8.28494 9.73295 8.41444 9.62991C8.46757 9.58669 8.5373 9.55678 8.60371 9.52686C8.80295 9.43711 9.0055 9.35401 9.20142 9.26426C9.41726 9.16454 9.6331 9.06814 9.84229 8.95844C9.99504 8.87867 10.1345 8.77562 10.2806 8.68587C10.3437 8.64931 10.4101 8.61939 10.4765 8.58947C10.7621 8.45651 11.0444 8.3169 11.3366 8.19723C11.6852 8.05762 12.0472 7.9446 12.3992 7.80832C12.6117 7.72521 12.8109 7.60887 13.0267 7.52909C13.1596 7.47923 13.319 7.49253 13.4485 7.43602C13.8934 7.24655 14.3716 7.18672 14.8332 7.07037C15.039 7.01719 15.2349 6.92411 15.4342 6.85763C15.5404 6.82439 15.65 6.80112 15.7596 6.7845C16.0651 6.73464 16.3739 6.69808 16.6794 6.64489C16.8786 6.60833 17.0712 6.54185 17.2671 6.5086C17.4365 6.48201 17.6092 6.48866 17.7818 6.46872C17.9645 6.44877 18.1471 6.40888 18.3297 6.38894C18.5622 6.36235 18.7946 6.34905 19.0271 6.33243C19.0702 6.32911 19.1101 6.32911 19.1532 6.31913C19.3292 6.28257 19.5052 6.23603 19.6812 6.21276C19.8605 6.18949 20.0398 6.19282 20.2192 6.18617C20.445 6.17952 20.6674 6.17952 20.8932 6.17287C21.2253 6.1629 21.554 6.14296 21.8861 6.14628C22.0953 6.14628 22.3045 6.18949 22.5137 6.20944C22.5635 6.21276 22.6166 6.20944 22.6664 6.20944C22.9487 6.19282 23.2243 6.20944 23.5066 6.2593C23.812 6.31248 24.1341 6.27592 24.4529 6.27592C24.4928 6.27592 24.5426 6.23936 24.5725 6.25598C24.8481 6.38229 25.1502 6.31581 25.4259 6.37897C25.7015 6.44545 25.9738 6.38561 26.2427 6.43548C26.432 6.47204 26.618 6.53852 26.8072 6.57509C27.1028 6.6316 27.3983 6.66484 27.6938 6.72467C27.9229 6.77121 28.1454 6.84766 28.3712 6.90749C28.6269 6.97397 28.8826 7.03381 29.135 7.11026C29.3143 7.16345 29.4869 7.2399 29.6629 7.30306C29.9518 7.4061 30.244 7.5025 30.5329 7.60555C30.7156 7.67203 30.8982 7.74516 31.0775 7.82161C31.29 7.91136 31.4959 8.02438 31.7117 8.09419C31.8877 8.15402 32.0803 8.16399 32.2663 8.20388C32.3427 8.2205 32.4124 8.25042 32.4888 8.26704C32.5419 8.27701 32.605 8.28698 32.6548 8.27036C32.771 8.23712 32.781 8.17396 32.688 8.09086C32.5718 7.99114 32.4489 7.89807 32.3327 7.80167C32.3095 7.78172 32.2995 7.75181 32.2928 7.67868C32.4257 7.69862 32.5685 7.69862 32.6913 7.74848C32.9636 7.85485 33.2226 7.98449 33.4883 8.10416C33.9731 8.32355 34.4678 8.52299 34.9394 8.76565C35.2747 8.9385 35.5802 9.17783 35.9023 9.3806C36.0717 9.48697 36.2576 9.56675 36.4237 9.67644C36.6295 9.80941 36.8421 9.93904 37.0214 10.1052C37.3866 10.4443 37.732 10.8066 38.0873 11.1557C38.2633 11.3285 38.4492 11.4947 38.6285 11.6642C38.7514 11.7773 38.8809 11.8869 38.9971 12.0066C39.3624 12.3922 39.6945 12.8011 39.9867 13.2465C40.1062 13.426 40.249 13.5922 40.3652 13.775C40.4881 13.9678 40.5943 14.1739 40.7039 14.3767C40.8401 14.6293 40.9596 14.8919 41.1057 15.1412C41.2485 15.3905 41.4245 15.6232 41.5673 15.8725C41.6835 16.072 41.7698 16.2913 41.8694 16.5008C41.979 16.7334 42.0986 16.9628 42.1982 17.2021C42.2646 17.355 42.3011 17.5179 42.3576 17.6775C42.4539 17.9501 42.5701 18.2193 42.6531 18.4985C42.7394 18.7877 42.7992 19.0836 42.8656 19.3761C42.9619 19.8049 43.0582 20.2304 43.1412 20.6592C43.1844 20.8752 43.1944 21.0979 43.2276 21.3173C43.2707 21.6032 43.3272 21.8891 43.3704 22.1783C43.3969 22.3511 43.4102 22.5306 43.4401 22.7035C43.4799 22.9395 43.5729 23.1755 43.5663 23.4115C43.5596 23.6076 43.5962 23.7771 43.636 23.96C43.6559 24.0564 43.6061 24.1661 43.5995 24.2724C43.5895 24.3888 43.5829 24.5084 43.5862 24.6248C43.5862 24.7046 43.6028 24.7877 43.6128 24.9007C43.719 24.9605 43.7124 25.0702 43.6759 25.2165C43.5995 25.5223 43.5397 25.8381 43.4999 26.1505C43.4833 26.2768 43.4766 26.3998 43.4368 26.5261C43.4102 26.6093 43.4501 26.7223 43.4866 26.8153C43.5663 27.0148 43.4102 27.1411 43.3538 27.2973C43.3338 27.3538 43.3106 27.4104 43.294 27.4669C43.2375 27.6663 43.1811 27.8691 43.1346 28.0718C43.1014 28.2148 43.0848 28.361 43.0715 28.5073C43.0582 28.6668 43.0217 28.8065 42.942 28.9527C42.7693 29.2752 42.6365 29.6175 42.4904 29.9533C42.424 30.1028 42.3808 30.2657 42.3011 30.4087C42.2414 30.5117 42.1351 30.5882 42.0587 30.6846C42.0122 30.7444 41.9724 30.8142 41.9458 30.884C41.8396 31.1599 41.7134 31.4192 41.4876 31.6253C41.3548 31.7449 41.2717 31.9178 41.1655 32.064C41.1422 32.0973 41.1124 32.1405 41.0791 32.1505C40.8832 32.2037 40.8367 32.3732 40.7737 32.5294C40.7106 32.689 40.6574 32.8485 40.5977 33.0081C40.591 33.028 40.5777 33.0546 40.5645 33.0579C40.3088 33.0978 40.3054 33.3904 40.1162 33.5C40.0996 33.51 40.0929 33.5499 40.083 33.5499C39.9003 33.5532 39.9103 33.746 39.814 33.8291C39.7409 33.8923 39.6845 33.9787 39.6081 34.0385C39.5019 34.1183 39.3856 34.1815 39.3757 34.3344C39.3757 34.3477 39.3624 34.3676 39.3491 34.3743C39.0968 34.4973 39.0569 34.7599 38.9407 34.9726C38.8975 35.0524 38.8012 35.0989 38.7381 35.1654C38.5688 35.3549 38.3928 35.541 38.2367 35.7438C38.0939 35.9299 37.8382 36.156 37.6888 36.2158C37.5859 36.3853 37.5328 36.5183 37.4431 36.6114C37.2472 36.8075 37.028 36.9837 36.8221 37.1731C36.7424 37.2463 36.676 37.336 36.5997 37.4125C36.5731 37.4424 36.5266 37.4856 36.5 37.479C36.3506 37.4357 36.3373 37.5687 36.2643 37.6352C36.1248 37.7615 36.0518 37.9709 35.8326 37.9975C35.8027 38.0008 35.7728 38.0374 35.7496 38.064C35.5968 38.2402 35.4076 38.3532 35.1784 38.3997C35.1253 38.4097 35.0821 38.4729 35.029 38.5028C34.9526 38.5493 34.8696 38.5859 34.7833 38.6191C34.7069 38.669 34.6272 38.7155 34.5542 38.7687C34.4911 38.8152 34.4346 38.8684 34.3815 38.9216C34.3317 38.9681 34.2885 39.0712 34.2454 39.0679C34.0461 39.0546 33.9631 39.2374 33.8137 39.3005C33.7373 39.3338 33.6643 39.377 33.5912 39.4368C33.5215 39.4701 33.4484 39.5 33.382 39.5366C33.2625 39.603 33.1496 39.6795 33.03 39.736C32.9105 39.7958 32.7777 39.8291 32.6548 39.8889C32.5386 39.9454 32.439 40.0285 32.3227 40.0817C32.1235 40.1748 31.9143 40.2512 31.7117 40.3443C31.5889 40.4008 31.4727 40.4739 31.3531 40.5371C31.2369 40.5969 31.1174 40.6501 31.0011 40.7033C30.9347 40.7332 30.865 40.7598 30.7986 40.7897C30.7255 40.823 30.6591 40.8695 30.5861 40.8861C30.4333 40.9227 30.2772 40.9426 30.1212 40.9692C30.1046 40.9692 30.0847 40.9825 30.0747 40.9759C29.9253 40.8595 29.8589 41.0058 29.7559 41.069C29.6098 41.1587 29.4571 41.2485 29.2944 41.2983C28.9889 41.3914 28.6734 41.4545 28.3613 41.5376C28.2484 41.5676 28.1388 41.6141 28.0392 41.6706C27.9329 41.7304 27.8333 41.7304 27.7137 41.7371C27.4946 41.7504 27.2821 41.8368 27.0662 41.9033C27.033 41.9133 27.0164 41.9665 26.9899 41.9997C26.8039 41.9432 26.6246 41.9166 26.4287 41.993C26.266 42.0562 26.08 42.0795 25.904 42.0961C25.8409 42.1027 25.7679 42.0462 25.6849 42.0163C25.5819 42.1393 25.4491 42.1227 25.293 42.0961C25.0672 42.0562 24.8348 42.0628 24.6057 42.0462C24.5957 42.0462 24.5857 42.0462 24.5758 42.0396C24.2869 41.9698 23.9947 41.8966 23.7058 41.8335C23.1413 41.7105 22.5735 41.5908 22.0056 41.4678C21.8263 41.4279 21.6503 41.3681 21.4743 41.3249C21.2685 41.2717 21.0593 41.2285 20.8501 41.1786C20.7471 41.1521 20.6475 41.1255 20.5479 41.0889C20.2125 40.9659 19.8771 40.8396 19.5418 40.7199C19.3957 40.6667 19.2363 40.6401 19.1001 40.5703C18.8909 40.464 18.6751 40.351 18.4958 40.2014C18.3331 40.0651 18.2135 39.8723 18.0741 39.7061C18.0076 39.6263 17.9379 39.5465 17.8682 39.4701C17.7287 39.3138 17.6025 39.1443 17.4465 39.0047C17.2871 38.8618 17.1078 38.7388 16.9251 38.6258C16.8155 38.5593 16.706 38.5227 16.7192 38.3532C16.7226 38.29 16.6396 38.2003 16.5731 38.1571C16.3208 37.9809 16.1315 37.7582 15.992 37.4823C15.7994 37.1067 15.5803 36.741 15.3844 36.3687C15.3213 36.2491 15.298 36.1094 15.2449 35.9864C15.0855 35.6308 14.9162 35.2784 14.7568 34.9227C14.6738 34.7333 14.5343 34.5372 14.5376 34.3477C14.5443 34.1216 14.4015 33.9854 14.355 33.7992C14.2919 33.5466 14.2354 33.2906 14.1724 33.038C14.1624 32.9948 14.1491 32.9416 14.1192 32.915C13.9964 32.8086 13.9798 32.669 13.9532 32.5228C13.9133 32.2934 13.8469 32.0707 13.7938 31.8447C13.7872 31.8114 13.7938 31.7749 13.7872 31.7416C13.7606 31.5555 13.734 31.366 13.7008 31.1832C13.6776 31.0502 13.6377 30.9172 13.6079 30.7843C13.5979 30.7477 13.6079 30.6945 13.5846 30.6812C13.4551 30.5848 13.5049 30.4452 13.5082 30.3322C13.5082 30.1826 13.4916 30.0497 13.392 29.9366C13.3787 29.92 13.3555 29.9034 13.3555 29.8868C13.3953 29.581 13.1928 29.3217 13.1828 29.0225C13.1762 28.8796 13.0799 28.7466 13.04 28.6037C13.0168 28.5239 13.0101 28.4308 13.0301 28.3511C13.0633 28.2148 13.0865 28.0951 13.0467 27.9422C12.9803 27.6796 12.9803 27.3971 12.9504 27.1245C12.9205 26.8286 12.957 26.5261 12.8142 26.2436C12.7511 26.1206 12.7412 25.9577 12.7379 25.8115C12.7312 25.5688 12.7545 25.3262 12.7578 25.0802C12.7578 25.0237 12.7545 24.9572 12.7213 24.9173C12.5718 24.7112 12.6681 24.5151 12.7379 24.3156C12.8375 24.0331 12.9603 23.7539 13.0267 23.4647C13.0633 23.3085 13.0068 23.129 12.9969 22.9594C12.9902 22.8564 12.9902 22.7533 12.9836 22.6503C12.9769 22.5506 12.9603 22.4508 12.957 22.3544C12.9537 22.2713 12.957 22.1849 12.9471 22.0918C12.967 21.9356 12.9736 21.7794 13.0135 21.6265C13.0699 21.4104 13.1463 21.1977 13.216 20.9849C13.2758 20.7988 13.3356 20.6193 13.495 20.483C13.6543 20.3467 13.7905 20.1772 13.9399 20.0276C13.9698 19.9977 14.0196 19.9678 14.0595 19.9644C14.3417 19.9511 14.5775 19.8414 14.7734 19.632C14.6605 19.529 14.5476 19.4226 14.4347 19.3196C14.4413 19.3096 14.4446 19.2963 14.4513 19.2863C14.7169 19.386 14.9793 19.4858 15.2449 19.5855C15.2549 19.5655 15.2648 19.5423 15.2781 19.5223C15.2051 19.4758 15.132 19.4259 15.059 19.3794C15.0656 19.3428 15.0689 19.2996 15.0756 19.2531C15.1021 19.2664 15.1453 19.2797 15.1785 19.3029C15.401 19.4525 15.6666 19.416 15.9123 19.4692C16.3938 19.5722 16.8454 19.7417 17.2605 20.0243C17.566 20.2337 17.9047 20.3999 18.2467 20.5395C18.788 20.7622 19.0603 21.1844 19.2595 21.7062C19.3824 22.0287 19.575 22.3312 19.7609 22.627C19.8473 22.7666 19.9867 22.8763 20.1096 22.986C20.1395 23.0126 20.2192 23.0226 20.2557 23.0026C20.7339 22.7434 21.2087 22.4675 21.6902 22.2115C22.0189 22.0353 22.3543 21.8725 22.693 21.7162C23.1081 21.5234 23.5232 21.3273 23.9482 21.1545C24.2039 21.0481 24.4762 20.9849 24.7352 20.8919C24.9909 20.7988 25.2432 20.6957 25.4889 20.5894C25.9605 20.3833 26.4619 20.3002 26.9633 20.1971C26.9733 20.1971 26.9865 20.1938 26.9965 20.1971C27.292 20.2902 27.5876 20.1506 27.8831 20.1971C28.1222 20.2337 28.3613 20.257 28.6003 20.2935C28.6369 20.3002 28.6834 20.3234 28.7 20.3534C28.8427 20.6492 28.9523 20.9317 28.876 21.2907C28.8195 21.56 28.6003 21.6863 28.5173 21.9123C28.441 22.1184 28.3513 22.3179 28.2849 22.5273C28.2749 22.5639 28.3413 22.647 28.3911 22.6769C28.5173 22.7533 28.6468 22.9927 28.607 23.1389C28.597 23.1821 28.5472 23.2353 28.5074 23.242C28.2782 23.2885 28.162 23.4747 28.0093 23.6109C28.0259 23.6176 28.0425 23.6242 28.0591 23.6309C28.0425 23.7273 28.0259 23.8237 28.006 23.9234C27.9894 24.0098 27.9694 24.0963 27.9595 24.1827C27.9462 24.2891 27.9097 24.3622 27.83 24.4553C27.6473 24.6647 27.3618 24.7744 27.2754 25.0902C27.2057 25.3528 27.0662 25.6087 26.9068 25.8281C26.7408 26.0541 26.5084 26.2303 26.3058 26.4331C26.2826 26.4563 26.2693 26.4896 26.2527 26.5195C26.246 26.5295 26.246 26.5394 26.2394 26.5494C26.1099 26.7322 25.9837 26.9217 25.8443 27.0946C25.7679 27.191 25.6417 27.2475 25.5753 27.3505C25.5354 27.4137 25.5686 27.5234 25.5686 27.6031C25.4657 27.6497 25.3528 27.7029 25.2399 27.7494C25.1835 27.7727 25.127 27.7959 25.0706 27.8192C25.0373 27.8325 24.9942 27.8458 24.9776 27.8724C24.8647 28.0386 24.7584 28.2148 24.6422 28.381C24.6156 28.4175 24.5691 28.4375 24.5094 28.4807C24.5094 28.4973 24.5127 28.5505 24.5193 28.6137C24.4064 28.6369 24.2603 28.6037 24.1806 28.7367C24.1607 28.7732 24.1142 28.7998 24.1109 28.8364C24.081 29.2087 23.8552 29.3716 23.5032 29.4114V29.5378C23.4335 29.5776 23.3737 29.6142 23.314 29.6474C23.1081 29.7605 23.0251 29.9533 22.9553 30.1627C22.9454 30.1893 22.8956 30.2325 22.8756 30.2258C22.7395 30.1826 22.7328 30.2358 22.776 30.3422C22.786 30.3688 22.786 30.4153 22.7727 30.4353C22.6532 30.5882 22.7196 30.7477 22.7461 30.9073C22.6598 30.9605 22.5701 31.0136 22.4805 31.0702C22.2646 31.2031 22.0986 31.1965 21.8961 31.0569C21.8463 31.0203 21.7798 31.0103 21.7201 30.987C21.7101 31.0469 21.7001 31.1034 21.6869 31.1632C21.6669 31.2596 21.647 31.3593 21.6271 31.4591C21.3316 31.4524 21.1257 31.6419 21.0991 31.9444C21.0991 31.9743 21.0991 32.0175 21.0825 32.0375C20.9796 32.1538 20.9696 32.2801 21.0759 32.443C20.8634 32.2901 20.6342 31.9012 20.6376 31.5954C20.6376 31.3128 20.6542 31.0402 20.7339 30.761C20.7969 30.5383 20.7737 30.2923 20.7969 30.0563C20.8102 29.9101 21.0892 29.6275 21.2286 29.5776C21.4179 29.5112 21.5906 29.4114 21.6802 29.212C21.7699 29.0059 21.8562 28.7965 21.9558 28.597C21.9957 28.5173 22.0455 28.4275 22.1152 28.3876C22.2812 28.2946 22.3775 28.1483 22.4871 28.0054C22.5237 27.9555 22.61 27.9422 22.6897 27.9023C22.8026 27.8292 22.9221 27.7195 23.0649 27.663C23.3405 27.5566 23.5232 27.3372 23.7423 27.1677C23.8785 27.0613 24.0378 26.9882 24.1673 26.8785C24.2869 26.7788 24.3931 26.6591 24.4894 26.5361C24.6356 26.35 24.7418 26.1306 24.9942 26.0575C25.0307 26.0475 25.0739 26.0109 25.0872 25.9777C25.1702 25.7683 25.3196 25.622 25.5022 25.5057C25.5122 25.499 25.5122 25.4791 25.5188 25.4492C25.4856 25.4591 25.4624 25.4624 25.4358 25.4691C25.4591 25.3827 25.469 25.2962 25.6018 25.3361C25.6716 25.3561 26.0169 24.8841 25.9771 24.8209C25.9405 24.7677 25.8675 24.7378 25.7911 24.6879C25.8775 24.4951 25.9804 24.2857 26.0601 24.0663C26.1365 23.8536 26.1896 23.6276 26.266 23.3683C26.08 23.4248 25.9306 23.468 25.7845 23.5179C25.2598 23.7007 24.7385 23.8868 24.2172 24.0796C24.0677 24.1328 23.9316 24.2192 23.7855 24.2791C23.3372 24.4586 22.8856 24.6248 22.4406 24.8109C22.2447 24.894 22.0621 25.0104 21.8695 25.1068C21.7964 25.1433 21.7134 25.1533 21.6371 25.1832C21.5872 25.1998 21.5374 25.2198 21.4976 25.253C21.3747 25.3494 21.2452 25.4458 21.1323 25.5555C21.0493 25.6353 21.0028 25.755 20.9165 25.8248C20.7505 25.9611 20.5545 26.0674 20.3885 26.2037C20.259 26.3068 20.1527 26.4397 20.0365 26.5594C20.0166 26.5793 19.9934 26.5993 19.9701 26.6159C19.8639 26.6924 19.7974 26.7987 19.8207 26.925C19.8439 27.068 19.7808 27.1012 19.6679 27.0879C19.555 27.0746 19.4355 27.0646 19.3292 27.0214C19.1931 26.9649 18.9905 26.9616 18.9939 27.0414C19.0005 27.161 19.0437 27.2973 19.1134 27.3937C19.1566 27.4536 19.2794 27.4569 19.3624 27.4835C19.1366 27.5466 19.1366 27.55 18.9374 27.5034C18.7913 27.4669 18.6452 27.4236 18.5323 27.3937C18.5456 27.314 18.5489 27.2508 18.5721 27.1943C18.602 27.1178 18.6419 27.048 18.6817 26.9649C18.4758 26.9084 18.3962 26.7356 18.3663 26.5228C18.3663 26.5062 18.3397 26.4929 18.3264 26.4763C18.2633 26.3965 18.2036 26.3167 18.1139 26.2004C18.011 26.2004 17.991 26.1106 18.0342 25.971C18.0442 25.9378 18.0242 25.8846 18.001 25.8514C17.8615 25.6419 17.7154 25.4359 17.5726 25.2264C17.556 25.1998 17.5494 25.1699 17.5394 25.14C17.5129 25.0469 17.4597 25.0203 17.3734 25.0735H17.3767C17.3004 24.8442 17.2373 24.6082 17.1476 24.3821C17.0878 24.2292 16.955 24.1361 16.8056 24.0697C16.5101 23.9334 16.2112 23.8004 15.9157 23.6675C15.8924 23.6575 15.8692 23.6508 15.8526 23.6442C15.7961 23.7339 15.7463 23.817 15.6965 23.8968C15.6434 23.9866 15.5836 24.073 15.7198 24.1561C15.5338 24.1594 15.5205 24.3223 15.4674 24.422C15.4109 24.5284 15.4043 24.6613 15.3844 24.781C15.3113 25.1965 15.2449 25.612 15.1752 26.0309C15.1719 26.0541 15.1851 26.0807 15.1984 26.1439C15.3379 25.9345 15.3113 25.6486 15.577 25.5755C15.4773 26.0774 15.4143 26.5893 15.4574 27.1212C15.65 26.832 15.5537 26.4663 15.7696 26.1572C15.7364 26.4497 15.7098 26.6957 15.6799 26.9417C15.66 27.1012 15.6467 27.2574 15.6201 27.417C15.6069 27.5067 15.5637 27.5932 15.557 27.6829C15.5371 27.9821 15.6367 28.2646 15.7198 28.5439C15.7297 28.5738 15.753 28.607 15.7496 28.6336C15.6965 28.9294 15.8559 29.089 16.1016 29.1921C16.0717 29.2951 16.1813 29.4513 16.344 29.4979C16.4403 29.5245 16.4835 29.5643 16.5267 29.6574C16.5632 29.7405 16.6827 29.7837 16.7558 29.8535C16.8786 29.9666 16.9882 30.0929 17.1144 30.1992C17.1808 30.2591 17.2671 30.2956 17.3468 30.3389C17.3834 30.3588 17.4398 30.3621 17.4564 30.392C17.566 30.5948 17.7818 30.658 17.9512 30.781C18.0508 30.8508 18.1239 30.9571 18.2235 31.0303C18.3131 31.0967 18.4194 31.1433 18.519 31.1998C18.5323 31.1898 18.5456 31.1765 18.5589 31.1665C18.5223 31.0768 18.4825 30.9837 18.4526 30.9106C18.5423 30.9505 18.6485 30.997 18.7382 31.0402C18.8644 31.243 19.0304 31.4391 19.1101 31.6685C19.1566 31.8048 19.2595 31.858 19.3259 31.9577C19.3425 31.9809 19.389 31.9843 19.4189 31.9976C19.4255 31.9643 19.4488 31.9311 19.4421 31.9012C19.4289 31.848 19.4023 31.7948 19.379 31.7449C19.3691 31.725 19.3458 31.715 19.3392 31.6951C19.2794 31.5056 19.223 31.3128 19.1599 31.12C19.1167 30.987 19.0736 30.8541 19.0171 30.7278C18.9806 30.6413 18.9175 30.5682 18.8577 30.4751C18.9441 30.4751 19.057 30.638 19.0835 30.4319C19.2197 30.5051 19.2728 30.6347 19.2628 30.7643C19.2462 30.9671 19.3558 31.1267 19.4255 31.2895C19.5982 31.6884 19.8008 32.074 20.0066 32.4563C20.093 32.6192 20.2092 32.7688 20.3354 32.905C20.4184 32.9948 20.5446 33.038 20.6741 32.9748C20.8434 33.1909 21.0095 33.4169 21.1921 33.6264C21.3083 33.7593 21.4079 33.8989 21.6038 33.9588C21.7433 34.002 21.8396 34.1482 21.9027 34.3144C21.9625 34.4707 22.1152 34.597 22.248 34.7133C22.3975 34.843 22.5668 34.956 22.7329 35.0657C22.8192 35.1222 22.9155 35.1654 23.0085 35.2053C23.2343 35.295 23.4567 35.3848 23.6892 35.4546C23.7589 35.4779 23.8486 35.438 23.915 35.4313C23.9781 35.4612 24.0378 35.4845 24.0976 35.5144C24.1209 35.5244 24.1574 35.5344 24.1607 35.551C24.2039 35.7704 24.3965 35.8701 24.5326 36.0097C24.6223 36.1061 24.7319 36.1892 24.8481 36.2524C25.0008 36.3355 25.1038 36.4585 25.2167 36.5815C25.2698 36.638 25.3395 36.6779 25.4093 36.7111C25.572 36.7909 25.738 36.8707 25.9107 36.9338C25.9704 36.9571 26.0601 36.9504 26.1165 36.9205C26.2361 36.8607 26.4752 36.977 26.4984 37.11C26.5084 37.1632 26.5582 37.2097 26.5914 37.2596C26.6678 37.1798 26.7209 37.1233 26.7707 37.0701C26.7807 37.0801 26.7939 37.09 26.8039 37.1C26.7773 37.1266 26.7541 37.1565 26.7342 37.1765C26.7807 37.2729 26.8039 37.3826 26.8703 37.4357C26.9899 37.5355 27.136 37.5953 27.3053 37.5887C27.5079 37.582 27.7071 37.582 27.9097 37.572C27.9429 37.572 27.9694 37.5222 27.9827 37.5122C28.2185 37.5321 28.4509 37.5321 28.6767 37.5787C28.8494 37.6119 28.9291 37.5421 28.9922 37.4191C29.0719 37.4357 29.1449 37.449 29.218 37.4623C29.2844 37.2363 29.3608 37.1964 29.4869 37.3294C29.6995 37.1864 29.9153 37.223 30.1511 37.2961C30.2673 37.3327 30.4167 37.2828 30.5429 37.2496C30.7156 37.2031 30.865 37.0734 31.0609 37.1067C31.0941 37.1133 31.134 37.1 31.1705 37.0867C31.3764 37.0003 31.5756 36.9105 31.7815 36.8308C31.828 36.8108 31.8944 36.8075 31.9409 36.8208C32.1301 36.874 32.3294 36.751 32.3493 36.5582C32.3648 36.4097 32.2962 36.331 32.1434 36.3222C32.1235 36.3222 32.1036 36.3222 32.0803 36.3189C32.2065 36.1726 32.2862 36.1493 32.6282 36.1527C32.6581 35.9299 32.854 36.0463 32.9769 35.9831C33.0134 36.0396 33.0466 36.0961 33.113 36.1992C33.1462 36.1394 33.1695 36.1028 33.1994 36.0496C33.3588 36.2058 33.5248 36.146 33.6576 36.023C33.7008 35.9831 33.6643 35.8535 33.6543 35.7671C33.7572 35.5144 34.0196 35.5078 34.2321 35.4214C34.3948 35.3582 34.5708 35.3283 34.7368 35.2751C34.7634 35.2651 34.7899 35.2119 34.7899 35.1787C34.7899 35.1155 34.7667 35.0557 34.7468 34.9493H35.1187C35.0988 34.9028 35.0822 34.8629 35.0589 34.8064C35.1519 34.7532 35.2382 34.6867 35.3378 34.6435C35.4109 34.6103 35.5271 34.6701 35.5636 34.5438C35.5869 34.4607 35.6068 34.3776 35.6334 34.2746C35.7031 34.2878 35.7828 34.3011 35.8559 34.3111C35.9953 34.0419 36.3705 33.9621 36.3938 33.6164C36.5698 33.6397 36.6993 33.5266 36.7557 33.3405C36.7723 33.2906 36.8653 33.2574 36.9284 33.2374C37.0048 33.2109 37.0413 33.1843 37.0645 33.0978C37.0944 32.9649 37.1907 32.8784 37.3667 32.9117C37.3534 32.8386 37.3435 32.7721 37.3402 32.7521C37.4796 32.5527 37.6025 32.3732 37.7287 32.197C37.7453 32.1737 37.7818 32.1638 37.8017 32.1438C37.8648 32.0807 37.9312 32.0142 37.991 31.9444C38.1006 31.8147 38.2068 31.6818 38.3131 31.5488C38.3563 31.4956 38.3961 31.4358 38.436 31.3793C38.5821 31.1699 38.7248 30.9538 38.8776 30.7477C38.9407 30.6613 39.0171 30.5815 39.1001 30.5084C39.296 30.3389 39.4753 30.1594 39.5351 29.8934C39.5417 29.8602 39.565 29.8236 39.5915 29.797C40.0033 29.4181 40.1593 28.8862 40.3885 28.4042C40.4947 28.1815 40.5113 27.9156 40.5645 27.6696C40.5943 27.53 40.6143 27.3871 40.6408 27.2475C40.6508 27.2043 40.684 27.1644 40.6906 27.1245C40.6973 27.048 40.7072 26.9683 40.684 26.8984C40.6774 26.8752 40.5777 26.8785 40.518 26.8752C40.4814 26.8752 40.4416 26.8752 40.4416 26.8752C40.4648 26.3832 40.5246 25.9079 40.5047 25.4325C40.4814 24.8907 40.4084 24.3489 40.3187 23.8137C40.249 23.3949 40.1162 22.986 40.0199 22.5705C39.9369 22.2248 39.8837 21.8725 39.7808 21.5367C39.6679 21.1711 39.5118 20.822 39.369 20.4664C39.2462 20.1606 39.12 19.8514 38.9839 19.5523C38.9108 19.396 38.8112 19.2498 38.7315 19.0969C38.5721 18.791 38.4293 18.4753 38.26 18.1794C38.064 17.837 37.8382 17.5113 37.629 17.1755C37.5494 17.0459 37.4796 16.9096 37.39 16.7866C37.3368 16.7135 37.2472 16.667 37.1941 16.5938C37.121 16.5008 37.0778 16.3877 37.0048 16.2913C36.8554 16.0952 36.7059 15.8991 36.5399 15.7163C36.1979 15.334 35.8558 14.9484 35.4906 14.5861C35.1386 14.2371 34.78 13.8947 34.345 13.6421C34.0096 13.4493 33.6908 13.2265 33.3554 13.0371C33.0267 12.8543 32.688 12.6947 32.3526 12.5252C31.8877 12.2925 31.4262 12.0498 30.958 11.8304C30.772 11.744 30.5595 11.7108 30.3636 11.6376C30.1643 11.5645 29.9718 11.4714 29.7725 11.3883C29.394 11.2354 29.0154 11.0858 28.6369 10.9329C28.5572 10.903 28.4675 10.8897 28.4011 10.8432C28.0226 10.5673 27.5643 10.5075 27.136 10.3745C26.9002 10.3014 26.6412 10.3014 26.3955 10.2515C25.9638 10.1651 25.5388 10.0587 25.1071 9.97893C24.8713 9.93572 24.6289 9.9324 24.3898 9.9058C24.1275 9.87589 23.8685 9.82603 23.6062 9.80608C23.3604 9.78946 23.1081 9.80608 22.8624 9.79611C22.5137 9.77949 22.1684 9.74292 21.823 9.72963C21.481 9.71633 21.139 9.71633 20.7969 9.72298C20.2756 9.73628 19.751 9.7529 19.2296 9.78281C18.9706 9.79611 18.7149 9.84265 18.4592 9.88254C17.815 9.98226 17.1675 10.0787 16.5267 10.195C16.2344 10.2482 15.9522 10.3479 15.6633 10.421C15.4508 10.4742 15.2349 10.5274 15.0158 10.5706C14.5044 10.6703 14.0063 10.8166 13.5248 11.0194C13.1596 11.1723 12.7744 11.2753 12.4025 11.4116C12.1435 11.508 11.8911 11.6243 11.6354 11.7307C11.6122 11.7407 11.5889 11.754 11.5624 11.764C11.2967 11.8803 11.0244 11.9667 10.7754 12.1329C10.5595 12.2792 10.2972 12.3556 10.0648 12.4786C9.86222 12.5883 9.66962 12.718 9.47703 12.8476C9.15825 13.057 8.83615 13.2631 8.52734 13.4825C8.3115 13.6387 8.11558 13.8249 7.90307 13.9844C7.83333 14.0376 7.73372 14.0443 7.64738 14.0775C7.60421 14.0941 7.54444 14.1141 7.52452 14.1506C7.33192 14.4698 7.02975 14.6792 6.75746 14.9218C6.51174 15.1412 6.26933 15.3606 6.02693 15.5833C5.72475 15.8625 5.41262 16.1318 5.12705 16.4276C4.91121 16.6503 4.70865 16.8963 4.5393 17.1589C4.27365 17.5711 4.03457 17.9999 3.80213 18.432C3.57633 18.8542 3.36049 19.283 3.16457 19.7218C3.02511 20.0376 2.92881 20.37 2.80927 20.6957C2.77939 20.7722 2.7329 20.8453 2.71297 20.9251C2.63992 21.201 2.57019 21.4802 2.5071 21.7594C2.48053 21.8725 2.47057 21.9855 2.45729 22.1018C2.41744 22.4209 2.37759 22.74 2.34107 23.0591C2.30454 23.3616 2.24145 23.6641 2.23813 23.9666C2.23813 24.1694 2.13519 24.3788 2.25473 24.5849C2.28794 24.6447 2.26137 24.7411 2.26469 24.8209C2.27133 25.0802 2.2979 25.3361 2.28462 25.5921C2.26469 25.9245 2.38755 26.227 2.4274 26.5461C2.43736 26.6159 2.41412 26.689 2.40748 26.7389C2.50378 26.9151 2.57019 27.0946 2.68973 27.2275C2.80927 27.3605 2.9587 27.4702 3.04503 27.6297L2.97862 27.6929C2.84912 27.5533 2.72294 27.4137 2.56023 27.2408C2.57351 27.3871 2.55691 27.5101 2.59343 27.6098C2.69637 27.8857 2.68641 28.1882 2.83251 28.4574C2.97862 28.7234 3.07492 29.0159 3.18782 29.3017C3.27083 29.5078 3.3306 29.7206 3.4269 29.9167C3.48667 30.0397 3.59293 30.1427 3.71911 30.2425V29.9998C3.71911 29.9998 3.74236 29.9998 3.75564 29.9998C3.83534 30.2823 3.90175 30.5715 3.99804 30.8474C4.04785 30.9904 4.0877 31.1333 4.21056 31.2563C4.32014 31.3693 4.35667 31.5555 4.41976 31.7117C4.5227 31.9676 4.64888 32.2037 4.89461 32.3433C4.91121 32.3366 4.92449 32.3266 4.94109 32.32C4.89793 32.217 4.8614 32.1106 4.80827 32.0109C4.75846 31.9211 4.67213 31.8513 4.62896 31.7582C4.57583 31.6485 4.55258 31.5289 4.53598 31.3992C4.62564 31.5588 4.71197 31.7183 4.80495 31.8746C4.83151 31.9178 4.8614 31.9577 4.88796 32.0009C5.01083 32.1771 5.11709 32.3699 5.26319 32.5228C5.38937 32.6557 5.4259 32.792 5.46907 32.9649C5.5222 33.1909 5.6185 33.4236 5.82105 33.5898C5.91403 33.6662 5.97712 33.7859 6.06678 33.9056C6.04353 34.1682 6.07342 34.2147 6.33907 34.3011C6.44865 34.3377 6.5549 34.371 6.60139 34.5039C6.618 34.5571 6.69105 34.587 6.7309 34.6336C6.77738 34.6867 6.85044 34.7466 6.85376 34.8097C6.8604 34.9527 6.95338 35.0058 7.05299 35.069C7.09616 35.0956 7.12937 35.1421 7.16589 35.1787C7.11941 35.2186 7.07292 35.2618 7.02311 35.3017C7.00983 35.3117 6.99654 35.3183 6.98326 35.325C6.97994 35.3349 6.9733 35.3449 6.9733 35.3549C6.9899 35.428 7.00983 35.5011 7.02975 35.5743C6.9567 35.5676 6.88364 35.5643 6.81059 35.5477C6.72758 35.5311 6.64456 35.4878 6.56155 35.4812C6.5217 35.4779 6.46525 35.5178 6.442 35.5543C6.4254 35.5809 6.442 35.6341 6.44865 35.6939C6.39552 35.6142 6.35567 35.551 6.3125 35.4878C6.25937 35.4114 6.1996 35.3848 6.09666 35.4147C6.00036 35.4446 5.89078 35.428 5.78785 35.4214C5.68823 35.4147 5.58861 35.3948 5.50227 35.3815C5.52552 35.3083 5.59525 35.2119 5.56869 35.1588C5.53216 35.0856 5.42922 35.0391 5.34621 35.0025C5.22334 34.946 5.09052 34.9095 4.96434 34.8629C4.95106 34.8762 4.93777 34.8895 4.92449 34.9028C5.33292 35.3648 5.73804 35.8269 6.14647 36.2889L6.11326 36.3155C6.07342 36.3089 6.03357 36.3022 5.99372 36.2923C5.98708 36.3787 5.98044 36.4518 5.97048 36.5682C6.36895 36.9139 6.78735 37.2795 7.19578 37.6352C7.27215 37.5853 7.33192 37.5621 7.36845 37.5188C7.4083 37.4756 7.44482 37.4158 7.45147 37.3593C7.45147 37.3327 7.38837 37.2828 7.34521 37.2729C7.19578 37.233 7.04635 37.2064 6.89693 37.1665C6.83383 37.1499 6.77738 37.12 6.7309 37.0601C6.91021 37.1033 7.09284 37.1466 7.27215 37.1898C7.37177 37.213 7.47139 37.2429 7.57433 37.2596C7.60421 37.2629 7.6507 37.2396 7.6673 37.213C7.68059 37.1898 7.67062 37.1432 7.65402 37.1133C7.61749 37.0435 7.57101 36.9803 7.54776 36.8939C7.96284 37.1532 8.37791 37.4125 8.79299 37.6718C9.09184 37.8579 9.38737 38.0474 9.67959 38.2402C9.76592 38.2967 9.83897 38.4163 9.92863 38.4263C10.1146 38.4529 10.2474 38.5526 10.3935 38.6457C10.6359 38.8019 10.8816 38.9615 11.1274 39.1144C11.5192 39.3604 11.9143 39.5997 12.3095 39.8424C12.5685 39.9986 12.8242 40.1582 13.0898 40.3011C13.4352 40.4872 13.7872 40.6634 14.1425 40.8363C14.5044 41.0124 14.8697 41.182 15.2349 41.3448C15.6467 41.531 16.0717 41.6972 16.4802 41.8933C16.8488 42.0695 17.2074 42.2756 17.5693 42.4684C17.6025 42.485 17.6324 42.5016 17.7055 42.5382C17.6789 42.4651 17.6623 42.4318 17.6557 42.3953C17.6457 42.3321 17.6391 42.2689 17.6324 42.2058C17.6955 42.2291 17.7619 42.2523 17.825 42.2789C17.9014 42.3122 17.9778 42.3487 18.0508 42.3886C18.1737 42.4551 18.2202 42.382 18.2401 42.2955C18.6518 42.2789 18.6386 42.6446 18.7813 42.8706C18.8312 42.947 18.9075 43.0069 18.9507 43.0867C18.9839 43.1465 19.0105 43.2296 18.9972 43.2894C18.9374 43.5387 18.871 43.7914 18.7913 44.034C18.7448 44.1703 18.6784 44.3033 18.6053 44.4296C18.5257 44.5592 18.4227 44.6756 18.3364 44.8019C18.2633 44.9083 18.2202 45.0246 18.0741 45.0811C17.9944 45.1143 17.9512 45.2407 17.8615 45.367C18.001 45.367 18.0907 45.3703 18.177 45.367C18.4426 45.3504 18.7083 45.2972 18.9739 45.3138C19.4886 45.347 20.0033 45.4268 20.518 45.4733C20.8102 45.4999 21.1091 45.4966 21.4013 45.5199C21.5408 45.5299 21.6736 45.5797 21.8097 45.6063C22.2016 45.6861 22.5934 45.7592 22.9852 45.8423C23.2708 45.9021 23.553 45.972 23.8419 46.0285C24.1507 46.0883 24.4629 46.1282 24.7717 46.1913C24.961 46.2312 25.1436 46.2977 25.3296 46.3509C25.3594 46.3609 25.3893 46.3675 25.4192 46.3708C25.9505 46.4672 26.4818 46.6068 27.0197 46.6434C27.3219 46.6667 27.5776 46.7697 27.8432 46.8661C27.913 46.8927 27.9761 46.9625 28.0192 47.0257C28.089 47.1321 28.1421 47.2251 28.2915 47.2617C28.421 47.2949 28.5306 47.408 28.6468 47.4877C28.7099 47.5343 28.7664 47.5908 28.8295 47.6373C28.8926 47.6838 28.959 47.7204 29.0254 47.7603C29.0055 47.7902 28.9889 47.8201 28.9689 47.8501C28.8859 47.8401 28.8029 47.8334 28.7199 47.8201C28.4542 47.7769 28.4244 47.7935 28.3247 48.0395C28.2749 48.1625 28.2118 48.2523 28.0724 48.1658C27.9229 48.2988 27.9063 48.4451 27.9761 48.6246C27.9462 48.6046 27.9163 48.5847 27.8599 48.5514C27.8565 48.6046 27.8433 48.6445 27.8499 48.6777C27.9063 48.9171 27.7005 49.3592 27.468 49.3658C27.219 49.3758 27.1194 49.542 26.96 49.6517C26.9102 49.6849 26.8271 49.675 26.7541 49.6849C26.7939 49.7315 26.8305 49.7747 26.8637 49.8079C26.7176 49.901 26.5947 49.9941 26.4552 50.0639C26.3955 50.0938 26.2959 50.0905 26.2394 50.0572C26.08 49.9642 25.9273 50.0041 25.7745 50.0506C25.7446 50.0572 25.738 50.1403 25.7147 50.2068C25.5388 50.1935 25.3229 50.1802 25.1071 50.1669C25.0872 50.1669 25.0639 50.1769 25.0506 50.1869C24.9377 50.2799 24.8348 50.2234 24.7617 50.1403C24.6654 50.0306 24.5891 49.9741 24.4662 50.1104C24.423 50.157 24.35 50.1736 24.3168 50.1935C24.0478 50.1603 23.7954 50.127 23.5597 50.0971C23.4468 50.3331 23.7091 50.3365 23.739 50.4761C23.6361 50.5359 23.5232 50.2966 23.4302 50.5326C23.4567 50.5425 23.4999 50.5558 23.5431 50.5725C23.3937 50.6157 23.2774 50.6489 23.1512 50.6855C23.1512 50.722 23.1546 50.7619 23.1579 50.8051C23.1413 50.8118 23.128 50.8184 23.1247 50.8151C22.9919 50.7453 22.8856 50.6124 22.7063 50.6489C22.6864 50.6522 22.6598 50.6157 22.6366 50.5957C22.6133 50.5791 22.5901 50.5459 22.5635 50.5459C22.4041 50.5359 22.2414 50.5359 22.0787 50.5259C22.0289 50.5259 21.9791 50.5027 21.9293 50.4927C21.8463 50.4727 21.7599 50.4561 21.6769 50.4262C21.6271 50.4096 21.5872 50.3697 21.5408 50.3398C21.4777 50.2966 21.4013 50.2068 21.3515 50.2201C21.2054 50.2534 21.0327 50.2234 20.9165 50.3597C20.8899 50.3896 20.8401 50.4096 20.8003 50.4129C20.5711 50.4428 20.342 50.4694 20.1129 50.4993L20.1029 50.5592C20.1527 50.5991 20.2026 50.6356 20.2723 50.6888C20.3055 50.6423 20.3354 50.5991 20.3619 50.5558C20.3619 50.5725 20.3686 50.5924 20.3719 50.609C20.5379 50.6323 20.7073 50.6522 20.8733 50.6788C20.9563 50.6955 21.0427 50.7187 21.119 50.7553C21.2452 50.8184 21.3614 50.7819 21.4113 50.609C21.4544 50.6822 21.481 50.7254 21.5142 50.7786C21.5872 50.7952 21.6769 50.8218 21.7699 50.8417C22.0289 50.9015 22.2846 50.9714 22.5469 51.0179C22.6764 51.0412 22.8125 51.0112 22.9454 51.0179C22.9919 51.0179 23.0417 51.0378 23.0815 51.0611C23.1346 51.0943 23.1811 51.1376 23.2309 51.1774C23.2309 51.1608 23.2376 51.1442 23.2409 51.1243C23.3438 51.1309 23.4501 51.1409 23.553 51.1409C23.7855 51.1409 23.9681 51.3137 24.2205 51.2905C24.4363 51.2738 24.6621 51.3968 24.8846 51.4533C25.0174 51.4866 25.1502 51.5099 25.2831 51.5431C25.3495 51.5597 25.4126 51.583 25.479 51.5996C25.5686 51.6262 25.6649 51.6428 25.7513 51.6794C25.821 51.7093 25.8775 51.7658 25.9472 51.8024C25.997 51.829 26.0501 51.8489 26.1033 51.8622C26.4918 51.9486 26.8836 52.0284 27.2721 52.1182C27.375 52.1414 27.468 52.2146 27.571 52.2544C27.6208 52.2744 27.6772 52.2677 27.7304 52.2711C27.747 52.2711 27.7702 52.2644 27.7735 52.2711C27.8366 52.3907 27.9595 52.3442 28.0524 52.3774C28.2882 52.4605 28.5107 52.5869 28.7398 52.6832C28.8826 52.7431 29.032 52.7896 29.1781 52.8362C29.3641 52.8993 29.5534 52.9558 29.7393 53.0157C29.7526 53.019 29.7692 53.029 29.7792 53.0389C29.9087 53.1519 30.0382 53.265 30.171 53.3747C30.3735 53.5409 30.3437 53.8434 30.1079 53.973C30.0813 53.9863 30.0514 54.0129 30.0448 54.0395C30.0182 54.1259 29.9618 54.1226 29.8854 54.1425C29.7592 54.1791 29.6364 54.2688 29.5368 54.3619C29.3774 54.5115 29.2445 54.691 29.0852 54.8439C28.9955 54.9303 28.8627 54.9702 28.856 55.1231C28.856 55.1829 28.8394 55.2461 28.8361 55.286C28.7664 55.3458 28.7132 55.4023 28.6468 55.4456C28.5738 55.4954 28.4974 55.5519 28.4177 55.5685C28.2152 55.6151 28.2118 55.6084 28.2517 55.8145C28.0458 55.8644 27.8731 55.8112 27.6872 55.7148C27.4846 55.6118 27.2522 55.5652 27.0197 55.6483C26.9135 55.6849 26.7939 55.7015 26.6976 55.7613C26.5416 55.8544 26.3988 55.9774 26.2095 55.8345C26.1996 55.8278 26.1697 55.8278 26.163 55.8345C26.0335 56.0173 25.8144 55.8677 25.6616 55.9708C25.6317 55.9907 25.5321 55.9275 25.4757 55.8877C25.4093 55.8378 25.3661 55.7946 25.2964 55.8877C25.2665 55.9242 25.1835 55.9575 25.1502 55.9408C24.941 55.8411 24.785 55.9973 24.6057 56.0372C24.5758 56.0439 24.5393 56.0638 24.5193 56.0539C24.2603 55.9209 24.008 56.0539 23.7556 56.0738C23.6394 56.0838 23.5597 56.0671 23.4866 56.004C23.3339 55.871 23.1679 55.7946 22.9653 55.8378C22.8424 55.8644 22.7162 55.9009 22.6067 55.9608C22.4705 56.0339 22.3543 55.994 22.2514 55.9176C22.1086 55.8145 21.9824 55.748 21.7865 55.7946C21.5507 55.8478 21.305 55.8478 21.0626 55.8677C21.0559 55.8677 21.0493 55.8677 21.046 55.8677C20.7505 56.0904 20.5114 55.8178 20.2457 55.7746C20.0863 55.748 19.9303 55.6616 19.7742 55.6616C19.5418 55.6616 19.3292 55.6649 19.1001 55.5785C18.9241 55.512 18.705 55.5386 18.5091 55.5619C18.353 55.5818 18.2168 55.5552 18.0774 55.4987C18.0442 55.4854 17.9944 55.4821 17.9612 55.4987C17.7486 55.6018 17.5262 55.5951 17.3004 55.5985C17.1908 55.5985 17.0779 55.6417 16.9716 55.6816C16.9484 55.6882 16.9318 55.7547 16.9351 55.7913C16.9351 55.8112 16.9882 55.8345 17.0181 55.8378C17.1443 55.8611 17.2705 55.8744 17.3933 55.9209C17.2173 55.9209 17.0447 55.9209 16.8687 55.9209C16.7724 55.9209 16.6761 55.9142 16.5798 55.9176C16.5433 55.9176 16.5001 55.9408 16.4702 55.9275C16.344 55.8744 16.2876 55.9342 16.2145 56.0339C16.178 56.0838 16.0585 56.0871 15.9754 56.0904C15.9456 56.0904 15.8991 56.0206 15.8924 55.9807C15.8625 55.8278 15.6733 55.7248 15.5305 55.8012C15.4508 55.8444 15.3943 55.8677 15.298 55.8278C15.2383 55.8012 15.142 55.8444 15.0689 55.8744C14.9759 55.9109 14.8929 55.9309 14.8298 55.8411C14.7468 55.7214 14.6671 55.6084 14.4911 55.6417C14.448 55.6483 14.4015 55.6217 14.3384 55.6084C14.3118 55.7447 14.2886 55.8777 14.2687 55.9874C14.1557 55.9342 14.0595 55.891 13.9665 55.8478C14.0362 55.7547 14.1259 55.635 14.2188 55.5054C14.1093 55.3259 14.1259 55.1298 14.1823 54.9303C14.1989 54.8705 14.2122 54.804 14.2056 54.7442C14.1856 54.5613 14.252 54.4517 14.4114 54.3785C14.5277 54.3253 14.6406 54.2555 14.7402 54.1758C14.8298 54.1059 14.9062 54.0794 15.0158 54.1226C15.1187 54.1625 15.1951 54.1292 15.298 54.0627C15.5371 53.9098 15.6865 53.6339 15.992 53.5841C16.0352 53.5774 16.0983 53.5675 16.1215 53.5907C16.3042 53.7835 16.5167 53.7735 16.7491 53.717C16.8056 53.7037 16.882 53.7204 16.9318 53.7536C17.0513 53.8334 17.1576 53.8068 17.2439 53.7004C17.2937 53.6406 17.3834 53.5974 17.4631 53.5807C17.6291 53.5442 17.7984 53.5209 17.9645 53.5143C18.1073 53.5076 18.2534 53.5176 18.3962 53.5409C18.5522 53.5675 18.7083 53.6439 18.8212 53.4578C18.8345 53.4345 18.8776 53.4145 18.9042 53.4179C19.0204 53.4378 19.1366 53.4578 19.2462 53.4976C19.4255 53.5641 19.5949 53.6206 19.7974 53.5741C19.8838 53.5542 19.99 53.624 20.0897 53.6472C20.1561 53.6605 20.2225 53.6605 20.2889 53.6738C20.4217 53.6971 20.5545 53.7337 20.6907 53.7503C20.7637 53.7569 20.8401 53.7303 20.9231 53.7204C20.9829 53.737 21.0626 53.7602 21.139 53.7735C21.2618 53.7968 21.3847 53.8234 21.5109 53.84C21.8861 53.8932 22.2613 53.9497 22.6366 53.9896C22.8823 54.0162 23.1313 54.0195 23.3804 54.0395C23.4601 54.0461 23.5364 54.086 23.6128 54.0827C23.6593 54.0827 23.6991 54.0228 23.749 53.9996C23.7988 53.9763 23.8519 53.963 23.9183 53.9397C23.8984 53.8999 23.8785 53.86 23.8652 53.8334C24.1341 53.8932 24.4131 53.9564 24.692 54.0095C24.7817 54.0262 24.878 54.0129 24.9709 54.0095C24.9875 54.0095 25.0141 53.9796 25.0108 53.9697C25.0075 53.9431 24.9942 53.8965 24.9743 53.8932C24.8614 53.86 24.7451 53.8367 24.6256 53.8134C24.5691 53.8035 24.5094 53.8168 24.4562 53.8001C24.091 53.6639 23.7357 53.5043 23.3671 53.388C22.9719 53.265 22.5668 53.1885 22.165 53.0921C22.1451 53.0888 22.1252 53.0921 22.0687 53.0855C22.1086 53.132 22.1252 53.1619 22.1517 53.1752C22.3609 53.2749 22.5701 53.3846 22.786 53.4644C22.9288 53.5176 23.0882 53.5276 23.2376 53.5508C23.2808 53.5575 23.3472 53.5375 23.3704 53.5608C23.4866 53.6805 23.6261 53.6871 23.7755 53.6605C23.7921 53.6605 23.812 53.6738 23.8619 53.6938C23.6792 53.7469 23.5597 53.8301 23.3804 53.7204C23.2276 53.6273 23.0317 53.6173 22.8524 53.5675C22.7329 53.5342 22.6133 53.4976 22.4938 53.4644C22.2049 53.3846 21.9193 53.3049 21.6304 53.2251C21.5806 53.2118 21.5142 53.1885 21.4743 53.2085C21.2519 53.3181 21.0427 53.1752 20.8268 53.1719C20.5147 53.1652 20.1992 53.0622 19.8871 53.0655C19.5451 53.0655 19.2263 52.9425 18.8909 52.9359C18.7647 52.9359 18.6386 52.9891 18.5124 53.0157C18.4792 53.0223 18.446 53.0422 18.4161 53.0389C18.167 53.0057 17.918 52.9558 17.6656 52.9392C17.5527 52.9326 17.4763 52.886 17.3933 52.8295C17.576 52.8628 17.7553 52.9026 17.9379 52.9292C18.0076 52.9392 18.0807 52.906 18.1537 52.896C18.1504 52.8827 18.1471 52.8694 18.1438 52.8561C18.0774 52.8528 18.0076 52.8594 17.9446 52.8395C17.7818 52.7863 17.6225 52.7065 17.4564 52.66C17.317 52.6201 17.1709 52.6101 17.0247 52.5968C17.0015 52.5968 16.9749 52.64 16.955 52.66C17.1177 52.7231 17.2605 52.7796 17.4 52.8362C17.2273 52.8029 17.0546 52.763 16.882 52.7398C16.8255 52.7331 16.7591 52.7763 16.6993 52.7996C16.7491 52.8528 16.7923 52.9159 16.8488 52.9591C16.8786 52.9824 16.9284 52.9824 16.9949 52.999C16.6993 53.1121 16.447 53.0356 16.1913 52.9758C16.0917 52.9525 15.9489 53.0622 15.9024 52.8827C16.0352 52.8129 16.0551 52.7065 15.9688 52.5802C15.9356 52.5337 15.9123 52.4805 15.8957 52.424C15.816 52.1713 15.5438 52.0716 15.3279 52.2179C15.225 52.2877 15.1386 52.2844 15.0789 52.168C15.0257 52.065 14.9593 52.0417 14.8464 52.0783C14.8099 52.0916 14.7335 52.0484 14.7103 52.0085C14.6173 51.8456 14.531 51.6794 14.4546 51.5065C14.4314 51.4567 14.4247 51.3603 14.4546 51.3304C14.5509 51.2373 14.531 51.1276 14.531 51.0179C14.531 50.9015 14.5409 50.7852 14.521 50.6722C14.5111 50.6124 14.4579 50.5492 14.4048 50.516C14.3749 50.496 14.3052 50.516 14.2587 50.5326C14.1923 50.5592 14.1259 50.5891 14.0727 50.6356C14.0196 50.6788 13.9831 50.742 13.9333 50.8018C13.9067 50.6456 13.9864 50.5592 14.1026 50.4927C14.2886 50.3896 14.3483 50.2733 14.3019 50.0672C14.2919 50.0207 14.2421 49.9808 14.2122 49.9376C14.252 49.891 14.3019 49.8279 14.355 49.768C14.3749 49.7448 14.4048 49.7115 14.4247 49.7149C14.6173 49.7581 14.697 49.5919 14.8232 49.5088C14.8697 49.4755 14.9427 49.4622 14.9992 49.4689C15.2117 49.5021 15.3678 49.3592 15.3279 49.1498C15.2648 48.8174 15.1885 48.4883 15.2316 48.1426C15.2549 47.9631 15.2051 47.7736 15.1752 47.5875C15.1719 47.5575 15.1121 47.5176 15.0789 47.5176C15.0058 47.5176 14.9328 47.5376 14.8398 47.5509C14.8464 47.6207 14.8498 47.6905 14.8597 47.7902C14.7734 47.7437 14.697 47.7038 14.6206 47.6606C14.6538 47.6373 14.6837 47.6107 14.7269 47.5775C14.6904 47.4811 14.6472 47.3714 14.604 47.2617C14.624 47.2617 14.6406 47.2683 14.6605 47.2683C14.7003 47.2118 14.7369 47.1553 14.7767 47.1021C14.8066 47.1221 14.8365 47.1454 14.8431 47.152C14.8298 47.2351 14.8199 47.3149 14.8099 47.3913H15.0955C15.1121 47.1287 14.9892 46.9825 14.7667 46.8661C14.7568 46.9426 14.7535 46.9924 14.7468 47.0423L14.7634 47.0157ZM19.7045 35.5344C19.7344 35.5842 19.7476 35.6208 19.7742 35.6474C19.9004 35.7903 20.0299 35.9333 20.1594 36.0762C20.2457 36.1693 20.3188 36.2823 20.4682 36.2889C20.4981 36.2889 20.5247 36.3388 20.5512 36.3687C20.6874 36.5183 20.8003 36.6945 20.9597 36.8141C21.3116 37.0834 21.6835 37.3294 22.0455 37.5853C22.2215 37.7083 22.3842 37.8479 22.6133 37.8812C22.7162 37.8945 22.8291 37.9543 22.9122 38.0241C23.2475 38.3233 23.5995 38.5992 24.0113 38.7953C24.2935 38.9316 24.5824 39.0114 24.8946 39.0014C24.9975 38.9981 25.0739 38.9017 25.0174 38.8186C24.9112 38.659 24.7717 38.5194 24.6422 38.3731C24.5857 38.31 24.516 38.2568 24.4596 38.1936C24.35 38.0706 24.2504 37.9377 24.1341 37.818C24.0445 37.7249 23.9349 37.6551 23.8486 37.5654C23.6394 37.3493 23.4302 37.1299 23.2376 36.9006C23.1147 36.7543 23.0118 36.5914 22.9122 36.4286C22.8856 36.3853 22.9088 36.3155 22.9088 36.259L22.9553 36.2524C23.5232 37.3094 24.4596 37.9609 25.4491 38.5593C25.5587 38.3765 25.552 38.3465 25.3827 38.2834C25.3561 38.2734 25.3229 38.2634 25.3063 38.2402C25.1469 38.0573 24.9643 37.8878 24.8448 37.6817C24.7617 37.5355 24.6721 37.4391 24.526 37.4025C24.4396 37.4357 24.3334 37.4923 24.267 37.4623C24.1043 37.3925 23.9216 37.3393 23.8419 37.1432C23.8087 37.0568 23.7622 36.9704 23.7025 36.9006C23.5597 36.741 23.4136 36.5881 23.2542 36.4418C23.0417 36.2491 22.7926 36.0961 22.6399 35.8402C22.62 35.8036 22.5801 35.7671 22.5403 35.7538C22.3277 35.684 22.2148 35.5011 22.0721 35.3516C22.0189 35.2984 21.9425 35.2685 21.8761 35.2319C21.8662 35.2252 21.8529 35.2219 21.833 35.2119C21.8728 35.1887 21.906 35.1721 21.9193 35.1654C21.7167 34.9759 21.5341 34.8097 21.3548 34.6435C21.2386 34.5338 21.1556 34.3942 21.0095 34.3011C20.7637 34.1482 20.5512 33.9455 20.3254 33.756C20.0299 33.5067 19.7543 33.2374 19.4189 33.0446C19.3624 33.0114 19.2894 32.9516 19.2794 32.8951C19.2529 32.7322 19.1167 32.7189 19.0071 32.6657C18.9441 32.6325 18.8876 32.5859 18.8311 32.5394C18.7946 32.5061 18.7714 32.4563 18.7349 32.4264C18.6087 32.3266 18.4725 32.2435 18.353 32.1405C18.1438 31.9544 17.9445 31.7549 17.7387 31.5654C17.7121 31.5388 17.6656 31.5322 17.6291 31.5189C17.6291 31.5521 17.6225 31.5821 17.6191 31.6153C17.6191 31.8646 17.8881 32.0474 17.7885 32.32C17.7885 32.3266 17.7951 32.3366 17.8018 32.3466C17.8881 32.4663 17.9811 32.5793 18.0641 32.7023C18.1139 32.7754 18.177 32.8485 18.1903 32.9283C18.2069 33.0247 18.2467 33.0679 18.3364 33.0845C18.4592 33.1111 18.5057 33.2042 18.4692 33.3073C18.4327 33.4136 18.4825 33.4269 18.5555 33.4668C18.6319 33.51 18.7083 33.5765 18.7481 33.6496C18.8311 33.7959 18.881 33.9588 18.9573 34.1083C18.9939 34.1815 19.0669 34.2347 19.1134 34.3011C19.2097 34.4408 19.2861 34.5903 19.3923 34.72C19.5218 34.8729 19.6746 35.0058 19.8107 35.1521C19.9834 35.3349 20.1494 35.5211 20.3254 35.7006C20.445 35.8236 20.5778 35.9333 20.704 36.0529C20.953 36.2889 21.1921 36.5316 21.4478 36.7576C21.6304 36.9205 21.8363 37.0568 22.0355 37.1997C22.0687 37.223 22.1152 37.2297 22.1584 37.2463C22.2016 37.2596 22.248 37.2695 22.2812 37.2928C22.5801 37.4856 22.8723 37.6884 23.1745 37.8778C23.3173 37.9676 23.4733 38.0341 23.6161 38.1205C23.7755 38.2169 23.9017 38.3632 24.0843 38.4197C24.1109 38.4263 24.1209 38.4762 24.1408 38.5061C24.1275 38.5194 24.1142 38.5327 24.1009 38.5427C24.0212 38.4862 23.9415 38.4263 23.8585 38.3765C23.7357 38.3 23.6095 38.2335 23.4899 38.1604C23.3704 38.0873 23.2575 38.0075 23.138 37.9377C22.9819 37.8479 22.8192 37.7682 22.6664 37.6784C22.444 37.5454 22.2215 37.4092 22.0023 37.2662C21.9492 37.2297 21.9127 37.1665 21.8695 37.12C21.8429 37.09 21.7898 37.0369 21.7832 37.0402C21.6769 37.12 21.6437 37.0069 21.5839 36.9671C21.5042 36.9139 21.4312 36.8441 21.3448 36.8042C21.1024 36.6945 20.8999 36.5316 20.7139 36.3454C20.6475 36.279 20.601 36.1892 20.528 36.1394C20.3453 36.0164 20.1793 35.8867 20.0432 35.7006C19.9834 35.6175 19.8971 35.4712 19.7011 35.5277L19.7045 35.5344ZM19.824 49.2462C19.8639 49.2495 19.9037 49.2428 19.9303 49.2595C20.0498 49.3392 20.1627 49.3193 20.2989 49.2993C20.445 49.2761 20.601 49.2993 20.7471 49.2462C20.7637 49.2395 20.7837 49.2561 20.8036 49.2595C20.8932 49.2761 20.9862 49.306 21.0759 49.3027C21.1987 49.3027 21.3482 49.2262 21.4345 49.2761C21.6271 49.3858 21.75 49.2694 21.8894 49.1963C22.0588 49.3858 22.2016 49.3592 22.5934 49.0434C22.4506 49.0367 22.3244 49.05 22.2082 49.0201C22.0156 48.9703 21.8263 48.8938 21.6371 48.8307C21.564 48.8074 21.4677 48.7542 21.4179 48.7841C21.3316 48.8307 21.2751 48.7974 21.1987 48.7908C21.036 48.7741 20.8401 48.6478 20.7305 48.8938C20.7239 48.9104 20.6973 48.9271 20.684 48.9237C20.5877 48.9038 20.4981 49.0135 20.3952 48.937C20.3852 48.9304 20.3487 48.9536 20.2889 48.9802C20.4914 49.0234 20.6575 49.06 20.8235 49.0966C20.8235 49.1099 20.8169 49.1232 20.8135 49.1365C20.5579 49.0899 20.3055 49.0401 20.0465 49.0035C19.8805 48.9802 19.8174 49.0534 19.824 49.2428V49.2462ZM17.8549 25.3328C17.8649 25.5023 18.4659 25.8879 18.7116 25.8846C18.5124 25.5622 18.1737 25.4757 17.8549 25.3328ZM23.1413 49.0999C23.2542 49.173 23.3372 49.2495 23.4335 49.2761C23.5032 49.296 23.5929 49.2528 23.6759 49.2395C23.6593 49.1996 23.6527 49.1331 23.6228 49.1232C23.5232 49.0833 23.4169 49.0534 23.3106 49.0401C23.2608 49.0334 23.2011 49.0766 23.1413 49.0999ZM21.5408 50.855C21.3415 50.8052 21.1821 50.7619 21.0227 50.722C20.9929 50.8417 21.0227 50.8982 21.119 50.9015C21.2054 50.9049 21.2917 50.9016 21.378 50.8982C21.4245 50.8949 21.4677 50.875 21.5408 50.855ZM16.4138 55.4555C16.3673 55.389 16.3341 55.3292 16.2909 55.276C16.271 55.2528 16.2344 55.2428 16.2079 55.2295C16.1913 55.2627 16.1614 55.2926 16.1581 55.3259C16.1481 55.4356 16.2344 55.4788 16.4171 55.4555H16.4138ZM27.6839 26.0342C27.6673 26.0209 27.6507 26.0043 27.6341 25.991C27.5245 26.0408 27.4448 26.114 27.4448 26.3001C27.5411 26.1937 27.6141 26.114 27.6839 26.0342Z" fill="url(#paint0_linear_3707_508)"/>
</g>
<defs>
<linearGradient id="paint0_linear_3707_508" x1="43.7" y1="56.0904" x2="-10.6027" y2="24.1792" gradientUnits="userSpaceOnUse">
<stop stop-color="#90660E"/>
<stop offset="1" stop-color="#D8BA67"/>
</linearGradient>
<clipPath id="clip0_3707_508">
<rect width="146" height="56" fill="white"/>
</clipPath>
</defs>
</svg>
