<svg width="358" height="346" viewBox="0 0 358 346" fill="none" xmlns="http://www.w3.org/2000/svg">
<path d="M322.152 205.483C325.586 192.613 342.322 181.044 342.322 167.099C342.322 153.154 325.603 141.585 322.152 128.716C318.597 115.395 327.181 97.0442 320.452 85.3712C313.619 73.5422 293.345 71.8597 283.755 62.2508C274.164 52.6592 272.465 32.3832 260.637 25.5494C248.982 18.8024 230.616 27.4053 217.297 23.8497C204.429 20.4154 192.861 3.67779 178.917 3.67779C164.974 3.67779 153.406 20.3981 140.538 23.8497C127.218 27.4053 108.87 18.8197 97.1978 25.5494C85.37 32.3832 83.6878 52.6592 74.0798 62.2508C64.4892 71.8424 44.2155 73.5422 37.3824 85.3712C30.636 97.0269 39.2381 115.395 35.6828 128.698C32.2489 141.568 15.5131 153.137 15.5131 167.082C15.5131 181.027 32.2316 192.596 35.6828 205.466C39.2381 218.786 30.6534 237.137 37.3824 248.793C44.2155 260.622 64.4892 262.304 74.0798 271.913C83.6704 281.505 85.37 301.781 97.1978 308.615C108.852 315.362 127.218 306.759 140.538 310.314C153.406 313.749 164.974 330.486 178.917 330.486C192.861 330.486 204.429 313.766 217.297 310.314C230.616 306.759 248.965 315.344 260.619 308.615C272.447 301.781 274.129 281.505 283.737 271.913C293.328 262.322 313.602 260.622 320.435 248.793C327.181 237.137 318.579 218.769 322.134 205.466L322.152 205.483ZM256.284 211.762C252.538 218.231 241.473 219.151 236.218 224.389C230.98 229.627 230.044 240.71 223.592 244.457C217.228 248.151 207.186 243.451 199.902 245.393C192.861 247.266 186.548 256.424 178.917 256.424C171.286 256.424 164.974 247.284 157.932 245.393C150.648 243.451 140.624 248.151 134.242 244.457C127.773 240.71 126.854 229.644 121.617 224.389C116.379 219.151 105.297 218.214 101.551 211.762C97.8569 205.396 102.557 195.354 100.614 188.069C98.7413 181.027 89.5843 174.714 89.5843 167.082C89.5843 159.45 98.724 153.137 100.614 146.095C102.557 138.81 97.8569 128.785 101.551 122.402C105.297 115.933 116.362 115.013 121.617 109.775C126.854 104.537 127.791 93.4538 134.242 89.7074C140.607 86.013 150.648 90.7134 157.932 88.7708C164.974 86.8976 171.286 77.7396 178.917 77.7396C186.548 77.7396 192.861 86.8802 199.902 88.7708C207.186 90.7134 217.21 86.013 223.592 89.7074C230.061 93.4538 230.98 104.52 236.218 109.775C241.456 115.013 252.538 115.95 256.284 122.402C259.978 128.768 255.278 138.81 257.22 146.095C259.093 153.137 268.25 159.45 268.25 167.082C268.25 174.714 259.111 181.027 257.22 188.069C255.278 195.354 259.978 205.379 256.284 211.762Z" fill="url(#paint0_linear_3707_1771)"/>
<circle cx="178.835" cy="167.121" r="139.082" fill="url(#paint1_linear_3707_1771)" stroke="white" stroke-width="0.554594"/>
<path d="M172.499 247.034L173.277 234.903L174.745 234.998L173.967 247.129L172.499 247.034Z" fill="white"/>
<path d="M152.44 242.933L156.267 231.396L157.662 231.86L153.835 243.397L152.44 242.933Z" fill="white"/>
<path d="M134.075 233.873L140.7 223.685L141.933 224.488L135.307 234.676L134.075 233.873Z" fill="white"/>
<path d="M118.607 220.446L127.597 212.274L128.586 213.364L119.595 221.536L118.607 220.446Z" fill="white"/>
<path d="M107.047 203.532L117.814 197.909L118.495 199.214L107.727 204.837L107.047 203.532Z" fill="white"/>
<path d="M100.151 184.235L111.991 181.53L112.319 182.965L100.479 185.67L100.151 184.235Z" fill="white"/>
<path d="M98.3718 163.819L110.51 164.209L110.463 165.68L98.3247 165.29L98.3718 163.819Z" fill="white"/>
<path d="M101.824 143.619L113.467 147.078L113.048 148.489L101.406 145.03L101.824 143.619Z" fill="white"/>
<path d="M110.283 124.956L120.668 131.257L119.906 132.516L109.521 126.215L110.283 124.956Z" fill="white"/>
<path d="M123.194 109.051L131.643 117.783L130.586 118.807L122.137 110.075L123.194 109.051Z" fill="white"/>
<path d="M139.714 96.9441L145.673 107.536L144.392 108.258L138.432 97.6665L139.714 96.9441Z" fill="white"/>
<path d="M158.761 89.4275L161.841 101.186L160.419 101.559L157.338 89.8009L158.761 89.4275Z" fill="white"/>
<path d="M179.09 87.5498V99.7057H177.619V87.5498H179.09Z" fill="white"/>
<path d="M199.371 89.7989L196.291 101.557L194.868 101.184L197.949 89.4256L199.371 89.7989Z" fill="white"/>
<path d="M218.278 97.6628L212.319 108.254L211.037 107.532L216.997 96.9405L218.278 97.6628Z" fill="white"/>
<path d="M234.574 110.07L226.125 118.802L225.069 117.778L233.518 109.046L234.574 110.07Z" fill="white"/>
<path d="M247.193 126.208L236.807 132.51L236.045 131.251L246.43 124.95L247.193 126.208Z" fill="white"/>
<path d="M255.309 145.023L243.666 148.482L243.248 147.071L254.89 143.612L255.309 145.023Z" fill="white"/>
<path d="M258.392 165.283L246.253 165.673L246.206 164.201L258.344 163.812L258.392 165.283Z" fill="white"/>
<path d="M256.24 185.663L244.4 182.958L244.727 181.523L256.567 184.228L256.24 185.663Z" fill="white"/>
<path d="M248.994 204.83L238.226 199.208L238.907 197.902L249.674 203.525L248.994 204.83Z" fill="white"/>
<path d="M237.126 221.531L228.136 213.358L229.125 212.268L238.115 220.441L237.126 221.531Z" fill="white"/>
<path d="M221.416 234.672L214.791 224.484L216.023 223.681L222.649 233.869L221.416 234.672Z" fill="white"/>
<path d="M202.889 243.395L199.062 231.858L200.457 231.394L204.284 242.931L202.889 243.395Z" fill="white"/>
<path d="M182.757 247.128L181.979 234.997L183.447 234.903L184.225 247.034L182.757 247.128Z" fill="white"/>
<path d="M154.661 196.152C147.096 196.152 141.352 193.751 137.429 188.948C133.562 184.144 131.629 177.051 131.629 167.668C131.629 158.286 133.562 151.192 137.429 146.389C141.352 141.586 147.096 139.185 154.661 139.185C162.226 139.185 167.942 141.586 171.809 146.389C175.732 151.192 177.693 158.286 177.693 167.668C177.693 177.051 175.732 184.144 171.809 188.948C167.942 193.751 162.226 196.152 154.661 196.152ZM154.661 184.926C156.734 184.926 158.416 184.368 159.705 183.251C160.993 182.078 161.918 180.235 162.479 177.722C163.095 175.152 163.403 171.801 163.403 167.668C163.403 163.535 163.095 160.212 162.479 157.699C161.918 155.13 160.993 153.287 159.705 152.17C158.416 150.997 156.734 150.411 154.661 150.411C152.644 150.411 150.962 150.997 149.618 152.17C148.329 153.287 147.376 155.13 146.76 157.699C146.199 160.212 145.919 163.535 145.919 167.668C145.919 171.801 146.199 175.152 146.76 177.722C147.376 180.235 148.329 182.078 149.618 183.251C150.962 184.368 152.644 184.926 154.661 184.926Z" fill="white"/>
<path d="M181.49 140.022H227.134V150.243C222.538 154.767 218.896 159.43 216.206 164.234C213.572 168.981 211.695 173.924 210.574 179.062C209.509 184.2 208.977 189.618 208.977 195.315H194.687C194.687 189.227 195.443 183.446 196.956 177.973C198.526 172.444 200.935 167.166 204.185 162.139C207.492 157.113 211.751 152.254 216.962 147.562L219.989 151.332H181.49V140.022Z" fill="white"/>
<path d="M68.418 125.806L74.0117 131.955C74.6825 132.7 75.5987 133.112 76.6992 133.502L79.5801 134.523L79.3213 135.254L76.1191 134.157L76.1143 134.155L75.7598 134.032C74.9629 133.741 74.3611 133.405 73.8027 132.772L73.7988 132.769L68.7861 127.188L68.1689 126.502L67.8604 127.372L65.4756 134.096L64.9531 133.911L67.8926 125.62L68.418 125.806Z" fill="white" stroke="white" stroke-width="1.09785"/>
<path d="M84.1167 99.042C85.2177 98.8719 86.3453 99.2415 87.4214 99.9844L91.2368 102.618C92.3222 103.368 93.1029 104.283 93.3501 105.39C93.5948 106.485 93.3435 107.893 92.1001 109.694L89.5464 113.393L78.0337 105.443L80.6851 101.604C81.8409 99.9295 83.024 99.2109 84.1167 99.042ZM86.937 100.611C85.9997 99.9644 84.9829 99.6159 83.939 99.8164C82.9625 100.004 82.0748 100.65 81.2759 101.732L81.1196 101.951L79.2231 104.659L78.9067 105.111L79.3618 105.426L89.0581 112.12L89.5093 112.433L89.8218 111.98L91.7358 109.208C92.5507 108.027 92.8956 106.906 92.6929 105.852C92.4905 104.799 91.7693 103.947 90.7524 103.245L86.937 100.611Z" fill="white" stroke="white" stroke-width="1.09785"/>
<path d="M94.5283 85.5703L93.3848 86.7764L93.0068 87.1738L93.4053 87.5518L102.125 95.8242L102.523 96.2021L102.901 95.8037L104.044 94.5977L104.384 94.9209L100.797 98.7021L100.457 98.3789L101.616 97.1582L101.994 96.7607L101.596 96.3828L92.876 88.1104L92.4775 87.7324L92.0996 88.1309L90.9414 89.3516L90.6006 89.0283L94.1875 85.2471L94.5283 85.5703Z" fill="white" stroke="white" stroke-width="1.09785"/>
<path d="M118.185 83.0361L118.202 83.0566L117.564 83.5566L114.209 81.2744L113.877 81.0479L113.562 81.2959L108.851 84.9922L108.535 85.2402L108.675 85.6162L110.094 89.418L109.511 89.875L104.501 76.0225L105.904 74.9229L118.185 83.0361ZM105.552 75.8496L105.467 75.916L105.151 76.1641L105.292 76.541L108.055 83.9209L108.318 84.624L108.908 84.1611L112.742 81.1533L113.332 80.6904L112.711 80.2676L106.2 75.8281L105.868 75.6025L105.552 75.8496Z" fill="white" stroke="white" stroke-width="1.09785"/>
<path d="M121.098 64.541C122.559 63.7391 123.599 63.6299 124.301 63.7852C124.996 63.9387 125.447 64.3702 125.704 64.8389L126.295 65.918L125.727 66.2578L125.33 65.5342H125.329C125.051 65.0268 124.583 64.5322 123.856 64.3525C123.137 64.1749 122.275 64.3327 121.263 64.8877C120.225 65.4578 119.577 66.1347 119.312 66.9053C119.044 67.6847 119.205 68.4502 119.553 69.1113L119.557 69.1201C119.932 69.8029 120.444 70.2671 121.11 70.499C121.756 70.7239 122.488 70.708 123.277 70.5605L125.766 70.1006H125.767C126.648 69.9366 127.405 69.902 128.068 70.1279C128.709 70.3465 129.34 70.8365 129.914 71.8818C130.483 72.9204 130.658 73.9433 130.383 74.876C130.109 75.8078 129.355 76.7529 127.861 77.5732C126.216 78.4766 125.116 78.5782 124.4 78.3994C123.694 78.223 123.243 77.7445 122.956 77.2197L122.463 76.3232L123.065 75.9541L123.356 76.4854C123.653 77.0258 124.129 77.5614 124.907 77.7393C125.664 77.9126 126.581 77.7154 127.7 77.1016C128.9 76.4423 129.542 75.6427 129.72 74.7471C129.872 73.9841 129.667 73.253 129.368 72.6348L129.234 72.377C128.817 71.6176 128.287 71.1296 127.595 70.9023C126.933 70.6851 126.195 70.7315 125.414 70.8701L122.953 71.292L122.949 71.293C121.882 71.4841 121.091 71.4258 120.481 71.1719C119.881 70.9223 119.389 70.4548 118.968 69.6885C118.466 68.7736 118.34 67.8782 118.625 67.0469C118.914 66.2066 119.658 65.3317 121.098 64.541Z" fill="white" stroke="white" stroke-width="1.09785"/>
<path d="M150.228 53.5459C152.204 53.0653 153.566 53.3151 154.494 53.916C155.43 54.5217 156.026 55.5487 156.334 56.8193L157.43 61.3242C157.741 62.6058 157.715 63.8088 157.163 64.7988C156.651 65.7181 155.631 66.5524 153.753 67.0791L153.366 67.1807L148.998 68.2422L145.692 54.6475L150.228 53.5459ZM153.847 54.376C152.937 53.833 151.755 53.7458 150.321 54.0938L147.104 54.8535L146.566 54.9805L146.697 55.5176L149.48 66.9678L149.609 67.501L150.144 67.3711L153.418 66.5752C154.812 66.2364 155.815 65.6292 156.365 64.707C156.915 63.7867 156.943 62.6698 156.651 61.4688L155.556 56.9639C155.287 55.8572 154.759 54.9207 153.847 54.376Z" fill="white" stroke="white" stroke-width="1.09785"/>
<path d="M174.52 50.7246L168.364 51.1377L167.816 51.1738L167.854 51.7217L168.178 56.5615L168.215 57.1094L168.763 57.0723L174.554 56.6836L174.592 57.2588L168.801 57.6475L168.253 57.6846L168.29 58.2324L168.637 63.3926L168.673 63.9404L169.221 63.9043L175.804 63.4619L175.844 64.0586L167.945 64.5879L167.009 50.6289L174.479 50.1279L174.52 50.7246Z" fill="white" stroke="white" stroke-width="1.09785"/>
<path d="M197.113 52.7295C198.026 51.9965 199.379 51.6062 201.375 51.9951C203.345 52.379 204.342 53.1609 204.831 53.9863C205.327 54.8263 205.362 55.8211 205.181 56.7471V56.748L205.112 57.1016L204.347 56.998L204.417 56.6426C204.562 55.9026 204.591 55.0085 204.111 54.21C203.624 53.4001 202.693 52.8173 201.205 52.5273C199.782 52.2501 198.621 52.4589 197.75 53.1357C196.893 53.8014 196.411 54.8464 196.178 56.043L195.288 60.6143C195.032 61.9275 195.056 63.1 195.579 64.0293C196.08 64.921 196.976 65.4764 198.21 65.7617L198.462 65.8154C200.042 66.1231 201.214 65.8458 202.037 65.2012C202.743 64.6482 203.125 63.8774 203.314 63.1543L203.383 62.8477L203.633 61.5625L203.738 61.0244L203.2 60.9189L199.63 60.2227L199.733 59.6992L204.511 60.6309L203.277 66.9688L203.092 66.9326L203.123 65.832L203.155 64.6348L202.227 65.3916C201.303 66.1442 199.995 66.6792 198.104 66.3105C196.286 65.9563 195.284 65.2041 194.773 64.2744C194.249 63.3229 194.176 62.0729 194.461 60.6064L195.365 55.9717C195.623 54.6471 196.183 53.4762 197.113 52.7295Z" fill="white" stroke="white" stroke-width="1.09785"/>
<path d="M221.581 58.1963L220.959 72.9014L220.949 72.9277L220.192 72.6396L220.42 68.5879L220.442 68.1875L220.067 68.0449L214.472 65.9121L214.097 65.7695L213.847 66.084L211.319 69.2588L210.628 68.9951L219.915 57.5615L221.581 58.1963ZM219.88 58.5068L214.979 64.6787L214.514 65.2656L215.215 65.5322L219.767 67.2676L220.467 67.5342L220.51 66.7852L220.958 58.917L220.98 58.5166L220.605 58.373L220.505 58.335L220.13 58.1924L219.88 58.5068Z" fill="white" stroke="white" stroke-width="1.09785"/>
<path d="M239.41 66.9248C240.36 67.483 240.995 68.2213 241.279 68.9902C241.542 69.7002 241.518 70.4654 241.131 71.21L241.048 71.3584L240.254 72.709H240.253C239.434 74.1023 237.982 74.4192 236.596 74.0254L235.922 73.834L235.897 74.5342L235.666 80.9521L234.9 80.502L235.216 73.834L235.231 73.5029L234.945 73.335L232.392 71.834L231.919 71.5557L231.641 72.0283L228.775 76.9023L228.112 76.5127L235.202 64.4512L239.41 66.9248ZM235.307 65.793L232.479 70.6035L232.2 71.0771L232.674 71.3555L235.061 72.7578V72.7588C235.773 73.1777 236.613 73.5171 237.442 73.502C238.319 73.4858 239.123 73.0715 239.681 72.123L240.191 71.2539C240.604 70.5519 240.722 69.7766 240.432 69.0146C240.15 68.2747 239.514 67.6293 238.594 67.0879L236.058 65.5977L235.585 65.3193L235.307 65.793Z" fill="white" stroke="white" stroke-width="1.09785"/>
<path d="M255.531 78.4814L250.113 92.166L250.095 92.1865L249.475 91.666L251.022 87.9141L251.174 87.543L250.868 87.2852L246.283 83.4336L245.975 83.1748L245.636 83.3896L242.206 85.5586L241.638 85.082L254.167 77.334L255.531 78.4814ZM253.824 78.2148L247.167 82.4336L246.533 82.8359L247.107 83.3184L250.838 86.4521L251.413 86.9346L251.699 86.2412L254.708 78.957L254.861 78.5859L254.553 78.3281L254.471 78.2588L254.164 78L253.824 78.2148Z" fill="white" stroke="white" stroke-width="1.09785"/>
<path d="M265.826 91.1846L266.021 91.4238L265.918 91.7148L261.34 104.642L262.093 105.549L272.864 96.6191L272.428 96.0928L263.548 103.455L263.128 103.803L262.778 103.386L262.736 103.337L262.533 103.095L262.639 102.798L267.275 89.8779L266.497 88.9385L255.726 97.8672L256.162 98.3936L265.01 91.0596L265.436 90.707L265.786 91.1357L265.826 91.1846ZM265.826 91.1846L265.401 91.5322V91.5312L265.826 91.1846Z" fill="white" stroke="white" stroke-width="1.09785"/>
<path d="M284.053 114.25L283.513 114.557L281.549 111.096L281.277 110.618L280.8 110.89L269.649 117.221L269.27 116.552L280.42 110.221L280.897 109.95L280.626 109.473L278.661 106.011L279.199 105.705L284.053 114.25Z" fill="white" stroke="white" stroke-width="1.09785"/>
<path d="M289.98 127.87L289.543 128.041L288.937 126.495L288.736 125.984L288.225 126.185L277.038 130.578L276.527 130.778L276.728 131.289L277.334 132.835L276.897 133.007L274.992 128.155L275.43 127.983L276.045 129.552L276.245 130.062L276.757 129.861L287.943 125.469L288.454 125.269L288.254 124.757L287.639 123.189L288.076 123.018L289.98 127.87Z" fill="white" stroke="white" stroke-width="1.09785"/>
<path d="M293.967 141.119L294.37 142.855L281.817 150.542L281.791 150.548L281.607 149.759L285.099 147.688L285.443 147.483L285.353 147.093L284.001 141.259L283.91 140.867L283.51 140.835L279.465 140.509L279.298 139.787L293.967 141.119ZM284.73 141.662L285.83 146.408L285.999 147.14L286.645 146.757L293.424 142.74L293.768 142.537L293.68 142.147L293.656 142.044L293.567 141.648L293.164 141.617L285.309 140.991L284.561 140.932L284.73 141.662Z" fill="white" stroke="white" stroke-width="1.09785"/>
<path d="M280.968 199.563L280.972 199.564C281.95 199.89 282.646 200.226 283.284 200.949L283.288 200.953L288.3 206.533L288.917 207.22L289.226 206.35L291.609 199.624L292.133 199.81L289.192 208.101L288.668 207.915L283.074 201.765C282.403 201.022 281.487 200.61 280.386 200.22L277.506 199.198L277.765 198.468L280.968 199.563Z" fill="white" stroke="white" stroke-width="1.09785"/>
<path d="M279.056 228.276L276.405 232.117C275.249 233.791 274.066 234.51 272.973 234.679C271.872 234.849 270.744 234.479 269.668 233.736L265.853 231.103C264.767 230.353 263.987 229.437 263.74 228.331C263.51 227.304 263.716 226.003 264.767 224.36L264.989 224.027L267.542 220.328L279.056 228.276ZM267.268 221.741L265.353 224.513V224.514C264.538 225.694 264.193 226.814 264.396 227.869C264.598 228.922 265.32 229.774 266.337 230.477L270.153 233.11C271.09 233.757 272.107 234.106 273.151 233.905C274.191 233.705 275.131 232.983 275.97 231.77L277.866 229.062L278.183 228.608L277.728 228.295L268.032 221.601L267.58 221.289L267.268 221.741Z" fill="white" stroke="white" stroke-width="1.09785"/>
<path d="M256.629 235.342L255.471 236.563L255.094 236.962L255.491 237.34L264.211 245.612L264.609 245.99L264.987 245.592L266.146 244.37L266.485 244.692L262.897 248.474L262.559 248.151L263.702 246.946L264.08 246.549L263.683 246.171L254.963 237.897L254.564 237.521L254.187 237.918L253.042 239.124L252.701 238.801L256.289 235.02L256.629 235.342Z" fill="white" stroke="white" stroke-width="1.09785"/>
<path d="M252.579 257.697L251.177 258.797L238.896 250.686L238.879 250.662L239.516 250.162L242.871 252.446L243.203 252.673L243.519 252.425L248.229 248.729L248.546 248.48L248.405 248.104L246.985 244.303L247.568 243.845L252.579 257.697ZM248.174 249.56L244.341 252.566L243.751 253.029L244.37 253.452L250.882 257.892L251.217 258.12L251.533 257.868L251.616 257.802L251.928 257.553L251.788 257.18L249.026 249.8L248.764 249.097L248.174 249.56Z" fill="white" stroke="white" stroke-width="1.09785"/>
<path d="M229.222 256.147C230.867 255.244 231.965 255.142 232.682 255.32C233.388 255.497 233.839 255.976 234.128 256.501L234.619 257.396L234.017 257.765L233.726 257.235H233.727C233.43 256.694 232.953 256.158 232.176 255.98C231.418 255.807 230.5 256.004 229.382 256.618C228.181 257.278 227.54 258.078 227.361 258.974C227.209 259.737 227.416 260.468 227.716 261.086L227.85 261.344C228.266 262.103 228.796 262.59 229.488 262.817C230.15 263.034 230.886 262.987 231.667 262.849L231.668 262.85L234.131 262.429L234.135 262.428C235.201 262.236 235.991 262.294 236.602 262.548C237.201 262.798 237.694 263.265 238.115 264.031C238.617 264.946 238.744 265.842 238.458 266.674C238.169 267.514 237.425 268.388 235.985 269.179C234.525 269.98 233.485 270.09 232.782 269.935C232.174 269.8 231.753 269.453 231.484 269.055L231.378 268.881L230.785 267.803L231.355 267.462L231.753 268.186V268.187C232.032 268.693 232.501 269.188 233.228 269.367C233.946 269.545 234.808 269.387 235.818 268.833H235.819C236.857 268.263 237.504 267.585 237.77 266.814C238.038 266.035 237.878 265.27 237.529 264.608L237.525 264.601L237.378 264.354C237.02 263.805 236.556 263.425 235.974 263.222C235.328 262.997 234.595 263.011 233.806 263.158L231.317 263.619L231.316 263.62C230.435 263.784 229.678 263.818 229.015 263.592C228.373 263.373 227.743 262.884 227.169 261.838C226.599 260.8 226.424 259.777 226.699 258.844C226.974 257.912 227.728 256.968 229.222 256.147Z" fill="white" stroke="white" stroke-width="1.09785"/>
<path d="M211.398 279.074L206.864 280.178C204.887 280.659 203.526 280.408 202.597 279.807C201.662 279.201 201.065 278.174 200.756 276.903L199.663 272.4V272.399C199.351 271.118 199.378 269.915 199.929 268.925C200.475 267.944 201.599 267.06 203.726 266.543L208.092 265.48L211.398 279.074ZM206.948 266.353L203.673 267.148C202.28 267.487 201.277 268.094 200.726 269.017C200.177 269.937 200.148 271.053 200.44 272.254L201.536 276.759C201.804 277.866 202.332 278.803 203.245 279.348C204.155 279.891 205.336 279.977 206.77 279.629L206.771 279.63L209.988 278.869L210.525 278.742L210.395 278.205L207.611 266.756L207.481 266.223L206.948 266.353Z" fill="white" stroke="white" stroke-width="1.09785"/>
<path d="M190.077 283.093L182.606 283.593L182.566 282.997L188.722 282.584L189.27 282.548L189.233 282L188.909 277.16L188.872 276.612L188.324 276.649L182.532 277.037L182.494 276.462L188.286 276.074L188.833 276.037L188.796 275.49L188.45 270.328L188.414 269.78L187.866 269.817L181.283 270.258L181.243 269.663L189.14 269.133L190.077 283.093Z" fill="white" stroke="white" stroke-width="1.09785"/>
<path d="M153.991 266.788L153.961 267.889L153.928 269.085L154.857 268.329C155.781 267.577 157.089 267.041 158.981 267.41C160.798 267.764 161.799 268.517 162.311 269.446C162.802 270.339 162.897 271.493 162.672 272.843L162.624 273.115L161.719 277.749C161.461 279.074 160.901 280.246 159.971 280.992C159.115 281.679 157.873 282.064 156.077 281.789L155.709 281.726C153.74 281.342 152.742 280.56 152.254 279.734C151.758 278.894 151.723 277.899 151.903 276.973L151.971 276.617L152.736 276.722L152.667 277.078C152.522 277.818 152.493 278.712 152.973 279.511C153.46 280.321 154.39 280.904 155.878 281.194C157.302 281.472 158.463 281.262 159.334 280.585C160.191 279.919 160.672 278.874 160.905 277.678L161.796 273.106C162.052 271.793 162.028 270.622 161.505 269.692C160.97 268.741 159.987 268.171 158.622 267.905C157.042 267.598 155.87 267.875 155.047 268.52C154.342 269.072 153.96 269.843 153.77 270.566L153.701 270.873L153.451 272.158L153.345 272.696L153.884 272.802L157.453 273.497L157.351 274.021L152.572 273.09L153.806 266.752L153.991 266.788Z" fill="white" stroke="white" stroke-width="1.09785"/>
<path d="M136.897 261.081L136.671 265.134L136.648 265.534L137.023 265.678L142.619 267.809L142.994 267.952L143.244 267.638L145.771 264.461L146.462 264.725L137.175 276.158L135.51 275.523L136.131 260.819L136.141 260.793L136.897 261.081ZM136.581 266.937L136.133 274.804L136.11 275.205L136.485 275.348L136.584 275.386L136.96 275.529L137.21 275.214L142.111 269.043L142.577 268.456L141.877 268.188L137.324 266.455L136.624 266.188L136.581 266.937Z" fill="white" stroke="white" stroke-width="1.09785"/>
<path d="M122.181 253.219L121.867 259.889L121.851 260.22L122.136 260.388L124.69 261.889L125.164 262.167L125.442 261.693L128.305 256.818L128.969 257.208L121.879 269.27L117.672 266.797H117.671C116.722 266.239 116.087 265.5 115.803 264.731C115.524 263.974 115.571 263.155 116.036 262.363L116.829 261.012C117.647 259.619 119.1 259.303 120.488 259.696L121.162 259.887L121.186 259.188L121.416 252.769L122.181 253.219ZM119.639 260.221C118.817 260.236 118.059 260.6 117.508 261.427L117.401 261.599L116.89 262.469C116.478 263.17 116.36 263.945 116.651 264.707C116.933 265.447 117.569 266.092 118.49 266.633L121.025 268.124L121.499 268.402L121.777 267.929L124.604 263.117L124.882 262.644L124.409 262.366L122.022 260.964C121.309 260.544 120.468 260.205 119.639 260.221Z" fill="white" stroke="white" stroke-width="1.09785"/>
<path d="M107.609 242.054L106.064 245.808L105.912 246.179L106.22 246.437L110.805 250.288L111.112 250.546L111.451 250.331L114.88 248.162L115.447 248.639L102.919 256.387L101.555 255.239L106.974 241.553L106.99 241.533L107.609 242.054ZM105.388 247.479L102.38 254.765L102.225 255.14L102.538 255.397L102.62 255.466L102.927 255.719L103.263 255.506L109.919 251.287L110.553 250.886L109.979 250.403L106.248 247.269L105.674 246.786L105.388 247.479Z" fill="white" stroke="white" stroke-width="1.09785"/>
<path d="M91.1724 242.005L91.0688 242.298L91.2671 242.538L91.3081 242.588L91.6587 243.01L92.0815 242.66L100.928 235.325L101.365 235.853L90.5933 244.781L89.8149 243.842L94.4517 230.923L94.5571 230.628L94.3569 230.388L94.3159 230.338L93.9663 229.915L93.5435 230.266L84.6626 237.625L84.2261 237.1L94.9976 228.171L95.7495 229.078L91.1724 242.005Z" fill="white" stroke="white" stroke-width="1.09785"/>
<path d="M87.8237 217.17L76.6733 223.502L76.1968 223.773L76.4673 224.251L78.4312 227.711L77.8931 228.017L73.0415 219.471L73.5796 219.166L75.5454 222.626L75.8169 223.104L76.2935 222.832L87.4438 216.502L87.8237 217.17Z" fill="white" stroke="white" stroke-width="1.09785"/>
<path d="M82.0928 205.564L81.6562 205.736L81.042 204.17L80.8418 203.658L80.3301 203.859L69.1426 208.252L68.6318 208.453L68.832 208.964L69.4473 210.53L69.0107 210.701L67.1055 205.85L67.542 205.678L68.1494 207.226L68.3506 207.737L68.8613 207.536L80.0488 203.144L80.5605 202.942L80.3594 202.432L79.752 200.884L80.1885 200.713L82.0928 205.564Z" fill="white" stroke="white" stroke-width="1.09785"/>
<path d="M75.4795 183.96L71.9902 186.033L71.6455 186.238L71.7363 186.629L73.0879 192.463L73.1787 192.854L73.5791 192.887L77.623 193.211L77.791 193.933L63.1211 192.602L62.7188 190.865L75.2705 183.179L75.2969 183.172L75.4795 183.96ZM70.4443 186.965L63.6641 190.981L63.3184 191.187L63.4092 191.578L63.4336 191.682L63.5244 192.073L63.9248 192.104L71.7803 192.73L72.5283 192.79L72.3584 192.059L71.2588 187.313L71.0898 186.582L70.4443 186.965Z" fill="white" stroke="white" stroke-width="1.09785"/>
<defs>
<linearGradient id="paint0_linear_3707_1771" x1="357.835" y1="345.999" x2="-45.6707" y2="65.7591" gradientUnits="userSpaceOnUse">
<stop stop-color="#90660E"/>
<stop offset="1" stop-color="#D8BA67"/>
</linearGradient>
<linearGradient id="paint1_linear_3707_1771" x1="318.194" y1="306.48" x2="-2.89443" y2="90.8552" gradientUnits="userSpaceOnUse">
<stop stop-color="#90660E"/>
<stop offset="1" stop-color="#D8BA67"/>
</linearGradient>
</defs>
</svg>
